{
.appVersion = "3133";
.formatVersion = 3;
axes = (
{
name = wght;
tag = wght;
}
);
customParameters = (
{
name = "Write lastChange";
value = 0;
},
{
name = "Use Typo Metrics";
value = 1;
},
{
name = fsType;
value = (
);
}
);
date = "2022-02-28 16:51:29 +0000";
familyName = "Edu TAS Beginner";
featurePrefixes = (
{
automatic = 1;
code = "languagesystem DFLT dflt;
";
name = Languagesystems;
}
);
fontMaster = (
{
axesValues = (
400
);
customParameters = (
{
name = hheaAscender;
value = 1016;
},
{
name = hheaDescender;
value = -244;
},
{
name = hheaLineGap;
value = 0;
},
{
name = typoAscender;
value = 1016;
},
{
name = typoDescender;
value = -244;
},
{
name = typoLineGap;
value = 0;
},
{
name = winAscent;
value = 1129;
},
{
name = winDescent;
value = 368;
}
);
id = m01;
metricValues = (
{
pos = 772;
},
{
over = 5;
pos = 772;
},
{
over = 5;
pos = 416;
},
{
over = -5;
},
{
over = -5;
pos = -356;
},
{
}
);
name = Regular;
stemValues = (
59,
55
);
userData = {
com.typemytype.robofont.segmentType = curve;
com.typemytype.robofont.smartSets.uniqueKey = "4576934160";
com.typesupply.metricsMachine4.groupColors = {
public.kern1.H_right = (
1,
0,
0,
0.25
);
public.kern1.O_right = (
1,
0,
0.76,
0.25
);
public.kern1.V_right = (
0,
1,
1,
0.25
);
public.kern1.colon_right = (
0.5,
0,
1,
0.25
);
public.kern1.hyphen_right = (
0,
0,
1,
0.25
);
public.kern1.n_right = (
1,
1,
0,
0.25
);
public.kern1.o_right = (
0,
1,
0,
0.25
);
public.kern1.period_right = (
1,
0,
1,
0.25
);
public.kern1.quote_right = (
1,
0,
0.5,
0.25
);
public.kern1.v_right = (
0,
0.5,
1,
0.25
);
public.kern2.H_left = (
0,
0.9,
0.92,
0.25
);
public.kern2.O_left = (
0,
0,
0.98,
0.25
);
public.kern2.V_left = (
0,
1,
0,
0.25
);
public.kern2.colon_left = (
1,
0,
1,
0.25
);
public.kern2.h_left = (
0.48,
0,
1,
0.25
);
public.kern2.hyphen_left = (
0.5,
0,
1,
0.25
);
public.kern2.n_left = (
1,
0,
0,
0.25
);
public.kern2.o_left = (
1,
0,
0.89,
0.25
);
public.kern2.period_left = (
1,
0,
0.5,
0.25
);
public.kern2.quote_left = (
1,

glyphs = (
{
color = 6;
glyphname = A;
layers = (
{
layerId = m01;
shapes = (
{
closed = 1;
nodes = (
(-7,0,o),
(-1,6,o),
(12,27,cs),
(416,683,l),
(397,688,l),
(404,25,ls),
(404,13,o),
(407,0,o),
(432,0,cs),
(454,0,o),
(462,11,o),
(462,29,cs),
(453,748,ls),
(453,760,o),
(442,772,o),
(425,772,cs),
(402,772,o),
(397,760,o),
(387,745,cs),
(-48,39,ls),
(-62,17,o),
(-49,0,o),
(-31,0,cs)
);
},
{
closed = 1;
nodes = (
(429,388,l),
(428,442,l),
(232,442,l),
(202,388,l)
);
}
);
vertWidth = 0;
width = 575;
},
{
layerId = "6449507E-FEE0-4D4A-A81F-7CAB6A5803D5";
shapes = (
{
closed = 1;
nodes = (
(83,0,o),
(94,7,o),
(114,40,cs),
(467,613,l),
(406,630,l),
(412,55,l),
(412,31,o),
(416,0,o),
(472,0,cs),
(516,0,o),
(531,23,o),
(531,58,cs),
(523,719,ls),
(523,743,o),
(503,772,o),
(465,772,cs),
(428,772,o),
(418,757,o),
(402,732,cs),
(4,86,ls),
(-32,27,o),
(11,0,o),
(48,0,cs)
);
},
{
closed = 1;
nodes = (
(473,284,l),
(470,398,l),
(268,398,l),
(204,284,l)
);
}
);
vertWidth = 0;
width = 590;
}
);
unicode = 65;
},
{
color = 6;
glyphname = B;
kernLeft = H_left;
layers = (
{
layerId = m01;
shapes = (
{
closed = 1;
nodes = (
(366,396,o),
(485,435,o),
(511,544,cs),
(545,687,o),
(440,773,o),
(234,772,c),
(247,719,l),
(400,719,o),
(479,655,o),
(453,550,cs),
(434,470,o),
(339,437,o),
(171,449,c),
(158,410,l)
);
},
{
closed = 1;
nodes = (
(302,0,o),
(444,57,o),
(473,171,cs),
(510,320,o),
(394,416,o),
(171,431,c),
(159,390,l),
(347,377,o),
(444,298,o),
(416,184,cs),
(394,96,o),
(282,52,o),
(81,52,c),
(49,0,l)
);
},
{
closed = 1;
nodes = (
(65,-1,o),
(76,8,o),
(82,32,cs),
(257,733,ls),
(264,759,o),
(257,770,o),
(234,772,cs),
(214,773,o),
(203,765,o),
(197,743,cs),
(23,39,ls),
(18,19,o),
(29,1,o),
(49,0,cs)
);
}
);
vertWidth = 0;
width = 555;
},
{
layerId = "6449507E-FEE0-4D4A-A81F-7CAB6A5803D5";
shapes = (
{
closed = 1;
nodes = (
(430,369,o),
(538,413,o),
(565,523,cs),
(600,670,o),
(510,772,o),
(283,772,c),
(289,658,l),
(390,658,o),
(468,624,o),
(448,544,cs),
(432,480,o),
(345,454,o),
(225,460,c),
(208,383,l)
);
},
{
closed = 1;
nodes = (
(369,0,o),
(501,69,o),
(530,182,cs),
(568,333,o),
(469,413,o),
(225,436,c),
(209,356,l),
(336,346,o),
(437,301,o),
(415,209,cs),
(397,137,o),
(290,113,o),
(143,113,c),
(108,0,l)
);
},
{
closed = 1;
nodes = (
(137,0,o),
(160,7,o),
(172,55,cs),
(333,696,ls),
(347,751,o),
(327,767,o),
(283,772,cs),
(246,775,o),
(226,762,o),
(215,721,cs),
(55,76,ls),
(45,34,o),
(70,0,o),
(108,0,cs)
);
}
);
vertWidth = 0;
width = 580;
}
);
unicode = 66;
},
{
color = 6;
glyphname = C;
kernLeft = O_left;
layers = (
{
layerId = m01;
shapes = (
{
closed = 1;
nodes = (
(283,0,o),
(367,56,o),
(440,166,cs),
(465,206,o),
(469,220,o),
(469,227,cs),
(470,241,o),
(459,248,o),
(446,249,cs),
(426,251,o),
(417,235,o),
(398,204,cs),
(331,105,o),
(266,55,o),
(214,55,cs),
(132,55,o),
(95,158,o),
(115,327,cs),
(144,568,o),
(240,718,o),
(374,718,cs),
(418,718,o),
(450,693,o),
(468,644,cs),
(475,627,o),
(491,619,o),
(508,625,cs),
(524,630,o),
(530,642,o),
(526,657,cs),
(506,733,o),
(457,772,o),
(381,772,cs),
(211,772,o),
(86,598,o),
(52,316,cs),
(30,121,o),
(90,0,o),
(213,0,cs)
);
}
);
vertWidth = 0;
width = 556;
},
{
layerId = "6449507E-FEE0-4D4A-A81F-7CAB6A5803D5";
shapes = (
{
closed = 1;
nodes = (
(328,0,o),
(417,52,o),
(492,168,cs),
(523,215,o),
(525,232,o),
(525,240,cs),
(525,264,o),
(506,291,o),
(473,293,cs),
(447,295,o),
(430,284,o),
(399,236,cs),
(349,160,o),
(299,115,o),
(258,115,cs),
(194,115,o),
(189,229,o),
(201,328,cs),
(222,518,o),
(292,657,o),
(405,657,cs),
(432,657,o),
(450,639,o),
(460,611,c),
(474,577,o),
(505,563,o),
(538,574,cs),
(570,583,o),
(584,608,o),
(576,642,cs),
(555,728,o),
(498,772,o),
(411,772,cs),
(245,772,o),
(112,612,o),
(77,326,cs),
(52,108,o),
(132,0,o),
(257,0,cs)
);
}
);
vertWidth = 0;
width = 562;
}
);
unicode = 67;
},
{
color = 6;
glyphname = D;
kernLeft = H_left;
kernRight = O_right;
layers = (
{
layerId = m01;
shapes = (
{
closed = 1;
nodes = (
(71,0,o),
(77,15,o),
(81,27,cs),
(258,734,ls),
(264,756,o),
(261,772,o),
(236,772,cs),
(210,772,o),
(204,762,o),
(200,744,cs),
(20,33,ls),
(15,17,o),
(24,0,o),
(45,0,cs)
);
},
{
closed = 1;
nodes = (
(367,0,o),
(525,156,o),
(589,461,cs),
(628,647,o),
(544,772,o),
(362,772,cs),
(236,772,l),
(227,718,l),
(354,718,ls),
(495,718,o),
(562,618,o),
(527,456,cs),
(472,194,o),
(337,58,o),
(128,55,cs),
(62,53,l),
(45,0,l),
(124,0,ls)
);
}
);
vertWidth = 0;
width = 618;
},
{
layerId = "6449507E-FEE0-4D4A-A81F-7CAB6A5803D5";
shapes = (
{
closed = 1;
nodes = (
(154,0,o),
(165,27,o),
(172,49,cs),
(334,697,ls),
(348,747,o),
(331,772,o),
(283,772,cs),
(236,772,o),
(226,753,o),
(217,722,cs),
(53,71,ls),
(43,36,o),
(62,0,o),
(108,0,cs)
);
},
{
closed = 1;
nodes = (
(417,0,o),
(575,147,o),
(638,448,cs),
(680,645,o),
(587,772,o),
(398,772,cs),
(283,772,l),
(263,657,l),
(391,657,ls),
(499,657,o),
(543,575,o),
(518,457,cs),
(470,238,o),
(361,121,o),
(183,115,cs),
(144,114,l),
(108,0,l),
(179,0,ls)
);
}
);
vertWidth = 0;
width = 623;
}
);
unicode = 68;
},
{
color = 6;
glyphname = E;
kernLeft = H_left;
layers = (
{
layerId = m01;
shapes = (
{
closed = 1;
nodes = (
(72,0,o),
(78,19,o),
(82,31,cs),
(255,731,ls),
(260,752,o),
(261,772,o),
(235,772,c),
(210,772,o),
(202,762,o),
(197,743,cs),
(21,34,ls),
(17,17,o),
(25,0,o),
(46,0,cs)
);
},
{
closed = 1;
nodes = (
(399,0,ls),
(418,0,o),
(430,12,o),
(430,30,cs),
(430,44,o),
(418,53,o),
(399,53,cs),
(62,53,l),
(48,0,l)
);
},
{
closed = 1;
nodes = (
(381,366,ls),
(400,366,o),
(412,377,o),
(412,393,cs),
(412,410,o),
(400,419,o),
(381,419,cs),
(147,419,l),
(134,366,l)
);
},
{
closed = 1;
nodes = (
(552,719,ls),
(571,719,o),
(583,729,o),
(583,746,cs),
(583,763,o),
(571,772,o),
(552,772,cs),
(235,772,l),
(221,719,l)
);
}
);
vertWidth = 0;
width = 567;
},
{
layerId = "6449507E-FEE0-4D4A-A81F-7CAB6A5803D5";
shapes = (
{
closed = 1;
nodes = (
(153,0,o),
(166,30,o),
(172,51,cs),
(331,694,ls),
(343,747,o),
(328,772,o),
(282,772,cs),
(238,772,o),
(223,753,o),
(215,720,cs),
(53,72,ls),
(44,33,o),
(64,0,o),
(108,0,cs)
);
},
{
closed = 1;
nodes = (
(431,0,ls),
(469,0,o),
(492,25,o),
(492,59,cs),
(492,88,o),
(475,114,o),
(431,114,cs),
(132,114,l),
(108,0,l)
);
},
{
closed = 1;
nodes = (
(415,335,ls),
(455,335,o),
(476,360,o),
(476,392,cs),
(476,425,o),
(456,449,o),
(415,449,cs),
(184,449,l),
(156,335,l)
);
},
{
closed = 1;
nodes = (
(571,658,ls),
(612,658,o),
(632,683,o),
(632,715,cs),
(632,748,o),
(613,772,o),
(571,772,cs),
(282,772,l),
(254,658,l)
);
}
);
vertWidth = 0;
width = 574;
}
);
unicode = 69;
},
{
color = 6;
glyphname = F;
kernLeft = H_left;
layers = (
{
layerId = m01;
shapes = (
{
closed = 1;
nodes = (
(72,0,o),
(78,19,o),
(82,31,cs),
(255,731,ls),
(260,752,o),
(261,772,o),
(235,772,c),
(210,772,o),
(202,762,o),
(197,743,cs),
(21,34,ls),
(17,17,o),
(25,0,o),
(46,0,cs)
);
},
{
closed = 1;
nodes = (
(381,356,ls),
(400,356,o),
(412,367,o),
(412,384,cs),
(412,400,o),
(400,410,o),
(381,410,cs),
(145,410,l),
(132,356,l)
);
},
{
closed = 1;
nodes = (
(552,719,ls),
(571,719,o),
(583,729,o),
(583,746,cs),
(583,763,o),
(571,772,o),
(552,772,cs),
(235,772,l),
(221,719,l)
);
}
);
vertWidth = 0;
width = 541;
},
{
layerId = "6449507E-FEE0-4D4A-A81F-7CAB6A5803D5";
shapes = (
{
closed = 1;
nodes = (
(153,0,o),
(166,30,o),
(172,51,cs),
(331,694,ls),
(345,747,o),
(329,772,o),
(282,772,cs),
(239,772,o),
(223,753,o),
(215,720,cs),
(55,72,ls),
(44,33,o),
(64,0,o),
(109,0,cs)
);
},
{
closed = 1;
nodes = (
(417,327,ls),
(457,327,o),
(478,352,o),
(478,384,cs),
(478,417,o),
(459,441,o),
(417,441,cs),
(206,441,l),
(177,327,l)
);
},
{
closed = 1;
nodes = (
(573,658,ls),
(612,658,o),
(633,683,o),
(633,715,cs),
(633,748,o),
(613,772,o),
(573,772,c),
(282,772,l),
(254,658,l)
);
}
);
vertWidth = 0;
width = 552;
}
);
unicode = 70;
},
{
color = 6;
glyphname = G;
kernLeft = O_left;
layers = (
{
layerId = m01;
shapes = (
{
closed = 1;
nodes = (
(271,0,o),
(352,56,o),
(423,187,c),
(416,190,l),
(374,33,ls),
(371,19,o),
(374,0,o),
(397,0,cs),
(424,0,o),
(431,17,o),
(435,30,cs),
(520,365,ls),
(526,388,o),
(508,399,o),
(493,399,cs),
(472,399,o),
(467,396,o),
(426,293,cs),
(368,145,o),
(276,53,o),
(183,53,cs),
(93,53,o),
(75,201,o),
(135,440,cs),
(182,624,o),
(271,718,o),
(377,718,cs),
(415,718,o),
(443,693,o),
(462,644,cs),
(468,627,o),
(484,619,o),
(503,625,cs),
(519,630,o),
(525,643,o),
(520,657,cs),
(493,733,o),
(447,772,o),
(381,772,cs),
(233,772,o),
(125,642,o),
(71,430,cs),
(5,164,o),
(45,0,o),
(176,0,cs)
);
}
);
vertWidth = 0;
width = 571;
},
{
layerId = "6449507E-FEE0-4D4A-A81F-7CAB6A5803D5";
shapes = (
{
closed = 1;
nodes = (
(322,0,o),
(365,72,o),
(422,176,c),
(403,183,l),
(374,71,ls),
(366,38,o),
(379,0,o),
(426,0,cs),
(473,0,o),
(486,29,o),
(492,51,cs),
(570,359,ls),
(583,407,o),
(546,431,o),
(514,431,cs),
(482,431,o),
(467,421,o),
(423,314,cs),
(375,196,o),
(307,114,o),
(230,114,cs),
(156,114,o),
(203,367,o),
(219,426,cs),
(254,571,o),
(321,657,o),
(407,657,cs),
(431,657,o),
(444,638,o),
(455,611,cs),
(467,580,o),
(495,562,o),
(532,574,cs),
(569,584,o),
(581,613,o),
(570,644,cs),
(539,732,o),
(485,772,o),
(412,772,cs),
(265,772,o),
(151,650,o),
(96,435,cs),
(15,110,o),
(94,0,o),
(223,0,cs)
);
}
);
vertWidth = 0;
width = 576;
}
);
unicode = 71;
},
{
color = 6;
glyphname = H;
kernLeft = H_left;
kernRight = H_right;
layers = (
{
layerId = m01;
shapes = (
{
closed = 1;
nodes = (
(72,0,o),
(80,15,o),
(82,27,cs),
(255,733,ls),
(260,754,o),
(254,772,o),
(234,772,cs),
(211,772,o),
(202,762,o),
(197,743,cs),
(21,34,ls),
(17,17,o),
(25,0,o),
(46,0,cs)
);
},
{
closed = 1;
nodes = (
(541,390,l),
(554,443,l),
(157,443,l),
(144,390,l)
);
},
{
closed = 1;
nodes = (
(472,0,o),
(481,13,o),
(484,24,cs),
(657,737,ls),
(662,757,o),
(656,772,o),
(633,772,cs),
(612,772,o),
(601,760,o),
(599,748,cs),
(424,33,ls),
(421,19,o),
(423,0,o),
(449,0,cs)
);
}
);
vertWidth = 0;
width = 674;
},
{
layerId = "6449507E-FEE0-4D4A-A81F-7CAB6A5803D5";
shapes = (
{
closed = 1;
nodes = (
(158,0,o),
(169,30,o),
(173,51,cs),
(333,696,ls),
(343,748,o),
(318,772,o),
(280,772,cs),
(241,772,o),
(225,754,o),
(215,720,cs),
(55,72,ls),
(44,33,o),
(64,0,o),
(109,0,cs)
);
},
{
closed = 1;
nodes = (
(587,356,l),
(615,470,l),
(184,470,l),
(157,356,l)
);
},
{
closed = 1;
nodes = (
(522,0,o),
(537,27,o),
(542,48,cs),
(700,700,ls),
(710,745,o),
(691,772,o),
(646,772,cs),
(604,772,o),
(588,746,o),
(583,725,cs),
(423,71,ls),
(416,40,o),
(422,0,o),
(478,0,cs)
);
}
);
vertWidth = 0;
width = 672;
}
);
unicode = 72;
},
{
color = 6;
glyphname = I;
layers = (
{
layerId = m01;
shapes = (
{
closed = 1;
nodes = (
(185,29,l),
(364,744,l),
(303,744,l),
(124,29,l)
);
},
{
closed = 1;
nodes = (
(482,719,ls),
(506,719,o),
(513,731,o),
(513,745,cs),
(513,759,o),
(506,772,o),
(482,772,cs),
(182,772,ls),
(158,772,o),
(151,759,o),
(151,745,cs),
(151,731,o),
(158,719,o),
(182,719,cs)
);
},
{
closed = 1;
nodes = (
(305,0,ls),
(329,0,o),
(336,13,o),
(336,27,cs),
(336,42,o),
(329,53,o),
(305,53,cs),
(5,53,ls),
(-19,53,o),
(-26,42,o),
(-26,27,cs),
(-26,13,o),
(-19,0,o),
(5,0,cs)
);
}
);
vertWidth = 0;
width = 473;
},
{
layerId = "6449507E-FEE0-4D4A-A81F-7CAB6A5803D5";
shapes = (
{
closed = 1;
nodes = (
(283,26,l),
(461,744,l),
(339,746,l),
(158,26,l)
);
},
{
closed = 1;
nodes = (
(529,658,ls),
(580,658,o),
(589,687,o),
(589,714,cs),
(589,743,o),
(579,772,o),
(529,772,cs),
(253,772,ls),
(203,772,o),
(192,743,o),
(192,714,cs),
(192,687,o),
(202,658,o),
(253,658,cs)
);
},
{
closed = 1;
nodes = (
(367,0,ls),
(417,0,o),
(428,30,o),
(428,58,cs),
(428,86,o),
(418,114,o),
(367,114,cs),
(91,114,ls),
(40,114,o),
(31,86,o),
(31,58,cs),
(31,30,o),
(42,0,o),
(91,0,cs)
);
}
);
vertWidth = 0;
width = 523;
}
);
unicode = 73;
},
{
color = 6;
glyphname = J;
kernRight = H_right;
layers = (
{
layerId = m01;
shapes = (
{
closed = 1;
nodes = (
(259,0,o),
(334,77,o),
(371,228,cs),
(497,734,ls),
(501,754,o),
(499,771,o),
(475,772,cs),
(451,773,o),
(442,762,o),
(437,743,cs),
(310,232,ls),
(279,114,o),
(226,55,o),
(160,55,cs),
(95,55,o),
(71,103,o),
(71,178,cs),
(71,211,o),
(64,228,o),
(44,228,cs),
(26,228,o),
(12,213,o),
(12,178,cs),
(11,68,o),
(63,0,o),
(157,0,cs)
);
}
);
vertWidth = 0;
width = 510;
},
{
layerId = "6449507E-FEE0-4D4A-A81F-7CAB6A5803D5";
shapes = (
{
closed = 1;
nodes = (
(324,0,o),
(407,74,o),
(446,234,cs),
(562,697,ls),
(573,744,o),
(557,770,o),
(512,772,cs),
(470,775,o),
(453,754,o),
(443,720,cs),
(327,253,ls),
(305,170,o),
(272,115,o),
(222,115,cs),
(179,115,o),
(173,154,o),
(173,196,cs),
(173,266,o),
(147,274,o),
(115,274,cs),
(88,274,o),
(53,263,o),
(53,196,cs),
(53,70,o),
(115,0,o),
(219,0,cs)
);
}
);
vertWidth = 0;
width = 531;
}
);
unicode = 74;
},
{
color = 6;
glyphname = K;
kernLeft = H_left;
layers = (
{
layerId = m01;
shapes = (
{
closed = 1;
nodes = (
(617,715,ls),
(631,726,o),
(639,737,o),
(639,750,cs),
(639,762,o),
(631,772,o),
(615,772,cs),
(606,773,o),
(593,767,o),
(579,757,cs),
(150,416,l),
(150,402,l),
(219,399,l)
);
},
{
closed = 1;
nodes = (
(498,0,o),
(520,23,o),
(499,50,cs),
(219,409,l),
(150,411,l),
(150,398,l),
(443,23,ls),
(453,11,o),
(463,0,o),
(479,0,cs)
);
},
{
closed = 1;
nodes = (
(69,0,o),
(77,19,o),
(81,34,cs),
(257,733,ls),
(263,754,o),
(258,772,o),
(235,772,cs),
(211,772,o),
(203,759,o),
(198,743,cs),
(21,40,ls),
(17,23,o),
(24,0,o),
(45,0,cs)
);
}
);
vertWidth = 0;
width = 620;
},
{
layerId = "6449507E-FEE0-4D4A-A81F-7CAB6A5803D5";
shapes = (
{
closed = 1;
nodes = (
(652,662,ls),
(672,677,o),
(684,693,o),
(684,720,cs),
(684,746,o),
(665,772,o),
(631,772,cs),
(617,772,o),
(600,769,o),
(577,752,cs),
(171,429,l),
(171,368,l),
(278,365,l)
);
},
{
closed = 1;
nodes = (
(544,0,o),
(593,42,o),
(549,99,cs),
(284,438,l),
(171,443,l),
(171,386,l),
(447,33,ls),
(463,13,o),
(481,0,o),
(505,0,cs)
);
},
{
closed = 1;
nodes = (
(149,0,o),
(166,29,o),
(172,57,cs),
(334,696,ls),
(348,746,o),
(326,772,o),
(283,772,cs),
(241,772,o),
(226,751,o),
(217,721,cs),
(55,77,ls),
(44,38,o),
(68,0,o),
(108,0,cs)
);
}
);
vertWidth = 0;
width = 613;
}
);
unicode = 75;
},
{
color = 6;
glyphname = L;
kernLeft = H_left;
layers = (
{
layerId = m01;
shapes = (
{
closed = 1;
nodes = (
(72,0,o),
(78,19,o),
(82,31,cs),
(255,731,ls),
(260,752,o),
(261,772,o),
(235,772,c),
(210,772,o),
(202,762,o),
(197,743,cs),
(21,34,ls),
(17,17,o),
(25,0,o),
(46,0,cs)
);
},
{
closed = 1;
nodes = (
(364,0,ls),
(390,0,o),
(406,13,o),
(406,33,cs),
(406,46,o),
(394,53,o),
(375,53,cs),
(70,53,l),
(48,0,l)
);
}
);
vertWidth = 0;
width = 518;
},
{
layerId = "6449507E-FEE0-4D4A-A81F-7CAB6A5803D5";
shapes = (
{
closed = 1;
nodes = (
(153,0,o),
(168,30,o),
(173,51,cs),
(333,694,ls),
(345,747,o),
(329,772,o),
(282,772,cs),
(239,772,o),
(223,753,o),
(215,720,cs),
(55,72,ls),
(44,33,o),
(64,0,o),
(109,0,cs)
);
},
{
closed = 1;
nodes = (
(399,0,ls),
(449,0,o),
(472,30,o),
(472,63,cs),
(472,89,o),
(459,114,o),
(410,114,cs),
(139,114,l),
(110,0,l)
);
}
);
vertWidth = 0;
width = 518;
}
);
unicode = 76;
},
{
color = 6;
glyphname = M;
kernLeft = H_left;
kernRight = H_right;
layers = (
{
guides = (
{
name = " [#uzSYBaR9Es]";
pos = (245,548);
}
);
layerId = m01;
shapes = (
{
closed = 1;
nodes = (
(68,0,o),
(77,14,o),
(81,29,cs),
(242,683,l),
(232,684,l),
(296,21,ls),
(297,7,o),
(307,0,o),
(323,0,cs),
(337,0,o),
(350,7,o),
(359,21,cs),
(772,707,l),
(750,707,l),
(581,36,ls),
(577,23,o),
(582,0,o),
(606,0,cs),
(631,0,o),
(637,13,o),
(640,25,cs),
(811,715,ls),
(820,751,o),
(805,772,o),
(772,772,cs),
(750,772,o),
(733,757,o),
(708,714,cs),
(327,72,l),
(348,68,l),
(289,712,ls),
(285,750,o),
(270,772,o),
(244,772,cs),
(217,772,o),
(197,751,o),
(190,716,cs),
(21,36,ls),
(18,19,o),
(26,0,o),
(46,0,cs)
);
}
);
vertWidth = 0;
width = 830;
},
{
guides = (
{
name = " [#uzSYBaR9Es]";
pos = (305,548);
}
);
layerId = "6449507E-FEE0-4D4A-A81F-7CAB6A5803D5";
shapes = (
{
closed = 1;
nodes = (
(149,0,o),
(166,25,o),
(173,51,cs),
(330,687,l),
(244,696,l),
(305,49,ls),
(308,19,o),
(326,0,o),
(364,0,cs),
(387,0,o),
(410,12,o),
(424,36,cs),
(832,713,l),
(728,713,l),
(568,74,ls),
(560,45,o),
(574,0,o),
(623,0,cs),
(668,0,o),
(678,25,o),
(684,46,cs),
(842,680,ls),
(857,741,o),
(827,772,o),
(775,772,cs),
(746,772,o),
(721,760,o),
(688,703,cs),
(355,144,l),
(416,131,l),
(365,687,ls),
(359,750,o),
(328,772,o),
(290,772,cs),
(254,772,o),
(220,747,o),
(209,695,cs),
(56,74,ls),
(48,36,o),
(70,0,o),
(109,0,cs)
);
}
);
vertWidth = 0;
width = 815;
}
);
unicode = 77;
},
{
color = 6;
glyphname = N;
kernLeft = H_left;
kernRight = H_right;
layers = (
{
layerId = m01;
shapes = (
{
closed = 1;
nodes = (
(71,0,o),
(80,17,o),
(83,31,cs),
(246,695,l),
(227,694,l),
(421,21,ls),
(424,10,o),
(436,0,o),
(453,0,cs),
(472,0,o),
(482,15,o),
(485,27,cs),
(657,735,ls),
(662,757,o),
(658,772,o),
(634,772,cs),
(613,772,o),
(601,760,o),
(598,744,cs),
(438,88,l),
(459,89,l),
(270,748,ls),
(266,759,o),
(255,772,o),
(234,772,cs),
(209,772,o),
(202,762,o),
(197,743,cs),
(21,34,ls),
(17,17,o),
(24,0,o),
(46,0,cs)
);
}
);
vertWidth = 0;
width = 674;
},
{
layerId = "6449507E-FEE0-4D4A-A81F-7CAB6A5803D5";
shapes = (
{
closed = 1;
nodes = (
(152,0,o),
(168,27,o),
(173,53,cs),
(299,561,l),
(279,560,l),
(421,40,ls),
(426,17,o),
(449,0,o),
(480,0,cs),
(517,0,o),
(536,29,o),
(542,51,cs),
(700,697,ls),
(713,748,o),
(695,772,o),
(649,772,cs),
(612,772,o),
(590,752,o),
(583,722,cs),
(461,222,l),
(481,223,l),
(345,729,ls),
(340,747,o),
(318,772,o),
(282,772,cs),
(236,772,o),
(223,753,o),
(215,720,cs),
(55,72,ls),
(44,33,o),
(62,0,o),
(109,0,cs)
);
}
);
vertWidth = 0;
width = 671;
}
);
unicode = 78;
},
{
color = 6;
glyphname = O;
kernLeft = O_left;
kernRight = O_right;
layers = (
{
layerId = m01;
shapes = (
{
closed = 1;
nodes = (
(358,0,o),
(479,160,o),
(535,419,cs),
(581,634,o),
(523,772,o),
(381,772,cs),
(211,772,o),
(86,598,o),
(52,316,cs),
(30,121,o),
(90,0,o),
(213,0,cs)
);
},
{
closed = 1;
nodes = (
(132,55,o),
(95,158,o),
(115,327,cs),
(144,568,o),
(240,718,o),
(374,718,cs),
(473,718,o),
(512,602,o),
(472,416,cs),
(423,192,o),
(326,55,o),
(214,55,cs)
);
}
);
vertWidth = 0;
width = 574;
},
{
layerId = "6449507E-FEE0-4D4A-A81F-7CAB6A5803D5";
shapes = (
{
closed = 1;
nodes = (
(399,0,o),
(526,147,o),
(583,410,cs),
(636,651,o),
(555,772,o),
(411,772,cs),
(245,772,o),
(112,612,o),
(77,326,cs),
(52,108,o),
(132,0,o),
(257,0,cs)
);
},
{
closed = 1;
nodes = (
(194,115,o),
(188,229,o),
(200,328,cs),
(222,518,o),
(292,657,o),
(405,657,cs),
(484,657,o),
(486,530,o),
(462,421,cs),
(423,244,o),
(352,115,o),
(258,115,cs)
);
}
);
vertWidth = 0;
width = 576;
}
);
unicode = 79;
},
{
color = 6;
glyphname = P;
kernLeft = H_left;
layers = (
{
layerId = m01;
shapes = (
{
closed = 1;
nodes = (
(390,394,o),
(576,409,o),
(614,560,cs),
(650,702,o),
(486,772,o),
(234,772,c),
(220,713,l),
(470,713,o),
(579,659,o),
(556,570,cs),
(530,467,o),
(360,453,o),
(157,453,c),
(143,394,l)
);
},
{
closed = 1;
nodes = (
(71,0,o),
(80,20,o),
(82,31,cs),
(255,734,ls),
(260,756,o),
(259,772,o),
(234,772,cs),
(208,772,o),
(202,762,o),
(197,743,cs),
(21,38,ls),
(17,20,o),
(25,0,o),
(46,0,cs)
);
}
);
vertWidth = 0;
width = 618;
},
{
layerId = "6449507E-FEE0-4D4A-A81F-7CAB6A5803D5";
shapes = (
{
closed = 1;
nodes = (
(449,361,o),
(623,388,o),
(661,537,cs),
(696,680,o),
(582,772,o),
(280,772,c),
(252,652,l),
(380,652,o),
(562,636,o),
(544,563,cs),
(522,476,o),
(368,480,o),
(228,480,c),
(198,361,l)
);
},
{
closed = 1;
nodes = (
(152,0,o),
(169,34,o),
(173,53,cs),
(331,697,ls),
(343,750,o),
(328,772,o),
(280,772,cs),
(235,772,o),
(223,754,o),
(215,720,cs),
(55,75,ls),
(44,37,o),
(67,0,o),
(108,0,cs)
);
}
);
vertWidth = 0;
width = 621;
}
);
unicode = 80;
},
{
color = 6;
glyphname = Q;
kernLeft = O_left;
kernRight = O_right;
layers = (
{
layerId = m01;
shapes = (
{
closed = 1;
nodes = (
(358,0,o),
(479,160,o),
(535,419,cs),
(581,634,o),
(523,772,o),
(381,772,cs),
(211,772,o),
(86,598,o),
(52,316,cs),
(30,121,o),
(90,0,o),
(213,0,cs)
);
},
{
closed = 1;
nodes = (
(132,55,o),
(95,158,o),
(115,327,cs),
(144,568,o),
(240,718,o),
(374,718,cs),
(473,718,o),
(512,602,o),
(472,416,cs),
(423,192,o),
(326,55,o),
(214,55,cs)
);
},
{
closed = 1;
nodes = (
(455,-31,o),
(459,-14,o),
(447,4,cs),
(324,197,ls),
(311,217,o),
(295,222,o),
(279,211,cs),
(265,201,o),
(264,183,o),
(276,164,cs),
(398,-26,ls),
(409,-43,o),
(424,-48,o),
(438,-40,cs)
);
}
);
vertWidth = 0;
width = 574;
},
{
layerId = "6449507E-FEE0-4D4A-A81F-7CAB6A5803D5";
shapes = (
{
closed = 1;
nodes = (
(399,0,o),
(526,147,o),
(583,410,cs),
(636,651,o),
(555,772,o),
(411,772,cs),
(245,772,o),
(112,612,o),
(77,326,cs),
(52,108,o),
(132,0,o),
(257,0,cs)
);
},
{
closed = 1;
nodes = (
(194,115,o),
(188,229,o),
(200,328,cs),
(222,518,o),
(292,657,o),
(405,657,cs),
(484,657,o),
(486,530,o),
(462,421,cs),
(423,244,o),
(352,115,o),
(258,115,cs)
);
},
{
closed = 1;
nodes = (
(495,-21,o),
(505,20,o),
(486,52,cs),
(374,228,ls),
(353,261,o),
(320,272,o),
(286,249,cs),
(255,229,o),
(253,196,o),
(274,163,cs),
(383,-6,ls),
(406,-43,o),
(441,-51,o),
(467,-37,cs)
);
}
);
vertWidth = 0;
width = 576;
}
);
unicode = 81;
},
{
color = 6;
glyphname = R;
kernLeft = H_left;
layers = (
{
layerId = m01;
shapes = (
{
closed = 1;
nodes = (
(372,390,o),
(579,400,o),
(621,571,cs),
(657,713,o),
(493,772,o),
(233,772,c),
(235,718,l),
(455,718,o),
(587,680,o),
(563,583,cs),
(531,455,o),
(349,444,o),
(152,444,c),
(139,390,l)
);
},
{
closed = 1;
nodes = (
(484,0,o),
(495,31,o),
(481,50,cs),
(210,405,l),
(135,405,l),
(428,23,ls),
(440,7,o),
(448,0,o),
(457,0,cs)
);
},
{
closed = 1;
nodes = (
(71,0,o),
(78,17,o),
(82,33,cs),
(255,734,ls),
(260,756,o),
(259,772,o),
(234,772,cs),
(208,772,o),
(202,762,o),
(197,743,cs),
(23,40,ls),
(18,20,o),
(24,0,o),
(45,0,cs)
);
}
);
vertWidth = 0;
width = 623;
},
{
layerId = "6449507E-FEE0-4D4A-A81F-7CAB6A5803D5";
shapes = (
{
closed = 1;
nodes = (
(431,356,o),
(625,380,o),
(666,548,cs),
(702,689,o),
(600,772,o),
(282,772,c),
(282,657,l),
(487,657,o),
(565,633,o),
(550,575,cs),
(523,467,o),
(361,472,o),
(211,472,c),
(188,356,l)
);
},
{
closed = 1;
nodes = (
(536,0,o),
(562,59,o),
(533,97,cs),
(305,397,l),
(164,384,l),
(432,33,ls),
(454,5,o),
(469,0,o),
(485,0,cs)
);
},
{
closed = 1;
nodes = (
(152,0,o),
(168,26,o),
(173,56,cs),
(333,697,ls),
(343,747,o),
(330,772,o),
(283,772,cs),
(238,772,o),
(225,756,o),
(215,720,cs),
(56,77,ls),
(44,30,o),
(69,0,o),
(108,0,cs)
);
}
);
vertWidth = 0;
width = 627;
}
);
unicode = 82;
},
{
color = 6;
glyphname = S;
layers = (
{
layerId = m01;
shapes = (
{
closed = 1;
nodes = (
(320,0,o),
(406,75,o),
(437,195,cs),
(469,330,o),
(423,402,o),
(278,440,cs),
(192,462,o),
(157,504,o),
(172,562,cs),
(194,649,o),
(285,718,o),
(367,718,cs),
(417,718,o),
(449,681,o),
(474,605,cs),
(479,589,o),
(495,584,o),
(510,587,cs),
(529,590,o),
(536,608,o),
(532,620,cs),
(504,721,o),
(454,772,o),
(373,772,cs),
(260,772,o),
(141,688,o),
(114,575,cs),
(91,479,o),
(143,413,o),
(267,380,cs),
(368,353,o),
(400,302,o),
(378,204,cs),
(356,112,o),
(293,55,o),
(213,55,cs),
(135,55,o),
(83,110,o),
(74,200,cs),
(72,216,o),
(61,223,o),
(42,222,cs),
(23,221,o),
(13,211,o),
(14,194,cs),
(27,74,o),
(102,0,o),
(209,0,cs)
);
}
);
vertWidth = 0;
width = 531;
},
{
layerId = "6449507E-FEE0-4D4A-A81F-7CAB6A5803D5";
shapes = (
{
closed = 1;
nodes = (
(383,0,o),
(479,76,o),
(507,203,cs),
(539,348,o),
(494,425,o),
(339,467,cs),
(284,480,o),
(255,505,o),
(265,538,cs),
(280,605,o),
(349,657,o),
(411,657,cs),
(447,657,o),
(463,624,o),
(479,576,cs),
(487,546,o),
(518,532,o),
(548,538,cs),
(589,545,o),
(601,586,o),
(594,609,cs),
(562,721,o),
(504,772,o),
(417,772,cs),
(299,772,o),
(177,684,o),
(149,567,cs),
(124,462,o),
(171,386,o),
(311,349,cs),
(381,330,o),
(405,296,o),
(390,227,cs),
(374,160,o),
(330,115,o),
(270,115,cs),
(215,115,o),
(182,158,o),
(176,219,cs),
(173,251,o),
(153,271,o),
(112,268,cs),
(71,266,o),
(53,244,o),
(56,208,cs),
(70,76,o),
(153,0,o),
(267,0,cs)
);
}
);
vertWidth = 0;
width = 551;
}
);
unicode = 83;
},
{
color = 6;
glyphname = T;
layers = (
{
layerId = m01;
shapes = (
{
closed = 1;
nodes = (
(209,0,o),
(219,15,o),
(221,27,cs),
(400,744,l),
(339,744,l),
(162,37,ls),
(158,20,o),
(166,0,o),
(188,0,cs)
);
},
{
closed = 1;
nodes = (
(579,719,ls),
(602,719,o),
(609,731,o),
(609,745,cs),
(609,759,o),
(602,772,o),
(579,772,cs),
(158,772,ls),
(134,772,o),
(127,759,o),
(127,745,cs),
(127,731,o),
(134,719,o),
(158,719,cs)
);
}
);
vertWidth = 0;
width = 544;
},
{
layerId = "6449507E-FEE0-4D4A-A81F-7CAB6A5803D5";
shapes = (
{
closed = 1;
nodes = (
(285,0,o),
(301,29,o),
(307,51,cs),
(473,714,l),
(349,714,l),
(189,75,ls),
(179,38,o),
(203,0,o),
(245,0,cs)
);
},
{
closed = 1;
nodes = (
(602,658,ls),
(653,658,o),
(663,687,o),
(663,714,cs),
(663,743,o),
(652,772,o),
(602,772,cs),
(217,772,ls),
(168,772,o),
(157,743,o),
(157,714,cs),
(157,687,o),
(166,658,o),
(217,658,cs)
);
}
);
vertWidth = 0;
width = 570;
}
);
unicode = 84;
},
{
color = 6;
glyphname = U;
kernLeft = H_left;
kernRight = H_right;
layers = (
{
layerId = m01;
shapes = (
{
closed = 1;
nodes = (
(328,0,o),
(466,156,o),
(517,365,c),
(551,516,l),
(536,517,l),
(465,252,o),
(324,53,o),
(208,53,cs),
(132,53,o),
(107,137,o),
(141,272,cs),
(258,737,ls),
(263,753,o),
(253,772,o),
(235,772,cs),
(216,772,o),
(202,758,o),
(197,739,cs),
(82,279,ls),
(38,107,o),
(82,0,o),
(195,0,cs)
);
},
{
closed = 1;
nodes = (
(454,-1,o),
(469,7,o),
(474,25,cs),
(653,739,ls),
(658,757,o),
(650,772,o),
(627,772,cs),
(606,772,o),
(596,759,o),
(593,745,cs),
(415,34,ls),
(410,13,o),
(423,1,o),
(440,0,cs)
);
}
);
vertWidth = 0;
width = 665;
},
{
layerId = "6449507E-FEE0-4D4A-A81F-7CAB6A5803D5";
shapes = (
{
closed = 1;
nodes = (
(375,0,o),
(462,146,o),
(510,359,cs),
(550,538,l),
(532,541,l),
(470,297,o),
(356,114,o),
(257,114,cs),
(200,114,o),
(211,214,o),
(227,273,cs),
(334,699,ls),
(343,733,o),
(322,772,o),
(285,772,cs),
(252,772,o),
(223,752,o),
(215,718,cs),
(109,296,ls),
(57,90,o),
(126,0,o),
(245,0,cs)
);
},
{
closed = 1;
nodes = (
(493,0,o),
(523,13,o),
(531,48,cs),
(696,701,ls),
(706,737,o),
(693,772,o),
(644,772,cs),
(602,772,o),
(583,750,o),
(577,722,cs),
(413,72,ls),
(404,26,o),
(432,0,o),
(466,0,cs)
);
}
);
vertWidth = 0;
width = 664;
}
);
unicode = 85;
},
{
color = 6;
glyphname = V;
kernLeft = V_left;
kernRight = V_right;
layers = (
{
layerId = m01;
shapes = (
{
closed = 1;
nodes = (
(221,0,o),
(228,13,o),
(236,30,cs),
(584,734,ls),
(596,758,o),
(582,772,o),
(564,772,cs),
(542,772,o),
(532,763,o),
(523,743,cs),
(208,100,l),
(221,96,l),
(188,744,ls),
(187,756,o),
(182,772,o),
(156,772,c),
(134,772,o),
(127,759,o),
(128,741,cs),
(168,30,ls),
(169,18,o),
(176,0,o),
(198,0,cs)
);
}
);
vertWidth = 0;
width = 545;
},
{
layerId = "6449507E-FEE0-4D4A-A81F-7CAB6A5803D5";
shapes = (
{
closed = 1;
nodes = (
(291,0,o),
(305,18,o),
(318,45,cs),
(638,690,ls),
(665,746,o),
(627,772,o),
(589,772,cs),
(554,772,o),
(539,759,o),
(523,726,cs),
(241,152,l),
(308,135,l),
(278,715,ls),
(277,740,o),
(266,772,o),
(216,772,cs),
(172,772,o),
(156,747,o),
(158,709,cs),
(194,57,ls),
(195,33,o),
(211,0,o),
(254,0,cs)
);
}
);
vertWidth = 0;
width = 563;
}
);
unicode = 86;
},
{
color = 6;
glyphname = W;
kernLeft = V_left;
kernRight = V_right;
layers = (
{
layerId = m01;
shapes = (
{
closed = 1;
nodes = (
(189,0,o),
(202,10,o),
(211,30,cs),
(494,656,l),
(488,659,l),
(498,33,ls),
(498,11,o),
(507,0,o),
(527,0,c),
(544,0,o),
(557,10,o),
(567,30,cs),
(891,734,ls),
(901,754,o),
(889,772,o),
(867,772,cs),
(851,772,o),
(838,760,o),
(829,743,cs),
(542,106,l),
(551,102,l),
(542,743,ls),
(542,760,o),
(532,772,o),
(512,772,cs),
(494,772,o),
(481,760,o),
(473,743,cs),
(187,106,l),
(196,102,l),
(187,743,ls),
(187,760,o),
(175,772,o),
(157,772,cs),
(139,772,o),
(127,760,o),
(127,741,cs),
(143,33,ls),
(143,11,o),
(152,0,o),
(172,0,c)
);
}
);
vertWidth = 0;
width = 852;
},
{
layerId = "6449507E-FEE0-4D4A-A81F-7CAB6A5803D5";
shapes = (
{
closed = 1;
nodes = (
(255,0,o),
(279,12,o),
(295,46,cs),
(545,604,l),
(487,605,l),
(494,63,l),
(494,18,o),
(517,0,o),
(555,0,cs),
(581,0,o),
(605,12,o),
(620,46,cs),
(917,691,ls),
(937,734,o),
(911,772,o),
(866,772,cs),
(839,772,o),
(815,757,o),
(801,726,cs),
(551,172,l),
(608,160,l),
(600,713,ls),
(600,748,o),
(581,772,o),
(541,772,cs),
(512,772,o),
(488,756,o),
(475,726,cs),
(221,162,l),
(283,146,l),
(276,713,ls),
(276,748,o),
(251,772,o),
(215,772,cs),
(181,772,o),
(156,750,o),
(156,712,cs),
(170,62,ls),
(171,17,o),
(191,0,o),
(229,0,cs)
);
}
);
vertWidth = 0;
width = 841;
}
);
unicode = 87;
},
{
color = 6;
glyphname = X;
layers = (
{
layerId = m01;
shapes = (
{
closed = 1;
nodes = (
(-29,-4,o),
(-8,-4,o),
(7,14,cs),
(292,353,l),
(305,356,l),
(615,723,ls),
(631,741,o),
(626,758,o),
(615,766,cs),
(604,776,o),
(583,775,o),
(568,757,cs),
(283,419,l),
(270,416,l),
(-43,45,ls),
(-55,31,o),
(-52,15,o),
(-42,7,cs)
);
},
{
closed = 1;
nodes = (
(432,10,o),
(438,24,o),
(432,42,cs),
(189,750,ls),
(181,772,o),
(158,777,o),
(144,771,cs),
(129,766,o),
(126,751,o),
(133,729,cs),
(375,25,ls),
(384,2,o),
(405,-4,o),
(421,4,cs)
);
}
);
vertWidth = 0;
width = 571;
},
{
layerId = "6449507E-FEE0-4D4A-A81F-7CAB6A5803D5";
shapes = (
{
closed = 1;
nodes = (
(62,-6,o),
(100,-10,o),
(128,25,cs),
(374,316,l),
(400,329,l),
(693,674,ls),
(726,713,o),
(708,744,o),
(688,759,cs),
(668,776,o),
(626,781,o),
(598,746,cs),
(345,447,l),
(322,438,l),
(31,95,ls),
(5,64,o),
(17,31,o),
(39,13,cs)
);
},
{
closed = 1;
nodes = (
(519,17,o),
(537,44,o),
(524,81,cs),
(302,729,ls),
(285,772,o),
(242,778,o),
(216,769,cs),
(192,759,o),
(172,739,o),
(189,690,cs),
(410,45,ls),
(426,1,o),
(468,-6,o),
(497,6,cs)
);
}
);
vertWidth = 0;
width = 613;
}
);
unicode = 88;
},
{
color = 6;
glyphname = Y;
layers = (
{
layerId = m01;
shapes = (
{
closed = 1;
nodes = (
(353,367,l),
(189,750,ls),
(179,772,o),
(158,777,o),
(144,771,cs),
(129,766,o),
(124,751,o),
(133,729,cs),
(314,305,l)
);
},
{
closed = 1;
nodes = (
(127,-4,o),
(147,-5,o),
(159,13,cs),
(623,723,ls),
(634,741,o),
(630,758,o),
(619,766,cs),
(606,776,o),
(583,772,o),
(571,754,cs),
(108,45,ls),
(99,31,o),
(101,15,o),
(113,7,cs)
);
}
);
vertWidth = 0;
width = 587;
},
{
layerId = "6449507E-FEE0-4D4A-A81F-7CAB6A5803D5";
shapes = (
{
closed = 1;
nodes = (
(419,400,l),
(277,732,ls),
(259,775,o),
(219,779,o),
(192,769,c),
(169,760,o),
(145,737,o),
(166,687,cs),
(341,277,l)
);
},
{
closed = 1;
nodes = (
(184,-7,o),
(223,-8,o),
(247,26,cs),
(671,677,ls),
(695,713,o),
(681,744,o),
(661,760,cs),
(636,778,o),
(593,776,o),
(569,741,cs),
(145,91,ls),
(125,61,o),
(135,31,o),
(158,13,cs)
);
}
);
vertWidth = 0;
width = 602;
}
);
unicode = 89;
},
{
color = 6;
glyphname = Z;
layers = (
{
layerId = m01;
shapes = (
{
closed = 1;
nodes = (
(451,0,ls),
(475,0,o),
(482,13,o),
(482,27,cs),
(482,42,o),
(475,55,o),
(451,55,cs),
(27,55,l),
(40,27,l),
(615,723,ls),
(630,741,o),
(626,758,o),
(618,765,cs),
(612,770,o),
(606,772,o),
(595,772,cs),
(182,772,ls),
(158,772,o),
(151,759,o),
(151,745,cs),
(151,731,o),
(158,718,o),
(182,718,cs),
(570,718,l),
(557,745,l),
(-21,45,ls),
(-30,34,o),
(-31,19,o),
(-24,10,cs),
(-20,5,o),
(-8,0,o),
(5,0,cs)
);
}
);
vertWidth = 0;
width = 619;
},
{
layerId = "6449507E-FEE0-4D4A-A81F-7CAB6A5803D5";
shapes = (
{
closed = 1;
nodes = (
(488,0,ls),
(538,0,o),
(549,30,o),
(549,58,cs),
(549,86,o),
(538,115,o),
(488,115,cs),
(132,115,l),
(157,62,l),
(663,674,ls),
(696,714,o),
(677,744,o),
(662,758,cs),
(650,769,o),
(639,772,o),
(620,772,cs),
(241,772,ls),
(191,772,o),
(181,743,o),
(181,714,cs),
(181,687,o),
(191,657,o),
(241,657,cs),
(564,657,l),
(539,710,l),
(30,95,ls),
(11,72,o),
(13,40,o),
(26,21,cs),
(33,13,o),
(53,0,o),
(78,0,cs)
);
}
);
vertWidth = 0;
width = 632;
}
);
unicode = 90;
},
{
color = 6;
glyphname = a;
kernLeft = o_left;
kernRight = n_right;
layers = (
{
layerId = m01;
shapes = (
{
closed = 1;
nodes = (
(184,0,o),
(246,103,o),
(295,271,cs),
(318,353,o),
(293,421,o),
(219,421,cs),
(124,421,o),
(44,328,o),
(11,185,cs),
(-12,90,o),
(10,0,o),
(100,0,cs)
);
},
{
closed = 1;
nodes = (
(64,53,o),
(51,103,o),
(75,201,cs),
(96,293,o),
(154,367,o),
(209,367,cs),
(264,367,o),
(284,334,o),
(270,278,cs),
(239,150,o),
(171,53,o),
(112,53,cs)
);
},
{
closed = 1;
nodes = (
(261,0,o),
(265,17,o),
(271,38,cs),
(358,383,ls),
(362,402,o),
(358,416,o),
(337,416,cs),
(315,416,o),
(303,407,o),
(297,386,cs),
(210,42,ls),
(206,21,o),
(206,0,o),
(232,0,cs)
);
}
);
vertWidth = 0;
width = 393;
},
{
layerId = "6449507E-FEE0-4D4A-A81F-7CAB6A5803D5";
shapes = (
{
closed = 1;
nodes = (
(225,0,o),
(261,89,o),
(295,214,cs),
(329,342,o),
(334,426,o),
(252,426,cs),
(160,426,o),
(75,347,o),
(43,219,cs),
(10,83,o),
(51,0,o),
(146,0,cs)
);
},
{
closed = 1;
nodes = (
(146,107,o),
(139,140,o),
(153,195,cs),
(172,272,o),
(209,320,o),
(249,320,cs),
(273,320,o),
(280,289,o),
(267,238,cs),
(247,157,o),
(210,107,o),
(171,107,cs)
);
},
{
closed = 1;
nodes = (
(318,0,o),
(328,20,o),
(336,55,cs),
(412,360,ls),
(423,404,o),
(406,426,o),
(367,426,cs),
(330,426,o),
(311,412,o),
(303,379,cs),
(227,74,ls),
(215,27,o),
(230,0,o),
(274,0,cs)
);
}
);
vertWidth = 0;
width = 419;
}
);
unicode = 97;
},
{
color = 6;
glyphname = b;
kernLeft = h_left;
kernRight = o_right;
layers = (
{
layerId = m01;
shapes = (
{
closed = 1;
nodes = (
(50,0,o),
(55,17,o),
(59,38,cs),
(235,739,ls),
(240,758,o),
(235,772,o),
(215,772,cs),
(192,772,o),
(181,764,o),
(175,743,cs),
(-1,42,ls),
(-6,21,o),
(-6,0,o),
(20,0,cs)
);
},
{
closed = 1;
nodes = (
(222,0,o),
(302,88,o),
(334,216,cs),
(365,340,o),
(326,421,o),
(246,421,cs),
(166,421,o),
(96,339,o),
(63,204,cs),
(31,78,o),
(56,0,o),
(127,0,cs)
);
},
{
closed = 1;
nodes = (
(93,53,o),
(76,101,o),
(99,194,cs),
(124,295,o),
(176,367,o),
(233,367,cs),
(280,367,o),
(297,320,o),
(274,227,cs),
(249,126,o),
(197,53,o),
(140,53,cs)
);
}
);
vertWidth = 0;
width = 399;
},
{
layerId = "6449507E-FEE0-4D4A-A81F-7CAB6A5803D5";
shapes = (
{
closed = 1;
nodes = (
(129,0,o),
(132,24,o),
(141,61,cs),
(302,701,ls),
(314,748,o),
(302,772,o),
(260,772,cs),
(222,772,o),
(202,757,o),
(192,721,cs),
(31,78,ls),
(19,30,o),
(34,0,o),
(82,0,cs)
);
},
{
closed = 1;
nodes = (
(282,0,o),
(367,82,o),
(400,214,cs),
(432,346,o),
(391,426,o),
(312,426,cs),
(209,426,o),
(179,346,o),
(149,219,cs),
(113,75,o),
(112,0,o),
(204,0,cs)
);
},
{
closed = 1;
nodes = (
(169,107,o),
(162,140,o),
(176,195,cs),
(195,272,o),
(232,320,o),
(272,320,cs),
(296,320,o),
(303,289,o),
(290,238,cs),
(270,157,o),
(233,107,o),
(194,107,cs)
);
}
);
vertWidth = 0;
width = 430;
}
);
unicode = 98;
},
{
color = 6;
glyphname = c;
kernLeft = o_left;
layers = (
{
layerId = m01;
shapes = (
{
closed = 1;
nodes = (
(188,0,o),
(257,58,o),
(286,133,cs),
(295,153,o),
(282,168,o),
(270,172,cs),
(259,177,o),
(239,172,o),
(232,156,cs),
(207,97,o),
(156,53,o),
(118,53,cs),
(67,53,o),
(52,105,o),
(78,206,cs),
(101,298,o),
(157,367,o),
(209,367,cs),
(239,367,o),
(252,343,o),
(252,315,cs),
(252,299,o),
(272,296,o),
(289,302,cs),
(303,307,o),
(309,322,o),
(307,337,cs),
(298,385,o),
(274,421,o),
(222,421,cs),
(121,421,o),
(48,333,o),
(12,190,cs),
(-15,81,o),
(25,0,o),
(107,0,cs)
);
}
);
vertWidth = 0;
width = 354;
},
{
layerId = "6449507E-FEE0-4D4A-A81F-7CAB6A5803D5";
shapes = (
{
closed = 1;
nodes = (
(229,0,o),
(297,51,o),
(330,133,cs),
(342,162,o),
(329,192,o),
(299,206,cs),
(271,217,o),
(240,206,o),
(227,176,cs),
(210,137,o),
(184,107,o),
(166,107,cs),
(144,107,o),
(140,141,o),
(154,198,cs),
(165,241,o),
(202,318,o),
(239,318,cs),
(246,318,o),
(249,314,o),
(249,304,cs),
(249,276,o),
(277,249,o),
(321,266,cs),
(346,274,o),
(361,299,o),
(356,329,cs),
(347,387,o),
(312,426,o),
(252,426,cs),
(150,426,o),
(72,336,o),
(38,201,cs),
(10,86,o),
(59,0,o),
(154,0,cs)
);
}
);
vertWidth = 0;
width = 358;
}
);
unicode = 99;
},
{
color = 6;
glyphname = d;
kernLeft = o_left;
layers = (
{
layerId = m01;
shapes = (
{
closed = 1;
nodes = (
(327,0,o),
(367,31,o),
(415,91,cs),
(438,122,o),
(443,129,o),
(443,143,cs),
(443,159,o),
(434,170,o),
(419,170,cs),
(404,170,o),
(396,159,o),
(374,131,cs),
(337,80,o),
(312,53,o),
(299,53,cs),
(280,53,o),
(279,94,o),
(295,158,cs),
(441,739,ls),
(446,758,o),
(441,772,o),
(421,772,cs),
(398,772,o),
(386,764,o),
(380,743,cs),
(236,171,ls),
(210,65,o),
(233,0,o),
(293,0,cs)
);
},
{
closed = 1;
nodes = (
(183,0,o),
(253,82,o),
(286,216,cs),
(318,342,o),
(293,421,o),
(222,421,cs),
(127,421,o),
(48,333,o),
(15,204,cs),
(-15,81,o),
(24,0,o),
(103,0,cs)
);
},
{
closed = 1;
nodes = (
(69,53,o),
(52,101,o),
(75,194,cs),
(100,295,o),
(152,367,o),
(209,367,cs),
(257,367,o),
(273,320,o),
(251,227,cs),
(226,126,o),
(173,53,o),
(116,53,cs)
);
}
);
vertWidth = 0;
width = 492;
},
{
layerId = "6449507E-FEE0-4D4A-A81F-7CAB6A5803D5";
shapes = (
{
closed = 1;
nodes = (
(375,0,o),
(430,34,o),
(482,102,cs),
(503,129,o),
(508,150,o),
(508,170,cs),
(508,195,o),
(492,215,o),
(467,215,cs),
(441,215,o),
(424,198,o),
(409,168,cs),
(393,137,o),
(366,103,o),
(359,103,cs),
(349,103,o),
(355,137,o),
(360,154,cs),
(498,708,ls),
(508,751,o),
(491,772,o),
(453,772,cs),
(417,772,o),
(398,759,o),
(390,726,cs),
(253,179,ls),
(217,38,o),
(267,0,o),
(329,0,cs)
);
},
{
closed = 1;
nodes = (
(225,0,o),
(261,89,o),
(295,214,cs),
(329,342,o),
(334,426,o),
(252,426,cs),
(160,426,o),
(75,347,o),
(43,219,cs),
(10,83,o),
(51,0,o),
(146,0,cs)
);
},
{
closed = 1;
nodes = (
(146,107,o),
(139,140,o),
(153,195,cs),
(172,272,o),
(209,320,o),
(249,320,cs),
(273,320,o),
(280,289,o),
(267,238,cs),
(247,157,o),
(210,107,o),
(171,107,cs)
);
}
);
vertWidth = 0;
width = 541;
}
);
unicode = 100;
},
{
color = 6;
glyphname = e;
kernLeft = o_left;
layers = (
{
layerId = m01;
shapes = (
{
closed = 1;
nodes = (
(181,0,o),
(258,50,o),
(345,150,cs),
(356,164,o),
(355,182,o),
(343,191,cs),
(329,202,o),
(310,201,o),
(299,188,cs),
(220,99,o),
(162,53,o),
(116,53,cs),
(69,53,o),
(52,101,o),
(75,194,cs),
(100,295,o),
(152,367,o),
(209,367,cs),
(232,367,o),
(248,356,o),
(248,341,cs),
(248,291,o),
(160,230,o),
(43,197,c),
(31,132,l),
(189,181,o),
(308,271,o),
(308,345,cs),
(308,388,o),
(271,421,o),
(222,421,cs),
(127,421,o),
(48,333,o),
(15,204,cs),
(-15,81,o),
(24,0,o),
(103,0,cs)
);
}
);
vertWidth = 0;
width = 412;
},
{
layerId = "6449507E-FEE0-4D4A-A81F-7CAB6A5803D5";
shapes = (
{
closed = 1;
nodes = (
(226,0,o),
(304,43,o),
(377,127,cs),
(400,156,o),
(393,189,o),
(372,206,cs),
(345,226,o),
(310,221,o),
(291,198,cs),
(239,138,o),
(195,107,o),
(165,107,cs),
(141,107,o),
(139,141,o),
(152,189,cs),
(168,253,o),
(196,320,o),
(233,320,cs),
(238,320,o),
(240,317,o),
(240,312,cs),
(240,278,o),
(164,230,o),
(107,217,c),
(94,134,l),
(251,181,o),
(352,266,o),
(352,336,cs),
(352,384,o),
(309,426,o),
(248,426,cs),
(156,426,o),
(74,341,o),
(42,213,cs),
(5,65,o),
(65,0,o),
(146,0,cs)
);
}
);
vertWidth = 0;
width = 411;
}
);
unicode = 101;
},
{
color = 6;
glyphname = f;
layers = (
{
layerId = m01;
shapes = (
{
closed = 1;
nodes = (
(234,362,ls),
(258,362,o),
(265,375,o),
(265,390,cs),
(265,404,o),
(258,416,o),
(234,416,cs),
(46,416,ls),
(23,416,o),
(15,404,o),
(15,390,cs),
(15,375,o),
(23,362,o),
(46,362,cs)
);
},
{
closed = 1;
nodes = (
(49,0,o),
(56,15,o),
(62,38,cs),
(204,611,ls),
(222,682,o),
(244,718,o),
(268,718,cs),
(283,718,o),
(296,700,o),
(309,665,cs),
(316,646,o),
(331,640,o),
(348,647,cs),
(365,655,o),
(371,669,o),
(365,687,cs),
(345,743,o),
(314,772,o),
(273,772,cs),
(214,772,o),
(171,722,o),
(146,623,cs),
(2,45,ls),
(-2,26,o),
(-5,0,o),
(23,0,cs)
);
}
);
vertWidth = 0;
width = 259;
},
{
layerId = "6449507E-FEE0-4D4A-A81F-7CAB6A5803D5";
shapes = (
{
closed = 1;
nodes = (
(316,310,ls),
(367,310,o),
(378,340,o),
(378,368,cs),
(378,396,o),
(368,424,o),
(316,424,cs),
(109,424,ls),
(57,424,o),
(48,396,o),
(48,368,cs),
(48,340,o),
(59,310,o),
(109,310,cs)
);
},
{
closed = 1;
nodes = (
(146,0,o),
(163,20,o),
(172,59,cs),
(303,583,ls),
(310,614,o),
(316,646,o),
(323,646,cs),
(330,646,o),
(334,636,o),
(336,630,cs),
(350,592,o),
(383,581,o),
(416,595,cs),
(448,609,o),
(461,637,o),
(449,671,cs),
(424,743,o),
(383,772,o),
(335,772,cs),
(270,772,o),
(215,727,o),
(187,611,cs),
(55,82,ls),
(43,34,o),
(58,0,o),
(105,0,cs)
);
}
);
vertWidth = 0;
width = 342;
}
);
unicode = 102;
},
{
color = 6;
glyphname = g;
kernLeft = o_left;
layers = (
{
layerId = m01;
shapes = (
{
closed = 1;
nodes = (
(183,0,o),
(253,82,o),
(286,216,cs),
(318,342,o),
(293,421,o),
(222,421,cs),
(127,421,o),
(48,333,o),
(15,204,cs),
(-15,81,o),
(24,0,o),
(103,0,cs)
);
},
{
closed = 1;
nodes = (
(69,53,o),
(52,101,o),
(75,194,cs),
(100,295,o),
(152,367,o),
(209,367,cs),
(257,367,o),
(273,320,o),
(251,227,cs),
(226,126,o),
(173,53,o),
(116,53,cs)
);
},
{
closed = 1;
nodes = (
(134,-356,o),
(178,-314,o),
(200,-229,cs),
(354,390,ls),
(358,404,o),
(345,415,o),
(328,416,cs),
(311,416,o),
(296,405,o),
(293,393,cs),
(139,-225,ls),
(126,-277,o),
(105,-303,o),
(74,-303,cs),
(44,-303,o),
(14,-280,o),
(-12,-236,cs),
(-17,-228,o),
(-27,-223,o),
(-42,-226,cs),
(-57,-228,o),
(-76,-245,o),
(-65,-264,cs),
(-32,-326,o),
(13,-356,o),
(69,-356,cs)
);
}
);
vertWidth = 0;
width = 387;
},
{
layerId = "6449507E-FEE0-4D4A-A81F-7CAB6A5803D5";
shapes = (
{
closed = 1;
nodes = (
(225,0,o),
(261,89,o),
(295,214,cs),
(329,342,o),
(334,426,o),
(252,426,cs),
(160,426,o),
(75,347,o),
(43,219,cs),
(10,83,o),
(51,0,o),
(146,0,cs)
);
},
{
closed = 1;
nodes = (
(146,107,o),
(139,140,o),
(153,195,cs),
(172,272,o),
(209,320,o),
(249,320,cs),
(273,320,o),
(280,289,o),
(267,238,cs),
(247,157,o),
(210,107,o),
(171,107,cs)
);
},
{
closed = 1;
nodes = (
(201,-356,o),
(246,-312,o),
(270,-215,cs),
(412,362,ls),
(419,392,o),
(412,426,o),
(368,426,cs),
(323,426,o),
(309,404,o),
(303,380,cs),
(160,-195,ls),
(154,-220,o),
(146,-242,o),
(128,-242,cs),
(113,-242,o),
(97,-223,o),
(82,-197,cs),
(72,-181,o),
(52,-168,o),
(21,-172,cs),
(-15,-178,o),
(-45,-217,o),
(-24,-255,cs),
(13,-324,o),
(65,-356,o),
(127,-356,cs)
);
}
);
vertWidth = 0;
width = 417;
}
);
unicode = 103;
},
{
color = 6;
glyphname = h;
kernLeft = h_left;
kernRight = n_right;
layers = (
{
layerId = m01;
shapes = (
{
closed = 1;
nodes = (
(314,-1,o),
(317,15,o),
(323,37,cs),
(368,217,ls),
(404,358,o),
(387,421,o),
(311,421,cs),
(249,421,o),
(163,345,o),
(107,248,c),
(78,114,l),
(101,200,o),
(244,366,o),
(297,366,cs),
(329,366,o),
(333,321,o),
(309,223,cs),
(263,40,ls),
(258,20,o),
(258,-1,o),
(284,-1,cs)
);
},
{
closed = 1;
nodes = (
(50,0,o),
(53,17,o),
(59,38,cs),
(235,739,ls),
(240,758,o),
(235,771,o),
(215,772,cs),
(192,773,o),
(181,764,o),
(175,743,cs),
(-1,42,ls),
(-6,21,o),
(-6,0,o),
(20,0,cs)
);
}
);
vertWidth = 0;
width = 444;
},
{
layerId = "6449507E-FEE0-4D4A-A81F-7CAB6A5803D5";
shapes = (
{
closed = 1;
nodes = (
(343,0,o),
(353,21,o),
(361,55,cs),
(402,219,ls),
(449,410,o),
(402,426,o),
(350,426,cs),
(285,426,o),
(198,352,o),
(144,258,c),
(145,76,l),
(181,194,o),
(258,316,o),
(292,316,cs),
(312,316,o),
(301,260,o),
(296,239,cs),
(255,72,ls),
(245,30,o),
(255,0,o),
(302,0,cs)
);
},
{
closed = 1;
nodes = (
(120,0,o),
(132,21,o),
(140,55,cs),
(303,703,ls),
(314,747,o),
(298,772,o),
(260,772,cs),
(222,772,o),
(202,760,o),
(192,721,cs),
(31,76,ls),
(19,30,o),
(34,0,o),
(77,0,cs)
);
}
);
vertWidth = 0;
width = 443;
}
);
unicode = 104;
},
{
color = 6;
glyphname = i;
layers = (
{
layerId = m01;
shapes = (
{
closed = 1;
nodes = (
(50,0,o),
(53,17,o),
(59,38,cs),
(146,383,ls),
(151,402,o),
(146,416,o),
(126,416,cs),
(103,416,o),
(91,407,o),
(86,386,cs),
(-1,42,ls),
(-6,21,o),
(-6,0,o),
(20,0,cs)
);
},
{
closed = 1;
nodes = (
(179,520,o),
(196,538,o),
(196,556,cs),
(196,576,o),
(177,590,o),
(159,590,cs),
(138,590,o),
(124,573,o),
(124,556,cs),
(124,538,o),
(139,520,o),
(159,520,cs)
);
}
);
vertWidth = 0;
width = 194;
},
{
layerId = "6449507E-FEE0-4D4A-A81F-7CAB6A5803D5";
shapes = (
{
closed = 1;
nodes = (
(120,0,o),
(132,21,o),
(140,55,cs),
(215,355,ls),
(226,399,o),
(210,424,o),
(172,424,cs),
(134,424,o),
(114,412,o),
(105,373,cs),
(31,76,ls),
(19,30,o),
(34,0,o),
(77,0,cs)
);
},
{
closed = 1;
nodes = (
(238,467,o),
(266,497,o),
(266,527,cs),
(266,561,o),
(236,587,o),
(204,587,cs),
(168,587,o),
(144,557,o),
(144,527,cs),
(144,497,o),
(171,467,o),
(204,467,cs)
);
}
);
vertWidth = 0;
width = 234;
}
);
unicode = 105;
},
{
color = 6;
glyphname = j;
layers = (
{
layerId = m01;
shapes = (
{
closed = 1;
nodes = (
(-69,-356,o),
(-31,-324,o),
(-15,-261,cs),
(146,383,ls),
(151,402,o),
(146,416,o),
(126,416,cs),
(103,416,o),
(91,407,o),
(86,386,cs),
(-75,-247,ls),
(-84,-284,o),
(-99,-303,o),
(-119,-303,cs),
(-134,-303,o),
(-147,-285,o),
(-153,-267,cs),
(-159,-248,o),
(-170,-245,o),
(-188,-249,cs),
(-208,-255,o),
(-216,-267,o),
(-209,-289,cs),
(-195,-330,o),
(-162,-356,o),
(-124,-356,cs)
);
},
{
closed = 1;
nodes = (
(179,520,o),
(196,538,o),
(196,556,cs),
(196,576,o),
(177,590,o),
(159,590,cs),
(138,590,o),
(124,573,o),
(124,556,cs),
(124,538,o),
(139,520,o),
(159,520,cs)
);
}
);
vertWidth = 0;
width = 194;
},
{
layerId = "6449507E-FEE0-4D4A-A81F-7CAB6A5803D5";
shapes = (
{
closed = 1;
nodes = (
(8,-356,o),
(46,-321,o),
(65,-244,cs),
(215,355,ls),
(226,399,o),
(210,424,o),
(172,424,cs),
(134,424,o),
(114,412,o),
(105,373,cs),
(-42,-214,ls),
(-45,-226,o),
(-50,-235,o),
(-53,-235,cs),
(-55,-235,o),
(-57,-233,o),
(-58,-229,cs),
(-71,-191,o),
(-88,-181,o),
(-126,-191,cs),
(-168,-203,o),
(-183,-228,o),
(-169,-271,cs),
(-150,-326,o),
(-106,-356,o),
(-57,-356,cs)
);
},
{
closed = 1;
nodes = (
(238,467,o),
(266,497,o),
(266,527,cs),
(266,561,o),
(236,587,o),
(204,587,cs),
(168,587,o),
(144,557,o),
(144,527,cs),
(144,497,o),
(171,467,o),
(204,467,cs)
);
}
);
vertWidth = 0;
width = 234;
}
);
unicode = 106;
},
{
color = 6;
glyphname = k;
kernLeft = h_left;
layers = (
{
layerId = m01;
shapes = (
{
closed = 1;
nodes = (
(50,0,o),
(55,17,o),
(59,38,cs),
(235,739,ls),
(240,758,o),
(235,771,o),
(215,772,cs),
(192,773,o),
(181,764,o),
(175,743,cs),
(-1,42,ls),
(-6,21,o),
(-6,0,o),
(20,0,cs)
);
},
{
closed = 1;
nodes = (
(309,0,o),
(328,23,o),
(309,50,cs),
(108,342,l),
(88,268,l),
(264,10,ls),
(268,2,o),
(276,0,o),
(282,0,cs)
);
},
{
closed = 1;
nodes = (
(277,221,o),
(358,282,o),
(358,365,cs),
(358,399,o),
(337,421,o),
(304,421,cs),
(201,421,o),
(110,341,o),
(110,289,cs),
(110,249,o),
(134,221,o),
(166,221,cs)
);
},
{
closed = 1;
nodes = (
(162,272,o),
(152,276,o),
(152,284,cs),
(152,314,o),
(234,360,o),
(282,360,cs),
(290,360,o),
(295,355,o),
(295,347,cs),
(295,309,o),
(239,272,o),
(173,272,cs)
);
}
);
vertWidth = 0;
width = 429;
},
{
layerId = "6449507E-FEE0-4D4A-A81F-7CAB6A5803D5";
shapes = (
{
closed = 1;
nodes = (
(129,0,o),
(132,24,o),
(141,61,cs),
(302,701,ls),
(314,746,o),
(304,770,o),
(263,772,cs),
(223,775,o),
(202,758,o),
(192,721,cs),
(31,78,ls),
(19,30,o),
(34,0,o),
(82,0,cs)
);
},
{
closed = 1;
nodes = (
(375,0,o),
(409,45,o),
(373,97,cs),
(172,390,l),
(131,240,l),
(278,23,ls),
(290,6,o),
(307,0,o),
(322,0,cs)
);
},
{
closed = 1;
nodes = (
(354,189,o),
(436,253,o),
(436,343,cs),
(436,396,o),
(404,426,o),
(354,426,cs),
(234,426,o),
(156,330,o),
(156,273,cs),
(156,223,o),
(195,189,o),
(228,189,cs)
);
},
{
closed = 1;
nodes = (
(255,268,o),
(248,276,o),
(248,285,cs),
(248,308,o),
(289,333,o),
(314,333,cs),
(324,333,o),
(331,327,o),
(331,317,cs),
(331,295,o),
(291,268,o),
(266,268,cs)
);
}
);
vertWidth = 0;
width = 435;
}
);
unicode = 107;
},
{
color = 6;
glyphname = l;
kernLeft = h_left;
layers = (
{
layerId = m01;
shapes = (
{
closed = 1;
nodes = (
(121,0,o),
(162,31,o),
(209,91,cs),
(233,122,o),
(238,129,o),
(238,143,cs),
(238,159,o),
(228,170,o),
(214,170,cs),
(198,170,o),
(190,159,o),
(169,131,cs),
(132,80,o),
(107,53,o),
(94,53,cs),
(75,53,o),
(74,94,o),
(89,158,cs),
(235,739,ls),
(240,758,o),
(235,772,o),
(215,772,cs),
(192,772,o),
(181,764,o),
(175,743,cs),
(31,171,ls),
(5,65,o),
(27,0,o),
(88,0,cs)
);
}
);
vertWidth = 0;
width = 286;
},
{
layerId = "6449507E-FEE0-4D4A-A81F-7CAB6A5803D5";
shapes = (
{
closed = 1;
nodes = (
(179,0,o),
(234,34,o),
(286,102,cs),
(307,129,o),
(312,150,o),
(312,170,cs),
(312,195,o),
(296,215,o),
(271,215,cs),
(245,215,o),
(228,198,o),
(213,168,cs),
(197,137,o),
(170,103,o),
(163,103,cs),
(156,103,o),
(162,137,o),
(166,154,cs),
(304,708,ls),
(315,751,o),
(295,772,o),
(257,772,cs),
(221,772,o),
(202,759,o),
(194,726,cs),
(57,179,ls),
(21,38,o),
(71,0,o),
(133,0,cs)
);
}
);
vertWidth = 0;
width = 345;
}
);
unicode = 108;
},
{
color = 6;
glyphname = m;
kernLeft = n_left;
kernRight = n_right;
layers = (
{
layerId = m01;
shapes = (
{
closed = 1;
nodes = (
(278,-1,o),
(282,15,o),
(287,37,cs),
(333,217,ls),
(368,358,o),
(352,421,o),
(276,421,cs),
(214,421,o),
(151,345,o),
(95,248,c),
(67,114,l),
(89,200,o),
(208,366,o),
(261,366,cs),
(293,366,o),
(298,321,o),
(273,223,cs),
(227,40,ls),
(222,20,o),
(222,-1,o),
(248,-1,cs)
);
},
{
closed = 1;
nodes = (
(38,0,o),
(42,17,o),
(48,38,cs),
(134,383,ls),
(139,402,o),
(134,415,o),
(114,416,cs),
(91,417,o),
(80,407,o),
(74,386,cs),
(-13,42,ls),
(-18,21,o),
(-18,0,o),
(8,0,cs)
);
},
{
closed = 1;
nodes = (
(517,-1,o),
(520,15,o),
(526,37,cs),
(571,217,ls),
(607,358,o),
(590,421,o),
(514,421,cs),
(453,421,o),
(390,345,o),
(334,248,c),
(305,114,l),
(328,200,o),
(447,366,o),
(500,366,cs),
(532,366,o),
(537,321,o),
(512,223,cs),
(466,40,ls),
(461,20,o),
(461,-1,o),
(487,-1,cs)
);
}
);
vertWidth = 0;
width = 647;
},
{
layerId = "6449507E-FEE0-4D4A-A81F-7CAB6A5803D5";
shapes = (
{
closed = 1;
nodes = (
(320,0,o),
(329,21,o),
(337,55,cs),
(378,219,ls),
(425,410,o),
(378,426,o),
(327,426,cs),
(261,426,o),
(187,352,o),
(132,258,c),
(133,76,l),
(169,194,o),
(234,316,o),
(268,316,cs),
(289,316,o),
(277,260,o),
(272,239,cs),
(232,72,ls),
(221,30,o),
(232,0,o),
(278,0,cs)
);
},
{
closed = 1;
nodes = (
(108,0,o),
(120,21,o),
(128,55,cs),
(203,355,ls),
(214,399,o),
(198,424,o),
(160,424,cs),
(122,424,o),
(102,412,o),
(93,373,cs),
(19,76,ls),
(7,30,o),
(23,0,o),
(65,0,cs)
);
},
{
closed = 1;
nodes = (
(529,0,o),
(538,21,o),
(546,55,cs),
(587,219,ls),
(634,410,o),
(587,426,o),
(536,426,cs),
(470,426,o),
(396,352,o),
(341,258,c),
(342,76,l),
(378,194,o),
(443,316,o),
(478,316,cs),
(498,316,o),
(486,260,o),
(481,239,cs),
(441,72,ls),
(430,30,o),
(441,0,o),
(487,0,cs)
);
}
);
vertWidth = 0;
width = 628;
}
);
unicode = 109;
},
{
color = 6;
glyphname = n;
kernLeft = n_left;
kernRight = n_right;
layers = (
{
layerId = m01;
shapes = (
{
closed = 1;
nodes = (
(302,0,o),
(305,17,o),
(311,38,cs),
(356,217,ls),
(392,358,o),
(375,421,o),
(299,421,cs),
(238,421,o),
(151,345,o),
(95,248,c),
(67,114,l),
(89,200,o),
(232,366,o),
(285,366,cs),
(317,366,o),
(322,321,o),
(297,223,cs),
(251,42,ls),
(246,21,o),
(246,0,o),
(272,0,cs)
);
},
{
closed = 1;
nodes = (
(38,0,o),
(42,17,o),
(48,38,cs),
(134,383,ls),
(139,402,o),
(134,416,o),
(114,416,cs),
(91,416,o),
(80,407,o),
(74,386,cs),
(-13,42,ls),
(-18,21,o),
(-18,0,o),
(8,0,cs)
);
}
);
vertWidth = 0;
width = 432;
},
{
layerId = "6449507E-FEE0-4D4A-A81F-7CAB6A5803D5";
shapes = (
{
closed = 1;
nodes = (
(331,0,o),
(341,21,o),
(349,55,cs),
(390,219,ls),
(437,410,o),
(390,426,o),
(339,426,cs),
(273,426,o),
(187,352,o),
(132,258,c),
(133,76,l),
(169,194,o),
(246,316,o),
(280,316,cs),
(301,316,o),
(289,260,o),
(284,239,cs),
(244,72,ls),
(233,30,o),
(244,0,o),
(290,0,cs)
);
},
{
closed = 1;
nodes = (
(108,0,o),
(120,21,o),
(128,55,cs),
(203,355,ls),
(214,399,o),
(198,424,o),
(160,424,cs),
(122,424,o),
(102,412,o),
(93,373,cs),
(19,76,ls),
(7,30,o),
(23,0,o),
(65,0,cs)
);
}
);
vertWidth = 0;
width = 431;
}
);
unicode = 110;
},
{
color = 6;
glyphname = o;
kernLeft = o_left;
kernRight = o_right;
layers = (
{
layerId = m01;
shapes = (
{
closed = 1;
nodes = (
(198,0,o),
(278,88,o),
(310,216,cs),
(341,340,o),
(302,421,o),
(222,421,cs),
(127,421,o),
(48,333,o),
(15,204,cs),
(-15,81,o),
(24,0,o),
(103,0,cs)
);
},
{
closed = 1;
nodes = (
(69,53,o),
(52,101,o),
(75,194,cs),
(100,295,o),
(152,367,o),
(209,367,cs),
(257,367,o),
(273,320,o),
(251,227,cs),
(226,126,o),
(173,53,o),
(116,53,cs)
);
}
);
vertWidth = 0;
width = 375;
},
{
layerId = "6449507E-FEE0-4D4A-A81F-7CAB6A5803D5";
shapes = (
{
closed = 1;
nodes = (
(259,0,o),
(345,82,o),
(378,214,cs),
(410,346,o),
(368,426,o),
(267,426,cs),
(160,426,o),
(75,347,o),
(43,219,cs),
(10,83,o),
(51,0,o),
(153,0,cs)
);
},
{
closed = 1;
nodes = (
(146,107,o),
(139,140,o),
(153,195,cs),
(172,272,o),
(209,320,o),
(249,320,cs),
(273,320,o),
(280,289,o),
(267,238,cs),
(247,157,o),
(210,107,o),
(171,107,cs)
);
}
);
vertWidth = 0;
width = 407;
}
);
unicode = 111;
},
{
color = 6;
glyphname = p;
kernLeft = n_left;
kernRight = o_right;
layers = (
{
layerId = m01;
shapes = (
{
closed = 1;
nodes = (
(-51,-356,o),
(-46,-340,o),
(-42,-318,cs),
(134,383,ls),
(139,402,o),
(134,416,o),
(114,416,cs),
(91,416,o),
(80,407,o),
(74,386,cs),
(-102,-315,ls),
(-107,-335,o),
(-107,-356,o),
(-81,-356,cs)
);
},
{
closed = 1;
nodes = (
(210,0,o),
(290,88,o),
(322,216,cs),
(353,340,o),
(314,421,o),
(234,421,cs),
(154,421,o),
(84,339,o),
(51,204,cs),
(19,78,o),
(44,0,o),
(115,0,cs)
);
},
{
closed = 1;
nodes = (
(81,53,o),
(64,101,o),
(87,194,cs),
(112,295,o),
(164,367,o),
(221,367,cs),
(268,367,o),
(285,320,o),
(263,227,cs),
(238,126,o),
(185,53,o),
(128,53,cs)
);
}
);
vertWidth = 0;
width = 387;
},
{
layerId = "6449507E-FEE0-4D4A-A81F-7CAB6A5803D5";
shapes = (
{
closed = 1;
nodes = (
(30,-356,o),
(32,-333,o),
(42,-296,cs),
(203,354,ls),
(215,400,o),
(203,424,o),
(162,424,cs),
(122,424,o),
(102,410,o),
(93,373,cs),
(-69,-278,ls),
(-81,-327,o),
(-65,-356,o),
(-18,-356,cs)
);
},
{
closed = 1;
nodes = (
(270,0,o),
(355,82,o),
(388,214,cs),
(421,346,o),
(379,426,o),
(301,426,cs),
(197,426,o),
(168,346,o),
(137,219,cs),
(101,75,o),
(100,0,o),
(192,0,cs)
);
},
{
closed = 1;
nodes = (
(157,107,o),
(150,140,o),
(164,195,cs),
(183,272,o),
(220,320,o),
(260,320,cs),
(284,320,o),
(291,289,o),
(278,238,cs),
(258,157,o),
(221,107,o),
(182,107,cs)
);
}
);
vertWidth = 0;
width = 418;
}
);
unicode = 112;
},
{
color = 6;
glyphname = q;
kernLeft = o_left;
layers = (
{
layerId = m01;
shapes = (
{
closed = 1;
nodes = (
(213,-356,o),
(273,-311,o),
(347,-238,cs),
(359,-226,o),
(365,-214,o),
(366,-201,cs),
(368,-187,o),
(358,-177,o),
(345,-175,cs),
(331,-172,o),
(321,-181,o),
(305,-196,cs),
(247,-254,o),
(210,-289,o),
(198,-289,cs),
(188,-289,o),
(187,-278,o),
(195,-245,cs),
(352,383,ls),
(356,402,o),
(352,416,o),
(331,416,cs),
(309,416,o),
(297,407,o),
(291,386,cs),
(135,-234,ls),
(115,-315,o),
(127,-356,o),
(170,-356,cs)
);
},
{
closed = 1;
nodes = (
(183,0,o),
(253,82,o),
(286,216,cs),
(318,342,o),
(293,421,o),
(222,421,cs),
(127,421,o),
(48,333,o),
(15,204,cs),
(-15,81,o),
(24,0,o),
(103,0,cs)
);
},
{
closed = 1;
nodes = (
(69,53,o),
(52,101,o),
(75,194,cs),
(100,295,o),
(152,367,o),
(209,367,cs),
(257,367,o),
(273,320,o),
(251,227,cs),
(226,126,o),
(173,53,o),
(116,53,cs)
);
}
);
vertWidth = 0;
width = 387;
},
{
layerId = "6449507E-FEE0-4D4A-A81F-7CAB6A5803D5";
shapes = (
{
closed = 1;
nodes = (
(286,-356,o),
(341,-322,o),
(393,-254,cs),
(413,-227,o),
(419,-207,o),
(419,-187,cs),
(419,-162,o),
(403,-141,o),
(378,-141,cs),
(352,-141,o),
(335,-158,o),
(320,-189,cs),
(304,-220,o),
(277,-253,o),
(270,-253,cs),
(260,-253,o),
(267,-220,o),
(272,-202,cs),
(412,362,ls),
(423,405,o),
(404,426,o),
(366,426,cs),
(330,426,o),
(311,413,o),
(303,380,cs),
(164,-177,ls),
(128,-318,o),
(178,-356,o),
(240,-356,cs)
);
},
{
closed = 1;
nodes = (
(225,0,o),
(261,89,o),
(295,214,cs),
(329,342,o),
(334,426,o),
(252,426,cs),
(160,426,o),
(75,347,o),
(43,219,cs),
(10,83,o),
(51,0,o),
(146,0,cs)
);
},
{
closed = 1;
nodes = (
(146,107,o),
(139,140,o),
(153,195,cs),
(172,272,o),
(209,320,o),
(249,320,cs),
(273,320,o),
(280,289,o),
(267,238,cs),
(247,157,o),
(210,107,o),
(171,107,cs)
);
}
);
vertWidth = 0;
width = 417;
}
);
unicode = 113;
},
{
color = 6;
glyphname = r;
kernLeft = n_left;
layers = (
{
layerId = m01;
shapes = (
{
closed = 1;
nodes = (
(38,0,o),
(42,17,o),
(48,38,cs),
(134,383,ls),
(139,402,o),
(134,415,o),
(114,416,cs),
(91,417,o),
(80,407,o),
(74,386,cs),
(-13,42,ls),
(-18,21,o),
(-18,0,o),
(8,0,cs)
);
},
{
closed = 1;
nodes = (
(89,200,o),
(225,366,o),
(278,366,cs),
(291,366,o),
(301,355,o),
(305,333,cs),
(309,315,o),
(323,309,o),
(343,314,cs),
(358,317,o),
(369,329,o),
(366,345,cs),
(353,394,o),
(328,421,o),
(292,421,cs),
(230,421,o),
(151,345,o),
(95,248,c),
(67,114,l)
);
}
);
vertWidth = 0;
width = 378;
},
{
layerId = "6449507E-FEE0-4D4A-A81F-7CAB6A5803D5";
shapes = (
{
closed = 1;
nodes = (
(113,0,o),
(121,21,o),
(131,57,cs),
(208,359,ls),
(217,398,o),
(198,424,o),
(159,424,cs),
(125,424,o),
(102,411,o),
(94,377,cs),
(20,75,ls),
(10,31,o),
(20,0,o),
(68,0,cs)
);
},
{
closed = 1;
nodes = (
(165,184,o),
(253,326,o),
(289,326,cs),
(295,326,o),
(299,321,o),
(302,312,cs),
(310,280,o),
(337,265,o),
(373,273,cs),
(409,283,o),
(423,307,o),
(416,334,cs),
(400,396,o),
(368,426,o),
(323,426,cs),
(263,426,o),
(200,361,o),
(144,264,c),
(131,61,l)
);
}
);
vertWidth = 0;
width = 398;
}
);
unicode = 114;
},
{
color = 6;
glyphname = s;
layers = (
{
layerId = m01;
shapes = (
{
closed = 1;
nodes = (
(195,0,o),
(271,63,o),
(282,146,cs),
(290,210,o),
(264,247,o),
(172,247,cs),
(119,247,o),
(94,261,o),
(100,296,cs),
(108,341,o),
(141,367,o),
(184,367,cs),
(210,367,o),
(232,355,o),
(249,333,cs),
(261,317,o),
(280,302,o),
(296,312,cs),
(312,324,o),
(320,339,o),
(298,368,cs),
(271,403,o),
(238,421,o),
(197,421,cs),
(120,421,o),
(56,368,o),
(43,298,cs),
(30,226,o),
(67,190,o),
(150,190,cs),
(216,190,o),
(227,176,o),
(222,138,cs),
(216,89,o),
(171,53,o),
(118,53,cs),
(83,53,o),
(58,67,o),
(43,94,cs),
(31,114,o),
(19,126,o),
(2,116,cs),
(-15,106,o),
(-15,84,o),
(-2,64,cs),
(24,21,o),
(61,0,o),
(109,0,cs)
);
}
);
vertWidth = 0;
width = 365;
},
{
layerId = "6449507E-FEE0-4D4A-A81F-7CAB6A5803D5";
shapes = (
{
closed = 1;
nodes = (
(253,0,o),
(330,65,o),
(341,151,cs),
(350,223,o),
(328,273,o),
(217,273,c),
(195,273,o),
(194,287,o),
(195,296,cs),
(197,310,o),
(213,320,o),
(233,320,cs),
(249,320,o),
(260,315,o),
(270,307,cs),
(301,280,o),
(333,278,o),
(354,299,cs),
(381,327,o),
(379,361,o),
(346,390,cs),
(317,415,o),
(283,426,o),
(244,426,cs),
(162,426,o),
(96,374,o),
(82,302,cs),
(68,219,o),
(100,162,o),
(198,162,cs),
(208,162,o),
(230,160,o),
(228,141,cs),
(226,125,o),
(200,107,o),
(171,107,cs),
(154,107,o),
(141,114,o),
(134,126,cs),
(108,169,o),
(84,171,o),
(58,157,cs),
(29,139,o),
(19,106,o),
(43,69,cs),
(71,23,o),
(112,0,o),
(164,0,cs)
);
}
);
vertWidth = 0;
width = 387;
}
);
unicode = 115;
},
{
color = 6;
glyphname = t;
layers = (
{
layerId = m01;
shapes = (
{
closed = 1;
nodes = (
(265,362,ls),
(289,362,o),
(296,375,o),
(296,390,cs),
(296,404,o),
(289,416,o),
(265,416,cs),
(44,416,ls),
(20,416,o),
(13,404,o),
(13,390,cs),
(13,375,o),
(20,362,o),
(44,362,cs)
);
},
{
closed = 1;
nodes = (
(144,0,o),
(192,39,o),
(267,135,cs),
(293,169,o),
(304,194,o),
(304,203,cs),
(304,213,o),
(298,214,o),
(293,214,cs),
(279,214,o),
(266,202,o),
(241,175,cs),
(165,95,o),
(129,62,o),
(116,62,cs),
(97,62,o),
(96,90,o),
(113,158,cs),
(211,550,ls),
(216,569,o),
(211,583,o),
(191,583,cs),
(169,583,o),
(157,575,o),
(151,554,cs),
(55,171,ls),
(24,50,o),
(40,0,o),
(102,0,cs)
);
}
);
vertWidth = 0;
width = 355;
},
{
layerId = "6449507E-FEE0-4D4A-A81F-7CAB6A5803D5";
shapes = (
{
closed = 1;
nodes = (
(316,312,ls),
(362,312,o),
(375,342,o),
(375,368,cs),
(375,396,o),
(366,424,o),
(316,424,cs),
(107,424,ls),
(58,424,o),
(48,396,o),
(48,368,cs),
(48,342,o),
(59,312,o),
(107,312,cs)
);
},
{
closed = 1;
nodes = (
(213,0,o),
(287,34,o),
(366,134,cs),
(397,173,o),
(406,203,o),
(406,214,cs),
(406,251,o),
(383,255,o),
(365,255,cs),
(347,255,o),
(326,248,o),
(295,209,cs),
(251,154,o),
(219,119,o),
(209,119,cs),
(201,119,o),
(207,149,o),
(211,165,c),
(298,514,ls),
(310,561,o),
(291,583,o),
(249,583,cs),
(213,583,o),
(194,568,o),
(184,535,cs),
(96,192,ls),
(50,7,o),
(103,0,o),
(171,0,cs)
);
}
);
vertWidth = 0;
width = 440;
}
);
unicode = 116;
},
{
color = 6;
glyphname = u;
kernLeft = n_left;
kernRight = n_right;
layers = (
{
layerId = m01;
shapes = (
{
closed = 1;
nodes = (
(144,0,o),
(219,70,o),
(274,166,c),
(303,301,l),
(280,215,o),
(150,55,o),
(96,55,cs),
(64,55,o),
(59,94,o),
(84,191,cs),
(133,383,ls),
(138,402,o),
(133,416,o),
(113,416,cs),
(90,416,o),
(78,407,o),
(72,386,cs),
(25,197,ls),
(-11,57,o),
(6,0,o),
(82,0,cs)
);
},
{
closed = 1;
nodes = (
(289,0,o),
(292,17,o),
(298,38,cs),
(385,383,ls),
(390,402,o),
(385,416,o),
(365,416,cs),
(342,416,o),
(330,407,o),
(324,386,cs),
(238,42,ls),
(233,21,o),
(233,0,o),
(259,0,cs)
);
}
);
vertWidth = 0;
width = 421;
},
{
layerId = "6449507E-FEE0-4D4A-A81F-7CAB6A5803D5";
shapes = (
{
closed = 1;
nodes = (
(169,0,o),
(255,75,o),
(310,169,c),
(309,348,l),
(273,230,o),
(196,110,o),
(162,110,cs),
(141,110,o),
(153,166,o),
(158,188,cs),
(198,352,ls),
(209,394,o),
(198,424,o),
(152,424,cs),
(110,424,o),
(101,403,o),
(93,369,cs),
(52,208,ls),
(5,17,o),
(52,0,o),
(103,0,cs)
);
},
{
closed = 1;
nodes = (
(318,0,o),
(339,12,o),
(348,51,cs),
(423,348,ls),
(435,394,o),
(419,424,o),
(377,424,cs),
(334,424,o),
(322,403,o),
(314,369,cs),
(238,69,ls),
(227,25,o),
(242,0,o),
(280,0,cs)
);
}
);
vertWidth = 0;
width = 431;
}
);
unicode = 117;
},
{
color = 6;
glyphname = v;
kernLeft = v_left;
kernRight = v_right;
layers = (
{
layerId = m01;
shapes = (
{
closed = 1;
nodes = (
(128,0,o),
(134,5,o),
(141,19,cs),
(339,378,ls),
(348,396,o),
(336,416,o),
(312,416,cs),
(299,416,o),
(289,411,o),
(282,397,cs),
(109,70,l),
(129,67,l),
(97,390,ls),
(95,410,o),
(82,416,o),
(69,416,cs),
(44,416,o),
(36,396,o),
(38,380,cs),
(80,23,ls),
(82,7,o),
(94,0,o),
(109,0,cs)
);
}
);
vertWidth = 0;
width = 364;
},
{
layerId = "6449507E-FEE0-4D4A-A81F-7CAB6A5803D5";
shapes = (
{
closed = 1;
nodes = (
(184,0,o),
(194,10,o),
(207,33,cs),
(380,347,ls),
(398,380,o),
(381,424,o),
(331,424,cs),
(309,424,o),
(291,416,o),
(278,391,cs),
(135,124,l),
(196,124,l),
(171,374,ls),
(168,413,o),
(141,424,o),
(116,424,cs),
(70,424,o),
(56,387,o),
(59,359,cs),
(96,46,ls),
(100,17,o),
(121,0,o),
(152,0,cs)
);
}
);
vertWidth = 0;
width = 378;
}
);
unicode = 118;
},
{
color = 6;
glyphname = w;
kernLeft = v_left;
kernRight = v_right;
layers = (
{
layerId = m01;
shapes = (
{
closed = 1;
nodes = (
(128,0,o),
(134,5,o),
(141,19,cs),
(307,323,l),
(292,328,l),
(323,23,ls),
(324,7,o),
(337,0,o),
(353,0,cs),
(372,0,o),
(378,5,o),
(385,19,cs),
(582,378,ls),
(592,396,o),
(580,416,o),
(556,416,cs),
(543,416,o),
(532,411,o),
(525,397,cs),
(353,70,l),
(373,67,l),
(341,390,ls),
(339,410,o),
(326,416,o),
(312,416,cs),
(298,416,o),
(289,410,o),
(282,397,cs),
(109,70,l),
(129,67,l),
(97,390,ls),
(95,410,o),
(82,416,o),
(69,416,cs),
(44,416,o),
(36,396,o),
(38,380,cs),
(80,23,ls),
(82,7,o),
(94,0,o),
(109,0,cs)
);
}
);
vertWidth = 0;
width = 607;
},
{
layerId = "6449507E-FEE0-4D4A-A81F-7CAB6A5803D5";
shapes = (
{
closed = 1;
nodes = (
(184,0,o),
(194,10,o),
(207,33,cs),
(367,334,l),
(276,365,l),
(304,46,ls),
(307,18,o),
(328,0,o),
(360,0,cs),
(392,0,o),
(402,10,o),
(415,33,cs),
(588,347,ls),
(606,380,o),
(589,424,o),
(539,424,cs),
(517,424,o),
(499,416,o),
(486,391,cs),
(329,97,l),
(407,94,l),
(383,374,ls),
(379,413,o),
(353,424,o),
(328,424,cs),
(303,424,o),
(286,415,o),
(274,392,cs),
(121,97,l),
(198,94,l),
(171,374,ls),
(168,413,o),
(141,424,o),
(116,424,cs),
(70,424,o),
(56,387,o),
(59,359,cs),
(96,46,ls),
(100,17,o),
(121,0,o),
(152,0,cs)
);
}
);
vertWidth = 0;
width = 586;
}
);
unicode = 119;
},
{
color = 6;
glyphname = x;
layers = (
{
layerId = m01;
shapes = (
{
closed = 1;
nodes = (
(5,0,o),
(14,5,o),
(34,29,cs),
(157,175,l),
(177,187,l),
(328,366,ls),
(347,388,o),
(341,416,o),
(312,416,cs),
(302,416,o),
(293,411,o),
(282,398,cs),
(153,246,l),
(135,235,l),
(-18,52,ls),
(-36,32,o),
(-32,0,o),
(-6,0,cs)
);
},
{
closed = 1;
nodes = (
(235,0,o),
(248,18,o),
(238,50,cs),
(122,391,ls),
(116,409,o),
(105,416,o),
(93,416,cs),
(65,416,o),
(59,391,o),
(68,367,cs),
(183,30,ls),
(192,4,o),
(202,0,o),
(213,0,cs)
);
}
);
vertWidth = 0;
width = 354;
},
{
layerId = "6449507E-FEE0-4D4A-A81F-7CAB6A5803D5";
shapes = (
{
closed = 1;
nodes = (
(75,0,o),
(89,1,o),
(119,36,cs),
(222,152,l),
(251,169,l),
(384,318,ls),
(442,384,o),
(406,424,o),
(366,424,cs),
(341,424,o),
(323,415,o),
(303,392,cs),
(196,271,l),
(169,254,l),
(27,95,ls),
(-21,39,o),
(19,0,o),
(61,0,cs)
);
},
{
closed = 1;
nodes = (
(307,0,o),
(347,20,o),
(321,83,cs),
(195,383,ls),
(182,413,o),
(160,424,o),
(140,424,cs),
(96,424,o),
(70,388,o),
(90,342,cs),
(217,46,ls),
(238,0,o),
(254,0,o),
(271,0,cs)
);
}
);
vertWidth = 0;
width = 403;
}
);
unicode = 120;
},
{
color = 6;
glyphname = y;
kernLeft = n_left;
kernRight = n_right;
layers = (
{
layerId = m01;
shapes = (
{
closed = 1;
nodes = (
(144,-1,o),
(219,70,o),
(274,166,c),
(303,301,l),
(280,215,o),
(150,53,o),
(96,53,cs),
(64,53,o),
(59,94,o),
(84,191,cs),
(133,383,ls),
(138,402,o),
(133,415,o),
(113,416,cs),
(90,417,o),
(78,407,o),
(72,386,cs),
(25,197,ls),
(-11,57,o),
(6,-1,o),
(82,-1,cs)
);
},
{
closed = 1;
nodes = (
(160,-356,o),
(209,-316,o),
(227,-246,cs),
(385,383,ls),
(390,402,o),
(385,415,o),
(365,416,cs),
(342,417,o),
(330,407,o),
(324,386,cs),
(166,-241,ls),
(157,-278,o),
(134,-297,o),
(102,-297,cs),
(69,-297,o),
(31,-276,o),
(2,-241,cs),
(-8,-227,o),
(-25,-216,o),
(-40,-228,cs),
(-55,-239,o),
(-61,-253,o),
(-45,-274,cs),
(-8,-326,o),
(46,-356,o),
(97,-356,cs)
);
}
);
vertWidth = 0;
width = 421;
},
{
layerId = "6449507E-FEE0-4D4A-A81F-7CAB6A5803D5";
shapes = (
{
closed = 1;
nodes = (
(169,0,o),
(255,75,o),
(310,169,c),
(309,348,l),
(273,230,o),
(196,110,o),
(162,110,cs),
(141,110,o),
(153,166,o),
(158,188,cs),
(198,352,ls),
(209,394,o),
(198,424,o),
(152,424,cs),
(110,424,o),
(101,403,o),
(93,369,cs),
(52,208,ls),
(5,17,o),
(52,0,o),
(103,0,cs)
);
},
{
closed = 1;
nodes = (
(213,-356,o),
(255,-311,o),
(277,-227,cs),
(422,352,ls),
(432,396,o),
(429,424,o),
(386,424,cs),
(345,424,o),
(323,409,o),
(314,369,cs),
(170,-209,ls),
(166,-223,o),
(158,-233,o),
(143,-233,cs),
(121,-233,o),
(91,-217,o),
(72,-194,cs),
(52,-164,o),
(15,-154,o),
(-12,-176,cs),
(-38,-197,o),
(-53,-223,o),
(-24,-266,cs),
(19,-323,o),
(83,-356,o),
(140,-356,cs)
);
}
);
vertWidth = 0;
width = 429;
}
);
unicode = 121;
},
{
color = 6;
glyphname = z;
layers = (
{
layerId = m01;
shapes = (
{
closed = 1;
nodes = (
(272,0,ls),
(296,0,o),
(303,13,o),
(303,27,cs),
(303,42,o),
(296,53,o),
(272,53,cs),
(45,53,l),
(49,33,l),
(340,366,ls),
(359,387,o),
(350,416,o),
(322,416,cs),
(93,416,ls),
(69,416,o),
(62,403,o),
(62,388,cs),
(62,374,o),
(69,362,o),
(93,362,cs),
(285,362,l),
(280,383,l),
(-10,52,ls),
(-24,36,o),
(-20,0,o),
(6,0,cs)
);
}
);
vertWidth = 0;
width = 416;
},
{
layerId = "6449507E-FEE0-4D4A-A81F-7CAB6A5803D5";
shapes = (
{
closed = 1;
nodes = (
(303,0,ls),
(349,0,o),
(359,27,o),
(359,53,cs),
(359,80,o),
(350,107,o),
(303,107,cs),
(129,107,l),
(141,50,l),
(391,330,ls),
(431,377,o),
(403,424,o),
(353,424,cs),
(150,424,ls),
(102,424,o),
(93,397,o),
(93,371,c),
(93,345,o),
(101,317,o),
(150,317,cs),
(314,317,l),
(293,375,l),
(39,96,ls),
(4,58,o),
(32,0,o),
(75,0,cs)
);
}
);
vertWidth = 0;
width = 431;
}
);
unicode = 122;
},
{
color = 6;
glyphname = zero;
layers = (
{
layerId = m01;
shapes = (
{
closed = 1;
nodes = (
(299,0,o),
(409,160,o),
(465,419,cs),
(512,638,o),
(467,772,o),
(347,772,cs),
(198,772,o),
(87,598,o),
(53,316,cs),
(31,121,o),
(78,0,o),
(178,0,cs)
);
},
{
closed = 1;
nodes = (
(120,55,o),
(96,158,o),
(116,327,cs),
(145,568,o),
(230,718,o),
(340,718,cs),
(418,718,o),
(442,602,o),
(402,416,cs),
(353,192,o),
(268,55,o),
(179,55,cs)
);
}
);
vertWidth = 0;
width = 504;
},
{
layerId = "6449507E-FEE0-4D4A-A81F-7CAB6A5803D5";
shapes = (
{
closed = 1;
nodes = (
(356,0,o),
(473,144,o),
(531,410,cs),
(587,669,o),
(513,772,o),
(391,772,cs),
(246,772,o),
(125,614,o),
(90,326,cs),
(64,96,o),
(134,0,o),
(236,0,cs)
);
},
{
closed = 1;
nodes = (
(191,115,o),
(204,260,o),
(213,328,cs),
(234,513,o),
(293,657,o),
(385,657,cs),
(448,657,o),
(425,494,o),
(410,421,cs),
(372,248,o),
(312,115,o),
(238,115,cs)
);
}
);
vertWidth = 0;
width = 536;
}
);
unicode = 48;
},
{
color = 6;
glyphname = one;
layers = (
{
layerId = m01;
shapes = (
{
closed = 1;
nodes = (
(72,0,o),
(80,15,o),
(82,27,cs),
(255,733,ls),
(260,754,o),
(254,772,o),
(234,772,cs),
(211,772,o),
(202,762,o),
(197,743,cs),
(21,34,ls),
(17,17,o),
(25,0,o),
(46,0,cs)
);
}
);
vertWidth = 0;
width = 271;
},
{
layerId = "6449507E-FEE0-4D4A-A81F-7CAB6A5803D5";
shapes = (
{
closed = 1;
nodes = (
(170,0,o),
(181,30,o),
(185,51,cs),
(343,696,ls),
(355,748,o),
(330,772,o),
(292,772,cs),
(253,772,o),
(235,754,o),
(227,720,cs),
(67,72,ls),
(56,33,o),
(76,0,o),
(121,0,cs)
);
}
);
vertWidth = 0;
width = 333;
}
);
unicode = 49;
},
{
color = 6;
glyphname = two;
layers = (
{
layerId = m01;
shapes = (
{
closed = 1;
nodes = (
(318,0,ls),
(342,0,o),
(349,14,o),
(349,29,cs),
(349,43,o),
(342,53,o),
(318,53,cs),
(42,53,l),
(46,34,l),
(146,134,o),
(314,321,o),
(329,339,cs),
(431,463,o),
(505,552,o),
(505,642,cs),
(505,713,o),
(447,772,o),
(366,772,cs),
(292,772,o),
(210,740,o),
(159,697,cs),
(131,674,o),
(135,656,o),
(145,645,cs),
(154,634,o),
(173,632,o),
(203,657,cs),
(245,691,o),
(311,719,o),
(366,719,cs),
(417,719,o),
(446,677,o),
(446,639,cs),
(446,586,o),
(385,486,o),
(287,377,cs),
(255,340,o),
(144,211,o),
(-11,57,cs),
(-43,25,o),
(-27,0,o),
(5,0,cs)
);
}
);
vertWidth = 0;
width = 493;
},
{
layerId = "6449507E-FEE0-4D4A-A81F-7CAB6A5803D5";
shapes = (
{
closed = 1;
nodes = (
(373,0,ls),
(422,0,o),
(434,31,o),
(434,58,cs),
(434,87,o),
(425,114,o),
(373,114,cs),
(131,114,l),
(166,57,l),
(259,149,o),
(398,305,o),
(412,321,cs),
(513,444,o),
(576,533,o),
(576,620,cs),
(576,702,o),
(511,772,o),
(416,772,cs),
(341,772,o),
(258,740,o),
(207,696,cs),
(149,649,o),
(173,619,o),
(190,601,cs),
(204,584,o),
(228,558,o),
(289,609,cs),
(321,636,o),
(373,658,o),
(416,658,cs),
(442,658,o),
(456,637,o),
(456,618,cs),
(456,573,o),
(402,491,o),
(321,399,cs),
(291,365,o),
(189,248,o),
(49,108,cs),
(-29,31,o),
(31,0,o),
(86,0,cs)
);
}
);
vertWidth = 0;
width = 535;
}
);
unicode = 50;
},
{
color = 6;
glyphname = three;
layers = (
{
layerId = m01;
shapes = (
{
closed = 1;
nodes = (
(302,0,o),
(397,67,o),
(429,196,cs),
(463,333,o),
(378,430,o),
(219,448,c),
(219,438,l),
(499,713,ls),
(516,729,o),
(520,735,o),
(520,747,cs),
(520,763,o),
(508,772,o),
(492,772,cs),
(198,772,ls),
(175,772,o),
(168,759,o),
(168,745,cs),
(168,731,o),
(175,719,o),
(198,719,cs),
(447,719,l),
(446,737,l),
(150,448,ls),
(128,426,o),
(137,398,o),
(169,396,cs),
(326,386,o),
(400,324,o),
(368,194,cs),
(347,101,o),
(272,53,o),
(196,53,cs),
(137,53,o),
(83,103,o),
(69,184,cs),
(64,211,o),
(52,216,o),
(37,216,cs),
(24,216,o),
(6,206,o),
(13,168,cs),
(31,64,o),
(105,0,o),
(195,0,cs)
);
}
);
vertWidth = 0;
width = 523;
},
{
layerId = "6449507E-FEE0-4D4A-A81F-7CAB6A5803D5";
shapes = (
{
closed = 1;
nodes = (
(369,0,o),
(470,68,o),
(504,204,cs),
(539,348,o),
(456,455,o),
(283,474,c),
(284,386,l),
(560,662,ls),
(586,689,o),
(588,699,o),
(588,716,cs),
(588,748,o),
(567,772,o),
(530,772,cs),
(261,772,ls),
(211,772,o),
(200,743,o),
(200,714,cs),
(200,687,o),
(209,658,o),
(261,658,cs),
(472,658,l),
(447,719,l),
(194,466,ls),
(151,423,o),
(169,367,o),
(232,362,cs),
(342,355,o),
(410,317,o),
(385,217,cs),
(369,150,o),
(315,114,o),
(259,114,cs),
(217,114,o),
(184,153,o),
(175,207,cs),
(165,259,o),
(140,264,o),
(113,264,cs),
(91,264,o),
(43,266,o),
(59,179,cs),
(78,68,o),
(160,0,o),
(258,0,cs)
);
}
);
vertWidth = 0;
width = 560;
}
);
unicode = 51;
},
{
color = 6;
glyphname = four;
layers = (
{
layerId = m01;
shapes = (
{
closed = 1;
nodes = (
(387,160,ls),
(406,160,o),
(418,173,o),
(418,188,cs),
(418,202,o),
(406,214,o),
(387,214,cs),
(46,214,l),
(65,182,l),
(347,725,ls),
(365,758,o),
(342,772,o),
(328,772,cs),
(314,772,o),
(305,767,o),
(295,746,cs),
(20,215,ls),
(4,183,o),
(13,160,o),
(44,160,cs)
);
},
{
closed = 1;
nodes = (
(247,0,o),
(263,5,o),
(268,27,cs),
(369,428,ls),
(375,450,o),
(362,465,o),
(343,465,cs),
(329,465,o),
(315,456,o),
(311,441,cs),
(209,38,ls),
(203,14,o),
(217,0,o),
(233,0,cs)
);
}
);
vertWidth = 0;
width = 514;
},
{
layerId = "6449507E-FEE0-4D4A-A81F-7CAB6A5803D5";
shapes = (
{
closed = 1;
nodes = (
(455,147,ls),
(494,147,o),
(516,176,o),
(516,204,cs),
(516,233,o),
(495,261,o),
(455,261,cs),
(151,261,l),
(181,214,l),
(423,681,ls),
(466,762,o),
(402,772,o),
(377,772,cs),
(353,772,o),
(336,769,o),
(317,731,cs),
(65,245,ls),
(30,176,o),
(64,147,o),
(116,147,cs)
);
},
{
closed = 1;
nodes = (
(339,0,o),
(367,8,o),
(378,50,cs),
(469,416,ls),
(481,463,o),
(453,491,o),
(415,491,cs),
(386,491,o),
(360,473,o),
(353,443,cs),
(260,76,ls),
(246,21,o),
(283,0,o),
(314,0,cs)
);
}
);
vertWidth = 0;
width = 574;
}
);
unicode = 52;
},
{
color = 6;
glyphname = five;
layers = (
{
layerId = m01;
shapes = (
{
closed = 1;
nodes = (
(283,0,o),
(398,68,o),
(444,249,cs),
(473,364,o),
(417,463,o),
(264,463,cs),
(228,463,o),
(184,457,o),
(152,446,c),
(172,422,l),
(299,752,l),
(255,719,l),
(518,719,ls),
(542,719,o),
(549,731,o),
(549,745,cs),
(549,759,o),
(542,772,o),
(518,772,cs),
(298,772,ls),
(257,772,o),
(244,764,o),
(230,729,cs),
(118,430,ls),
(106,398,o),
(129,391,o),
(141,391,cs),
(152,391,o),
(160,394,o),
(175,399,cs),
(203,409,o),
(225,410,o),
(252,410,cs),
(369,410,o),
(413,358,o),
(385,247,cs),
(346,95,o),
(241,53,o),
(187,53,cs),
(124,53,o),
(82,93,o),
(63,168,cs),
(58,188,o),
(45,192,o),
(34,192,cs),
(14,192,o),
(0,172,o),
(8,144,cs),
(37,39,o),
(108,0,o),
(177,0,cs)
);
}
);
vertWidth = 0;
width = 525;
},
{
layerId = "6449507E-FEE0-4D4A-A81F-7CAB6A5803D5";
shapes = (
{
closed = 1;
nodes = (
(346,0,o),
(466,65,o),
(514,253,cs),
(545,378,o),
(487,489,o),
(317,489,cs),
(280,489,o),
(236,484,o),
(203,472,c),
(273,419,l),
(373,678,l),
(342,658,l),
(550,658,ls),
(601,658,o),
(611,687,o),
(611,714,cs),
(611,743,o),
(600,772,o),
(550,772,cs),
(348,772,ls),
(291,772,o),
(274,759,o),
(257,712,cs),
(153,438,ls),
(127,367,o),
(182,358,o),
(206,358,cs),
(219,358,o),
(228,361,o),
(246,367,cs),
(268,374,o),
(285,375,o),
(307,375,cs),
(384,375,o),
(416,342,o),
(397,267,cs),
(367,152,o),
(289,114,o),
(246,114,cs),
(203,114,o),
(177,145,o),
(165,194,cs),
(156,234,o),
(128,241,o),
(107,241,cs),
(72,241,o),
(34,215,o),
(52,156,cs),
(83,40,o),
(163,0,o),
(238,0,cs)
);
}
);
vertWidth = 0;
width = 558;
}
);
unicode = 53;
},
{
color = 6;
glyphname = six;
layers = (
{
layerId = m01;
shapes = (
{
closed = 1;
nodes = (
(286,0,o),
(402,143,o),
(402,282,cs),
(402,368,o),
(364,421,o),
(299,421,cs),
(255,421,o),
(200,392,o),
(172,373,cs),
(151,358,o),
(152,337,o),
(159,328,cs),
(166,318,o),
(182,314,o),
(202,328,cs),
(225,345,o),
(257,367,o),
(285,367,cs),
(323,367,o),
(342,326,o),
(342,274,cs),
(342,160,o),
(247,53,o),
(166,53,cs),
(112,53,o),
(74,86,o),
(74,171,cs),
(74,310,o),
(221,557,o),
(339,726,cs),
(354,748,o),
(342,772,o),
(323,772,cs),
(310,772,o),
(299,770,o),
(286,751,cs),
(177,593,o),
(14,316,o),
(14,170,cs),
(14,62,o),
(69,0,o),
(152,0,cs)
);
}
);
vertWidth = 0;
width = 482;
},
{
layerId = "6449507E-FEE0-4D4A-A81F-7CAB6A5803D5";
shapes = (
{
closed = 1;
nodes = (
(353,0,o),
(475,145,o),
(475,291,cs),
(475,398,o),
(423,450,o),
(349,450,cs),
(302,450,o),
(242,422,o),
(214,402,cs),
(169,368,o),
(182,330,o),
(194,314,cs),
(208,296,o),
(234,276,o),
(278,307,cs),
(293,318,o),
(316,336,o),
(336,336,cs),
(358,336,o),
(355,302,o),
(355,284,cs),
(355,201,o),
(289,114,o),
(227,114,cs),
(192,114,o),
(175,141,o),
(175,189,cs),
(175,312,o),
(312,530,o),
(413,678,cs),
(451,733,o),
(406,772,o),
(371,772,cs),
(349,772,o),
(331,770,o),
(310,739,cs),
(207,589,o),
(55,327,o),
(55,188,cs),
(55,64,o),
(121,0,o),
(214,0,cs)
);
}
);
vertWidth = 0;
width = 518;
}
);
unicode = 54;
},
{
color = 6;
glyphname = seven;
layers = (
{
layerId = m01;
shapes = (
{
closed = 1;
nodes = (
(109,0,o),
(119,7,o),
(131,29,cs),
(525,720,l),
(544,756,o),
(535,772,o),
(504,772,c),
(183,772,ls),
(162,772,o),
(151,759,o),
(151,746,cs),
(151,732,o),
(162,719,o),
(183,719,cs),
(499,719,l),
(476,751,l),
(78,52,ls),
(56,13,o),
(80,0,o),
(95,0,cs)
);
}
);
vertWidth = 0;
width = 492;
},
{
layerId = "6449507E-FEE0-4D4A-A81F-7CAB6A5803D5";
shapes = (
{
closed = 1;
nodes = (
(181,0,o),
(200,14,o),
(220,51,cs),
(574,671,ls),
(618,748,o),
(579,765,o),
(526,765,cs),
(239,765,ls),
(194,765,o),
(178,734,o),
(178,709,cs),
(178,682,o),
(195,653,o),
(239,653,cs),
(499,653,l),
(466,708,l),
(121,103,ls),
(75,23,o),
(118,0,o),
(152,0,cs)
);
}
);
vertWidth = 0;
width = 520;
}
);
unicode = 55;
},
{
color = 6;
glyphname = eight;
layers = (
{
layerId = m01;
shapes = (
{
closed = 1;
nodes = (
(247,0,o),
(337,83,o),
(365,195,cs),
(385,277,o),
(346,365,o),
(261,425,c),
(226,379,l),
(290,334,o),
(320,266,o),
(304,200,cs),
(284,116,o),
(223,55,o),
(153,55,cs),
(90,55,o),
(55,108,o),
(70,181,cs),
(86,248,o),
(149,317,o),
(257,383,cs),
(365,449,o),
(430,522,o),
(449,598,cs),
(474,697,o),
(417,772,o),
(316,772,cs),
(229,772,o),
(152,726,o),
(126,623,cs),
(105,537,o),
(140,447,o),
(221,387,c),
(257,431,l),
(196,474,o),
(170,545,o),
(187,619,cs),
(203,687,o),
(257,719,o),
(305,719,cs),
(371,719,o),
(406,666,o),
(390,598,cs),
(375,544,o),
(321,488,o),
(226,430,cs),
(102,355,o),
(30,271,o),
(10,179,cs),
(-14,77,o),
(45,0,o),
(146,0,cs)
);
}
);
vertWidth = 0;
width = 459;
},
{
layerId = "6449507E-FEE0-4D4A-A81F-7CAB6A5803D5";
shapes = (
{
closed = 1;
nodes = (
(314,0,o),
(411,84,o),
(440,203,cs),
(461,290,o),
(423,384,o),
(333,449,c),
(261,353,l),
(309,321,o),
(331,272,o),
(321,222,cs),
(307,164,o),
(266,115,o),
(214,115,cs),
(176,115,o),
(162,152,o),
(170,191,cs),
(183,247,o),
(238,302,o),
(326,355,cs),
(435,422,o),
(498,495,o),
(517,571,cs),
(545,687,o),
(479,772,o),
(364,772,cs),
(270,772,o),
(187,722,o),
(158,611,cs),
(135,520,o),
(171,424,o),
(257,361,c),
(328,454,l),
(283,486,o),
(265,538,o),
(277,592,cs),
(287,636,o),
(321,658,o),
(354,658,cs),
(392,658,o),
(409,625,o),
(399,587,cs),
(388,544,o),
(340,501,o),
(264,454,cs),
(140,380,o),
(71,295,o),
(51,204,cs),
(24,87,o),
(93,0,o),
(208,0,cs)
);
}
);
vertWidth = 0;
width = 495;
}
);
unicode = 56;
},
{
color = 6;
glyphname = nine;
layers = (
{
layerId = m01;
shapes = (
{
closed = 1;
nodes = (
(341,0,o),
(348,15,o),
(350,27,cs),
(513,690,ls),
(518,712,o),
(512,729,o),
(492,729,cs),
(469,729,o),
(460,719,o),
(455,700,cs),
(290,34,ls),
(285,17,o),
(293,0,o),
(315,0,cs)
);
},
{
closed = 1;
nodes = (
(309,292,o),
(446,422,o),
(488,595,cs),
(512,689,o),
(476,772,o),
(391,772,cs),
(260,772,o),
(125,643,o),
(81,469,cs),
(53,360,o),
(91,292,o),
(178,292,cs)
);
},
{
closed = 1;
nodes = (
(141,346,o),
(124,393,o),
(143,469,cs),
(177,612,o),
(282,719,o),
(378,719,cs),
(432,719,o),
(442,661,o),
(426,595,cs),
(393,453,o),
(287,347,o),
(191,346,cs)
);
}
);
vertWidth = 0;
width = 538;
},
{
layerId = "6449507E-FEE0-4D4A-A81F-7CAB6A5803D5";
shapes = (
{
closed = 1;
nodes = (
(412,0,o),
(424,30,o),
(429,51,cs),
(577,657,ls),
(589,709,o),
(564,733,o),
(526,733,cs),
(487,733,o),
(469,715,o),
(461,681,cs),
(310,72,ls),
(299,33,o),
(320,0,o),
(364,0,cs)
);
},
{
closed = 1;
nodes = (
(369,267,o),
(451,393,o),
(495,570,cs),
(525,687,o),
(530,772,o),
(434,772,cs),
(303,772,o),
(163,646,o),
(118,470,cs),
(84,335,o),
(141,267,o),
(239,267,cs)
);
},
{
closed = 1;
nodes = (
(220,381,o),
(233,434,o),
(238,454,cs),
(265,565,o),
(343,658,o),
(422,658,cs),
(456,658,o),
(441,602,o),
(437,584,cs),
(411,473,o),
(328,383,o),
(251,381,cs)
);
}
);
vertWidth = 0;
width = 576;
}
);
unicode = 57;
},
{
color = 6;
glyphname = .notdef;
layers = (
{
layerId = m01;
shapes = (
{
closed = 1;
nodes = (
(455,0,ls),
(468,0,o),
(481,14,o),
(486,32,cs),
(672,800,ls),
(677,819,o),
(668,832,o),
(651,832,cs),
(248,832,ls),
(228,832,o),
(216,819,o),
(211,800,cs),
(21,32,ls),
(17,14,o),
(27,0,o),
(50,0,cs)
);
},
{
closed = 1;
nodes = (
(276,813,l),
(232,778,l),
(642,778,l),
(614,813,l),
(421,19,l),
(465,53,l),
(50,53,l),
(77,19,l)
);
}
);
vertWidth = 0;
width = 674;
},
{
layerId = "6449507E-FEE0-4D4A-A81F-7CAB6A5803D5";
shapes = (
{
closed = 1;
nodes = (
(557,0,ls),
(580,0,o),
(607,19,o),
(615,53,cs),
(792,762,ls),
(804,807,o),
(777,832,o),
(741,832,cs),
(308,832,ls),
(273,832,o),
(251,811,o),
(241,777,cs),
(65,70,ls),
(56,34,o),
(72,0,o),
(124,0,cs)
);
},
{
closed = 1;
nodes = (
(358,741,l),
(326,716,l),
(701,716,l),
(670,758,l),
(501,90,l),
(533,115,l),
(157,115,l),
(188,74,l)
);
}
);
vertWidth = 0;
width = 763;
}
);
},
{
color = 6;
glyphname = period;
kernLeft = period_left;
kernRight = period_right;
layers = (
{
layerId = m01;
shapes = (
{
closed = 1;
nodes = (
(93,0,o),
(114,21,o),
(114,46,cs),
(114,70,o),
(93,90,o),
(69,90,cs),
(44,90,o),
(25,70,o),
(25,46,cs),
(25,23,o),
(44,0,o),
(69,0,cs)
);
}
);
vertWidth = 0;
width = 299;
},
{
layerId = "6449507E-FEE0-4D4A-A81F-7CAB6A5803D5";
shapes = (
{
closed = 1;
nodes = (
(150,0,o),
(185,36,o),
(185,77,cs),
(185,116,o),
(150,150,o),
(110,150,cs),
(69,150,o),
(37,116,o),
(37,77,cs),
(37,36,o),
(69,0,o),
(110,0,cs)
);
}
);
vertWidth = 0;
width = 260;
}
);
unicode = 46;
},
{
color = 6;
glyphname = comma;
kernLeft = period_left;
kernRight = period_right;
layers = (
{
layerId = m01;
shapes = (
{
closed = 1;
nodes = (
(56,-87,o),
(69,-80,o),
(75,-58,cs),
(103,55,ls),
(109,80,o),
(93,90,o),
(77,90,cs),
(59,90,o),
(46,83,o),
(40,62,cs),
(12,-51,ls),
(6,-76,o),
(23,-87,o),
(38,-87,cs)
);
}
);
vertWidth = 0;
width = 299;
},
{
layerId = "6449507E-FEE0-4D4A-A81F-7CAB6A5803D5";
shapes = (
{
closed = 1;
nodes = (
(95,-94,o),
(120,-81,o),
(129,-44,cs),
(160,80,ls),
(175,134,o),
(135,153,o),
(103,153,cs),
(72,153,o),
(49,141,o),
(39,103,cs),
(8,-20,ls),
(-5,-74,o),
(33,-94,o),
(64,-94,cs)
);
}
);
vertWidth = 0;
width = 260;
}
);
unicode = 44;
},
{
color = 6;
glyphname = colon;
kernLeft = colon_left;
kernRight = colon_right;
layers = (
{
layerId = m01;
shapes = (
{
closed = 1;
nodes = (
(93,0,o),
(114,21,o),
(114,46,cs),
(114,70,o),
(93,90,o),
(69,90,cs),
(44,90,o),
(25,70,o),
(25,46,cs),
(25,23,o),
(44,0,o),
(69,0,cs)
);
},
{
closed = 1;
nodes = (
(173,324,o),
(195,346,o),
(195,371,cs),
(195,394,o),
(173,415,o),
(150,415,cs),
(125,415,o),
(106,394,o),
(106,371,cs),
(106,347,o),
(125,324,o),
(150,324,cs)
);
}
);
vertWidth = 0;
width = 299;
},
{
layerId = "6449507E-FEE0-4D4A-A81F-7CAB6A5803D5";
shapes = (
{
closed = 1;
nodes = (
(150,0,o),
(185,36,o),
(185,77,cs),
(185,116,o),
(150,150,o),
(110,150,cs),
(69,150,o),
(37,116,o),
(37,77,cs),
(37,36,o),
(69,0,o),
(110,0,cs)
);
},
{
closed = 1;
nodes = (
(203,277,o),
(239,312,o),
(239,354,cs),
(239,393,o),
(203,426,o),
(164,426,cs),
(122,426,o),
(90,393,o),
(90,354,cs),
(90,312,o),
(122,277,o),
(164,277,cs)
);
}
);
vertWidth = 0;
width = 260;
}
);
unicode = 58;
},
{
color = 6;
glyphname = semicolon;
kernLeft = colon_left;
kernRight = colon_right;
layers = (
{
layerId = m01;
shapes = (
{
closed = 1;
nodes = (
(56,-87,o),
(69,-80,o),
(75,-58,cs),
(103,55,ls),
(109,80,o),
(93,90,o),
(77,90,cs),
(59,90,o),
(46,83,o),
(40,62,cs),
(12,-51,ls),
(6,-76,o),
(23,-87,o),
(38,-87,cs)
);
},
{
closed = 1;
nodes = (
(173,324,o),
(195,346,o),
(195,371,cs),
(195,394,o),
(173,415,o),
(150,415,cs),
(125,415,o),
(106,394,o),
(106,371,cs),
(106,347,o),
(125,324,o),
(150,324,cs)
);
}
);
vertWidth = 0;
width = 299;
},
{
layerId = "6449507E-FEE0-4D4A-A81F-7CAB6A5803D5";
shapes = (
{
closed = 1;
nodes = (
(107,-94,o),
(132,-81,o),
(141,-44,cs),
(172,80,ls),
(187,134,o),
(147,153,o),
(115,153,cs),
(84,153,o),
(61,141,o),
(51,103,cs),
(20,-20,ls),
(7,-74,o),
(45,-94,o),
(76,-94,cs)
);
},
{
closed = 1;
nodes = (
(203,277,o),
(239,312,o),
(239,354,cs),
(239,393,o),
(203,426,o),
(164,426,cs),
(122,426,o),
(90,393,o),
(90,354,cs),
(90,312,o),
(122,277,o),
(164,277,cs)
);
}
);
vertWidth = 0;
width = 260;
}
);
unicode = 59;
},
{
color = 6;
glyphname = ellipsis;
layers = (
{
layerId = m01;
shapes = (
{
closed = 1;
nodes = (
(93,0,o),
(114,21,o),
(114,46,cs),
(114,70,o),
(93,90,o),
(69,90,cs),
(44,90,o),
(25,70,o),
(25,46,cs),
(25,23,o),
(44,0,o),
(69,0,cs)
);
},
{
closed = 1;
nodes = (
(259,0,o),
(280,21,o),
(280,46,cs),
(280,70,o),
(259,90,o),
(235,90,cs),
(210,90,o),
(191,70,o),
(191,46,cs),
(191,23,o),
(210,0,o),
(235,0,cs)
);
},
{
closed = 1;
nodes = (
(425,0,o),
(447,21,o),
(447,46,cs),
(447,70,o),
(425,90,o),
(402,90,cs),
(377,90,o),
(358,70,o),
(358,46,cs),
(358,23,o),
(377,0,o),
(402,0,cs)
);
}
);
vertWidth = 0;
width = 632;
},
{
layerId = "6449507E-FEE0-4D4A-A81F-7CAB6A5803D5";
shapes = (
{
closed = 1;
nodes = (
(134,0,o),
(170,36,o),
(170,77,cs),
(170,116,o),
(134,150,o),
(95,150,cs),
(53,150,o),
(21,116,o),
(21,77,cs),
(21,36,o),
(53,0,o),
(95,0,cs)
);
},
{
closed = 1;
nodes = (
(360,0,o),
(396,36,o),
(396,77,cs),
(396,116,o),
(360,150,o),
(321,150,cs),
(279,150,o),
(247,116,o),
(247,77,cs),
(247,36,o),
(279,0,o),
(321,0,cs)
);
},
{
closed = 1;
nodes = (
(586,0,o),
(621,36,o),
(621,77,cs),
(621,116,o),
(586,150,o),
(546,150,cs),
(505,150,o),
(473,116,o),
(473,77,cs),
(473,36,o),
(505,0,o),
(546,0,cs)
);
}
);
vertWidth = 0;
width = 712;
}
);
unicode = 8230;
},
{
color = 6;
glyphname = exclam;
layers = (
{
layerId = m01;
shapes = (
{
closed = 1;
nodes = (
(105,0,o),
(126,21,o),
(126,46,cs),
(126,70,o),
(105,90,o),
(81,90,cs),
(56,90,o),
(37,70,o),
(37,46,cs),
(37,23,o),
(56,0,o),
(81,0,cs)
);
},
{
closed = 1;
nodes = (
(139,208,o),
(154,215,o),
(160,238,cs),
(284,734,ls),
(290,759,o),
(278,772,o),
(259,772,cs),
(246,772,o),
(230,765,o),
(225,743,cs),
(101,246,ls),
(95,221,o),
(107,208,o),
(126,208,cs)
);
}
);
vertWidth = 0;
width = 323;
},
{
layerId = "6449507E-FEE0-4D4A-A81F-7CAB6A5803D5";
shapes = (
{
closed = 1;
nodes = (
(182,0,o),
(217,36,o),
(217,77,cs),
(217,116,o),
(182,150,o),
(143,150,cs),
(101,150,o),
(69,116,o),
(69,77,cs),
(69,36,o),
(101,0,o),
(143,0,cs)
);
},
{
closed = 1;
nodes = (
(206,209,o),
(235,220,o),
(246,261,cs),
(354,697,ls),
(367,752,o),
(336,772,o),
(299,772,cs),
(277,772,o),
(246,762,o),
(236,721,cs),
(128,285,ls),
(114,229,o),
(146,209,o),
(183,209,cs)
);
}
);
vertWidth = 0;
width = 355;
}
);
unicode = 33;
},
{
color = 6;
glyphname = exclamdown;
layers = (
{
layerId = m01;
shapes = (
{
closed = 1;
nodes = (
(276,682,o),
(295,702,o),
(295,726,cs),
(295,750,o),
(276,772,o),
(251,772,cs),
(227,772,o),
(206,751,o),
(206,726,cs),
(206,702,o),
(227,682,o),
(251,682,cs)
);
},
{
closed = 1;
nodes = (
(86,0,o),
(101,7,o),
(107,30,cs),
(230,526,ls),
(236,551,o),
(225,564,o),
(206,564,cs),
(192,564,o),
(177,557,o),
(171,535,cs),
(48,38,ls),
(42,13,o),
(53,0,o),
(72,0,cs)
);
}
);
vertWidth = 0;
width = 323;
},
{
layerId = "6449507E-FEE0-4D4A-A81F-7CAB6A5803D5";
shapes = (
{
closed = 1;
nodes = (
(329,623,o),
(361,656,o),
(361,695,cs),
(361,737,o),
(329,772,o),
(287,772,cs),
(248,772,o),
(213,737,o),
(213,695,cs),
(213,656,o),
(248,623,o),
(287,623,cs)
);
},
{
closed = 1;
nodes = (
(153,0,o),
(184,11,o),
(194,51,cs),
(302,487,ls),
(316,543,o),
(284,563,o),
(247,563,cs),
(225,563,o),
(195,552,o),
(184,511,cs),
(76,75,ls),
(63,20,o),
(94,0,o),
(131,0,cs)
);
}
);
vertWidth = 0;
width = 355;
}
);
unicode = 161;
},
{
color = 6;
glyphname = question;
layers = (
{
layerId = m01;
shapes = (
{
closed = 1;
nodes = (
(182,0,o),
(203,21,o),
(203,46,cs),
(203,70,o),
(182,90,o),
(158,90,cs),
(133,90,o),
(114,70,o),
(114,46,cs),
(114,23,o),
(133,0,o),
(158,0,cs)
);
},
{
closed = 1;
nodes = (
(200,208,o),
(215,215,o),
(221,238,cs),
(249,354,l),
(225,333,l),
(383,333,o),
(505,450,o),
(504,608,cs),
(503,709,o),
(438,772,o),
(335,772,cs),
(230,772,o),
(140,700,o),
(109,581,cs),
(103,556,o),
(115,543,o),
(134,543,cs),
(147,543,o),
(163,550,o),
(169,573,cs),
(191,663,o),
(252,719,o),
(335,719,cs),
(404,719,o),
(447,674,o),
(447,601,cs),
(447,480,o),
(361,387,o),
(246,387,cs),
(209,387,o),
(195,375,o),
(188,348,cs),
(162,246,ls),
(156,221,o),
(168,208,o),
(187,208,cs)
);
}
);
vertWidth = 0;
width = 504;
},
{
layerId = "6449507E-FEE0-4D4A-A81F-7CAB6A5803D5";
shapes = (
{
closed = 1;
nodes = (
(252,0,o),
(287,36,o),
(287,77,cs),
(287,116,o),
(252,150,o),
(213,150,cs),
(171,150,o),
(139,116,o),
(139,77,cs),
(139,36,o),
(171,0,o),
(213,0,cs)
);
},
{
closed = 1;
nodes = (
(272,208,o),
(303,219,o),
(312,260,cs),
(329,329,l),
(298,304,l),
(426,304,o),
(533,394,o),
(567,531,cs),
(601,671,o),
(523,772,o),
(388,772,cs),
(270,772,o),
(175,697,o),
(143,573,cs),
(129,518,o),
(160,497,o),
(196,497,cs),
(220,497,o),
(248,507,o),
(260,549,cs),
(276,614,o),
(318,658,o),
(380,658,cs),
(437,658,o),
(462,608,o),
(448,550,cs),
(429,473,o),
(373,416,o),
(299,416,cs),
(241,416,o),
(223,399,o),
(214,360,cs),
(195,284,ls),
(181,228,o),
(213,208,o),
(249,208,cs)
);
}
);
vertWidth = 0;
width = 542;
}
);
unicode = 63;
},
{
color = 6;
glyphname = questiondown;
layers = (
{
layerId = m01;
shapes = (
{
closed = 1;
nodes = (
(287,0,o),
(378,72,o),
(409,191,cs),
(415,216,o),
(403,229,o),
(384,229,cs),
(371,229,o),
(355,222,o),
(349,200,cs),
(327,109,o),
(266,53,o),
(183,53,cs),
(114,53,o),
(71,99,o),
(71,171,cs),
(71,292,o),
(157,385,o),
(272,385,cs),
(309,385,o),
(323,397,o),
(330,424,cs),
(356,526,ls),
(362,551,o),
(350,564,o),
(331,564,cs),
(318,564,o),
(303,557,o),
(297,535,cs),
(268,418,l),
(293,440,l),
(135,440,o),
(13,322,o),
(14,164,cs),
(15,63,o),
(80,0,o),
(183,0,cs)
);
},
{
closed = 1;
nodes = (
(385,682,o),
(404,702,o),
(404,726,cs),
(404,750,o),
(385,772,o),
(360,772,cs),
(336,772,o),
(315,751,o),
(315,726,cs),
(315,702,o),
(336,682,o),
(360,682,cs)
);
}
);
vertWidth = 0;
width = 504;
},
{
layerId = "6449507E-FEE0-4D4A-A81F-7CAB6A5803D5";
shapes = (
{
closed = 1;
nodes = (
(358,0,o),
(453,75,o),
(485,200,cs),
(498,254,o),
(467,276,o),
(431,276,cs),
(407,276,o),
(379,265,o),
(367,223,cs),
(352,158,o),
(309,114,o),
(247,114,cs),
(190,114,o),
(165,164,o),
(179,222,cs),
(198,299,o),
(254,356,o),
(328,356,cs),
(386,356,o),
(404,373,o),
(413,412,cs),
(432,488,ls),
(447,544,o),
(415,564,o),
(378,564,cs),
(355,564,o),
(324,554,o),
(315,512,cs),
(298,443,l),
(329,468,l),
(201,468,o),
(94,378,o),
(61,241,cs),
(26,101,o),
(105,0,o),
(239,0,cs)
);
},
{
closed = 1;
nodes = (
(456,623,o),
(488,656,o),
(488,695,cs),
(488,737,o),
(456,772,o),
(415,772,cs),
(375,772,o),
(340,737,o),
(340,695,cs),
(340,656,o),
(375,623,o),
(415,623,cs)
);
}
);
vertWidth = 0;
width = 542;
}
);
unicode = 191;
},
{
color = 6;
glyphname = periodcentered;
layers = (
{
layerId = m01;
shapes = (
{
closed = 1;
nodes = (
(145,209,o),
(166,230,o),
(166,255,cs),
(166,279,o),
(145,299,o),
(121,299,cs),
(96,299,o),
(77,279,o),
(77,255,cs),
(77,232,o),
(96,209,o),
(121,209,cs)
);
}
);
vertWidth = 0;
width = 299;
},
{
layerId = "6449507E-FEE0-4D4A-A81F-7CAB6A5803D5";
shapes = (
{
closed = 1;
nodes = (
(178,177,o),
(214,213,o),
(214,254,cs),
(214,293,o),
(178,327,o),
(139,327,cs),
(97,327,o),
(65,293,o),
(65,254,cs),
(65,213,o),
(97,177,o),
(139,177,cs)
);
}
);
vertWidth = 0;
width = 260;
}
);
unicode = 183;
},
{
color = 6;
glyphname = bullet;
layers = (
{
layerId = m01;
shapes = (
{
closed = 1;
nodes = (
(254,330,o),
(298,373,o),
(298,422,cs),
(298,470,o),
(255,511,o),
(208,511,cs),
(158,511,o),
(120,469,o),
(120,422,cs),
(120,375,o),
(157,330,o),
(207,330,cs)
);
}
);
vertWidth = 0;
width = 392;
},
{
layerId = "6449507E-FEE0-4D4A-A81F-7CAB6A5803D5";
shapes = (
{
closed = 1;
nodes = (
(308,307,o),
(364,361,o),
(364,422,cs),
(364,484,o),
(309,535,o),
(249,535,cs),
(187,535,o),
(138,482,o),
(138,422,cs),
(138,362,o),
(187,307,o),
(249,307,cs)
);
}
);
vertWidth = 0;
width = 392;
}
);
unicode = 8226;
},
{
color = 6;
glyphname = asterisk;
layers = (
{
layerId = m01;
shapes = (
{
closed = 1;
nodes = (
(303,451,o),
(308,466,o),
(308,489,cs),
(308,770,ls),
(308,794,o),
(303,808,o),
(285,808,cs),
(265,808,o),
(261,794,o),
(261,770,cs),
(261,489,ls),
(261,466,o),
(266,451,o),
(284,451,cs)
);
},
{
closed = 1;
nodes = (
(430,734,o),
(416,731,o),
(396,719,cs),
(152,579,ls),
(132,567,o),
(122,556,o),
(131,541,cs),
(141,523,o),
(154,527,o),
(176,539,cs),
(418,680,ls),
(440,691,o),
(449,702,o),
(440,718,cs)
);
},
{
closed = 1;
nodes = (
(122,703,o),
(132,693,o),
(152,681,cs),
(396,541,ls),
(416,529,o),
(430,525,o),
(440,541,cs),
(449,558,o),
(440,568,o),
(418,580,cs),
(176,720,ls),
(154,732,o),
(140,735,o),
(132,720,cs)
);
}
);
vertWidth = 0;
width = 436;
},
{
layerId = "6449507E-FEE0-4D4A-A81F-7CAB6A5803D5";
shapes = (
{
closed = 1;
nodes = (
(350,451,o),
(358,463,o),
(358,513,cs),
(358,746,ls),
(358,797,o),
(349,808,o),
(321,808,cs),
(289,808,o),
(283,796,o),
(283,746,cs),
(283,513,ls),
(283,462,o),
(291,451,o),
(320,451,cs)
);
},
{
closed = 1;
nodes = (
(460,744,o),
(446,745,o),
(403,720,cs),
(202,603,ls),
(157,578,o),
(152,565,o),
(166,541,cs),
(182,513,o),
(196,514,o),
(239,539,cs),
(441,655,ls),
(485,680,o),
(490,693,o),
(476,718,cs)
);
},
{
closed = 1;
nodes = (
(152,693,o),
(158,681,o),
(202,656,cs),
(403,540,ls),
(447,514,o),
(461,516,o),
(475,541,cs),
(491,568,o),
(484,579,o),
(441,604,cs),
(239,721,ls),
(195,746,o),
(181,744,o),
(167,720,cs)
);
}
);
vertWidth = 0;
width = 436;
}
);
unicode = 42;
},
{
color = 6;
glyphname = numbersign;
layers = (
{
layerId = m01;
shapes = (
{
closed = 1;
nodes = (
(738,254,ls),
(758,254,o),
(769,268,o),
(769,282,cs),
(769,295,o),
(759,308,o),
(738,308,cs),
(114,308,ls),
(93,308,o),
(83,295,o),
(83,282,cs),
(83,268,o),
(94,254,o),
(114,254,cs)
);
},
{
closed = 1;
nodes = (
(789,465,ls),
(810,465,o),
(821,478,o),
(821,491,cs),
(821,504,o),
(810,518,o),
(789,518,cs),
(168,518,ls),
(146,518,o),
(135,504,o),
(135,491,cs),
(135,478,o),
(146,465,o),
(168,465,cs)
);
},
{
closed = 1;
nodes = (
(248,0,o),
(254,15,o),
(258,27,cs),
(479,733,ls),
(486,754,o),
(478,772,o),
(457,772,cs),
(435,772,o),
(426,762,o),
(421,743,cs),
(197,34,ls),
(191,17,o),
(201,0,o),
(222,0,cs)
);
},
{
closed = 1;
nodes = (
(474,0,o),
(480,15,o),
(484,27,cs),
(704,733,ls),
(712,754,o),
(703,772,o),
(683,772,cs),
(661,772,o),
(652,762,o),
(646,743,cs),
(423,34,ls),
(417,17,o),
(426,0,o),
(448,0,cs)
);
}
);
vertWidth = 0;
width = 896;
},
{
layerId = "6449507E-FEE0-4D4A-A81F-7CAB6A5803D5";
shapes = (
{
closed = 1;
nodes = (
(743,233,ls),
(785,233,o),
(803,265,o),
(803,290,cs),
(803,316,o),
(789,347,o),
(743,347,cs),
(171,347,ls),
(125,347,o),
(110,316,o),
(110,290,c),
(110,265,o),
(128,233,o),
(171,233,cs)
);
},
{
closed = 1;
nodes = (
(789,425,ls),
(835,425,o),
(851,456,o),
(851,482,cs),
(851,507,o),
(834,539,o),
(789,539,cs),
(220,539,ls),
(175,539,o),
(158,507,o),
(158,482,cs),
(158,456,o),
(173,425,o),
(220,425,cs)
);
},
{
closed = 1;
nodes = (
(336,0,o),
(347,30,o),
(352,51,cs),
(510,696,ls),
(522,748,o),
(497,772,o),
(459,772,cs),
(419,772,o),
(402,754,o),
(393,720,cs),
(233,72,ls),
(222,33,o),
(242,0,o),
(287,0,cs)
);
},
{
closed = 1;
nodes = (
(552,0,o),
(563,30,o),
(568,51,cs),
(726,696,ls),
(738,748,o),
(713,772,o),
(675,772,cs),
(636,772,o),
(618,754,o),
(609,720,cs),
(449,72,ls),
(438,33,o),
(459,0,o),
(504,0,cs)
);
}
);
vertWidth = 0;
width = 876;
}
);
unicode = 35;
},
{
color = 6;
glyphname = slash;
layers = (
{
layerId = m01;
shapes = (
{
closed = 1;
nodes = (
(64,0,o),
(75,12,o),
(84,27,cs),
(488,720,ls),
(505,747,o),
(494,772,o),
(469,772,cs),
(454,772,o),
(443,760,o),
(434,745,cs),
(30,52,ls),
(13,25,o),
(24,0,o),
(49,0,cs)
);
}
);
vertWidth = 0;
width = 479;
},
{
layerId = "6449507E-FEE0-4D4A-A81F-7CAB6A5803D5";
shapes = (
{
closed = 1;
nodes = (
(110,0,o),
(131,14,o),
(147,40,cs),
(517,675,ls),
(556,740,o),
(514,772,o),
(472,772,cs),
(448,772,o),
(428,758,o),
(411,732,cs),
(42,97,ls),
(2,32,o),
(44,0,o),
(87,0,cs)
);
}
);
vertWidth = 0;
width = 479;
}
);
unicode = 47;
},
{
color = 6;
glyphname = backslash;
layers = (
{
layerId = m01;
shapes = (
{
closed = 1;
nodes = (
(343,0,o),
(355,18,o),
(350,40,cs),
(188,745,ls),
(184,759,o),
(179,772,o),
(159,772,cs),
(139,772,o),
(127,754,o),
(132,732,cs),
(295,27,ls),
(298,13,o),
(303,0,o),
(323,0,cs)
);
}
);
vertWidth = 0;
width = 479;
},
{
layerId = "6449507E-FEE0-4D4A-A81F-7CAB6A5803D5";
shapes = (
{
closed = 1;
nodes = (
(391,0,o),
(419,30,o),
(410,76,cs),
(261,722,ls),
(253,751,o),
(240,772,o),
(203,772,cs),
(165,772,o),
(137,743,o),
(146,696,cs),
(295,50,ls),
(303,21,o),
(316,0,o),
(353,0,cs)
);
}
);
vertWidth = 0;
width = 479;
}
);
unicode = 92;
},
{
color = 6;
glyphname = hyphen;
kernLeft = hyphen_left;
kernRight = hyphen_right;
layers = (
{
layerId = m01;
shapes = (
{
closed = 1;
nodes = (
(259,210,ls),
(282,210,o),
(296,220,o),
(296,238,cs),
(296,255,o),
(283,265,o),
(261,265,cs),
(86,265,ls),
(63,265,o),
(49,255,o),
(49,238,cs),
(49,220,o),
(62,210,o),
(83,210,cs)
);
}
);
vertWidth = 0;
width = 402;
},
{
layerId = "6449507E-FEE0-4D4A-A81F-7CAB6A5803D5";
shapes = (
{
closed = 1;
nodes = (
(315,183,ls),
(358,183,o),
(384,204,o),
(384,238,cs),
(384,270,o),
(361,290,o),
(326,290,cs),
(153,290,ls),
(110,290,o),
(84,268,o),
(84,235,cs),
(84,203,o),
(107,183,o),
(143,183,cs)
);
}
);
vertWidth = 0;
width = 454;
}
);
unicode = 45;
},
{
color = 6;
glyphname = endash;
kernLeft = hyphen_left;
kernRight = hyphen_right;
layers = (
{
layerId = m01;
shapes = (
{
closed = 1;
nodes = (
(318,210,ls),
(341,210,o),
(355,220,o),
(355,238,cs),
(355,255,o),
(342,265,o),
(321,265,cs),
(86,265,ls),
(63,265,o),
(49,255,o),
(49,238,cs),
(49,220,o),
(62,210,o),
(83,210,cs)
);
}
);
vertWidth = 0;
width = 461;
},
{
layerId = "6449507E-FEE0-4D4A-A81F-7CAB6A5803D5";
shapes = (
{
closed = 1;
nodes = (
(411,183,ls),
(454,183,o),
(480,204,o),
(480,238,cs),
(480,270,o),
(457,290,o),
(422,290,cs),
(153,290,ls),
(110,290,o),
(84,268,o),
(84,235,cs),
(84,203,o),
(107,183,o),
(143,183,cs)
);
}
);
vertWidth = 0;
width = 550;
}
);
unicode = 8211;
},
{
color = 6;
glyphname = emdash;
kernLeft = hyphen_left;
kernRight = hyphen_right;
layers = (
{
layerId = m01;
shapes = (
{
closed = 1;
nodes = (
(497,210,ls),
(519,210,o),
(533,220,o),
(533,238,cs),
(533,255,o),
(520,265,o),
(499,265,cs),
(86,265,ls),
(63,265,o),
(49,255,o),
(49,238,cs),
(49,220,o),
(62,210,o),
(83,210,cs)
);
}
);
vertWidth = 0;
width = 639;
},
{
layerId = "6449507E-FEE0-4D4A-A81F-7CAB6A5803D5";
shapes = (
{
closed = 1;
nodes = (
(520,183,ls),
(563,183,o),
(589,204,o),
(589,238,cs),
(589,270,o),
(567,290,o),
(531,290,cs),
(153,290,ls),
(110,290,o),
(84,268,o),
(84,235,cs),
(84,203,o),
(107,183,o),
(143,183,cs)
);
}
);
vertWidth = 0;
width = 659;
}
);
unicode = 8212;
},
{
color = 6;
glyphname = underscore;
kernLeft = hyphen_left;
kernRight = hyphen_right;
layers = (
{
layerId = m01;
shapes = (
{
closed = 1;
nodes = (
(322,-95,ls),
(345,-95,o),
(359,-86,o),
(359,-68,cs),
(359,-50,o),
(346,-40,o),
(324,-40,cs),
(30,-40,ls),
(7,-40,o),
(-7,-50,o),
(-7,-68,cs),
(-7,-86,o),
(6,-95,o),
(27,-95,cs)
);
}
);
vertWidth = 0;
width = 520;
},
{
layerId = "6449507E-FEE0-4D4A-A81F-7CAB6A5803D5";
shapes = (
{
closed = 1;
nodes = (
(356,-116,ls),
(399,-116,o),
(425,-95,o),
(425,-62,cs),
(425,-30,o),
(403,-10,o),
(367,-10,cs),
(99,-10,ls),
(56,-10,o),
(30,-31,o),
(30,-64,cs),
(30,-96,o),
(52,-116,o),
(88,-116,cs)
);
}
);
vertWidth = 0;
width = 551;
}
);
unicode = 95;
},
{
color = 6;
glyphname = parenleft;
layers = (
{
layerId = m01;
shapes = (
{
closed = 1;
nodes = (
(171,-229,o),
(179,-213,o),
(168,-191,cs),
(122,-106,o),
(101,-11,o),
(101,94,cs),
(101,323,o),
(228,571,o),
(396,721,cs),
(412,735,o),
(416,752,o),
(405,764,cs),
(396,775,o),
(377,773,o),
(359,758,cs),
(179,604,o),
(42,348,o),
(42,94,cs),
(42,-11,o),
(65,-115,o),
(119,-213,cs),
(129,-233,o),
(143,-241,o),
(157,-235,cs)
);
}
);
vertWidth = 0;
width = 425;
},
{
layerId = "6449507E-FEE0-4D4A-A81F-7CAB6A5803D5";
shapes = (
{
closed = 1;
nodes = (
(229,-220,o),
(254,-190,o),
(228,-144,cs),
(189,-70,o),
(170,14,o),
(170,106,cs),
(170,310,o),
(284,532,o),
(434,665,cs),
(470,697,o),
(466,729,o),
(446,752,cs),
(428,771,o),
(394,784,o),
(355,750,cs),
(182,600,o),
(49,352,o),
(49,106,cs),
(49,2,o),
(71,-100,o),
(125,-196,cs),
(147,-240,o),
(176,-242,o),
(202,-232,cs)
);
}
);
vertWidth = 0;
width = 405;
}
);
unicode = 40;
},
{
color = 6;
glyphname = parenright;
layers = (
{
layerId = m01;
shapes = (
{
closed = 1;
nodes = (
(176,-70,o),
(314,185,o),
(314,440,cs),
(314,544,o),
(290,649,o),
(236,746,cs),
(226,766,o),
(213,775,o),
(198,769,cs),
(184,763,o),
(176,746,o),
(188,725,cs),
(233,639,o),
(254,544,o),
(254,440,cs),
(254,210,o),
(127,-38,o),
(-40,-188,cs),
(-57,-202,o),
(-61,-219,o),
(-50,-230,cs),
(-40,-241,o),
(-21,-240,o),
(-4,-225,cs)
);
}
);
vertWidth = 0;
width = 425;
},
{
layerId = "6449507E-FEE0-4D4A-A81F-7CAB6A5803D5";
shapes = (
{
closed = 1;
nodes = (
(238,-67,o),
(371,182,o),
(371,428,cs),
(371,531,o),
(348,633,o),
(295,729,cs),
(272,773,o),
(244,776,o),
(217,765,cs),
(190,753,o),
(165,723,o),
(191,677,cs),
(230,604,o),
(249,519,o),
(249,428,cs),
(249,223,o),
(135,1,o),
(-14,-132,cs),
(-51,-164,o),
(-46,-196,o),
(-26,-219,cs),
(-8,-238,o),
(25,-251,o),
(64,-216,cs)
);
}
);
vertWidth = 0;
width = 405;
}
);
unicode = 41;
},
{
color = 6;
glyphname = braceleft;
layers = (
{
guides = (
{
name = " [#dLwT1o6isy]";
pos = (226,246);
}
);
layerId = m01;
shapes = (
{
closed = 1;
nodes = (
(140,-247,o),
(156,-249,o),
(166,-239,cs),
(178,-227,o),
(178,-213,o),
(164,-200,cs),
(109,-147,o),
(75,-89,o),
(75,-49,cs),
(75,13,o),
(134,87,o),
(134,144,cs),
(134,185,o),
(120,230,o),
(77,292,c),
(68,242,l),
(160,304,o),
(198,373,o),
(198,441,cs),
(198,516,o),
(214,586,o),
(240,623,cs),
(266,662,o),
(318,694,o),
(391,722,cs),
(406,728,o),
(413,740,o),
(409,756,cs),
(404,770,o),
(391,775,o),
(372,767,cs),
(289,739,o),
(225,694,o),
(191,646,cs),
(159,599,o),
(139,523,o),
(139,449,cs),
(139,403,o),
(120,343,o),
(74,309,cs),
(55,295,o),
(42,285,o),
(38,271,cs),
(36,259,o),
(40,247,o),
(55,228,cs),
(69,208,o),
(76,177,o),
(76,150,cs),
(76,94,o),
(15,21,o),
(15,-43,cs),
(15,-102,o),
(57,-176,o),
(125,-234,cs)
);
}
);
vertWidth = 0;
width = 425;
},
{
guides = (
{
name = " [#dLwT1o6isy]";
pos = (286,246);
}
);
layerId = "6449507E-FEE0-4D4A-A81F-7CAB6A5803D5";
shapes = (
{
closed = 1;
nodes = (
(195,-254,o),
(223,-248,o),
(244,-228,cs),
(270,-203,o),
(272,-172,o),
(241,-144,cs),
(200,-103,o),
(169,-59,o),
(169,-27,cs),
(169,30,o),
(223,99,o),
(223,152,cs),
(223,197,o),
(208,235,o),
(183,270,c),
(175,247,l),
(244,292,o),
(284,355,o),
(284,429,cs),
(284,491,o),
(295,549,o),
(316,579,cs),
(339,612,o),
(383,637,o),
(442,661,cs),
(475,674,o),
(489,700,o),
(479,732,cs),
(469,762,o),
(446,782,o),
(400,764,cs),
(316,735,o),
(251,688,o),
(216,639,cs),
(183,590,o),
(162,512,o),
(162,436,cs),
(162,403,o),
(149,358,o),
(114,333,cs),
(88,312,o),
(74,297,o),
(69,278,cs),
(65,259,o),
(69,240,o),
(90,210,cs),
(100,197,o),
(103,176,o),
(103,157,cs),
(103,106,o),
(46,38,o),
(46,-23,cs),
(46,-84,o),
(88,-164,o),
(160,-226,cs)
);
}
);
vertWidth = 0;
width = 430;
}
);
unicode = 123;
},
{
color = 6;
glyphname = braceright;
layers = (
{
layerId = m01;
shapes = (
{
closed = 1;
nodes = (
(69,-214,o),
(133,-169,o),
(166,-121,cs),
(198,-74,o),
(219,2,o),
(219,76,cs),
(219,122,o),
(238,182,o),
(284,216,cs),
(303,230,o),
(316,240,o),
(320,254,cs),
(322,266,o),
(317,278,o),
(303,297,cs),
(289,317,o),
(282,348,o),
(282,375,cs),
(282,431,o),
(342,504,o),
(342,568,cs),
(342,627,o),
(301,701,o),
(233,759,cs),
(217,772,o),
(202,775,o),
(191,764,cs),
(179,752,o),
(179,738,o),
(194,725,cs),
(248,672,o),
(283,614,o),
(283,574,cs),
(283,512,o),
(223,438,o),
(223,381,cs),
(223,340,o),
(238,295,o),
(280,233,c),
(290,283,l),
(197,221,o),
(159,152,o),
(159,84,cs),
(159,10,o),
(144,-61,o),
(118,-97,cs),
(91,-137,o),
(39,-169,o),
(-33,-197,cs),
(-49,-203,o),
(-56,-215,o),
(-51,-230,cs),
(-46,-245,o),
(-33,-249,o),
(-14,-242,cs)
);
}
);
vertWidth = 0;
width = 425;
},
{
layerId = "6449507E-FEE0-4D4A-A81F-7CAB6A5803D5";
shapes = (
{
closed = 1;
nodes = (
(127,-209,o),
(192,-163,o),
(227,-114,cs),
(260,-65,o),
(282,13,o),
(282,89,cs),
(282,122,o),
(295,168,o),
(329,192,cs),
(355,213,o),
(371,228,o),
(374,247,cs),
(378,265,o),
(374,285,o),
(353,315,cs),
(343,328,o),
(340,349,o),
(340,368,cs),
(340,419,o),
(397,487,o),
(397,548,cs),
(397,609,o),
(355,689,o),
(283,751,cs),
(248,779,o),
(220,773,o),
(200,753,cs),
(173,728,o),
(171,697,o),
(202,669,cs),
(244,628,o),
(274,584,o),
(274,552,cs),
(274,495,o),
(220,426,o),
(220,373,cs),
(220,328,o),
(235,290,o),
(260,255,c),
(268,278,l),
(200,233,o),
(159,170,o),
(159,96,cs),
(159,34,o),
(149,-24,o),
(127,-53,cs),
(105,-87,o),
(61,-112,o),
(1,-135,cs),
(-32,-148,o),
(-46,-175,o),
(-36,-207,cs),
(-25,-238,o),
(-4,-257,o),
(42,-240,cs)
);
}
);
vertWidth = 0;
width = 431;
}
);
unicode = 125;
},
{
color = 6;
glyphname = bracketleft;
layers = (
{
layerId = m01;
shapes = (
{
closed = 1;
nodes = (
(147,-236,ls),
(168,-236,o),
(178,-222,o),
(178,-209,cs),
(178,-196,o),
(169,-183,o),
(147,-183,cs),
(-25,-183,l),
(2,-217,l),
(245,753,l),
(201,719,l),
(384,719,ls),
(404,719,o),
(415,732,o),
(416,745,cs),
(417,758,o),
(406,772,o),
(384,772,cs),
(220,772,ls),
(196,772,o),
(185,762,o),
(181,743,cs),
(-56,-203,ls),
(-59,-220,o),
(-52,-236,o),
(-30,-236,cs)
);
}
);
vertWidth = 0;
width = 425;
},
{
layerId = "6449507E-FEE0-4D4A-A81F-7CAB6A5803D5";
shapes = (
{
closed = 1;
nodes = (
(182,-236,ls),
(225,-236,o),
(244,-204,o),
(244,-177,cs),
(244,-151,o),
(229,-120,o),
(182,-120,cs),
(53,-120,l),
(87,-162,l),
(297,681,l),
(265,656,l),
(403,656,ls),
(444,656,o),
(463,684,o),
(466,710,cs),
(468,737,o),
(454,772,o),
(403,772,cs),
(249,772,ls),
(207,772,o),
(189,753,o),
(181,719,cs),
(-40,-164,ls),
(-49,-201,o),
(-32,-236,o),
(17,-236,cs)
);
}
);
vertWidth = 0;
width = 409;
}
);
unicode = 91;
},
{
color = 6;
glyphname = bracketright;
layers = (
{
layerId = m01;
shapes = (
{
closed = 1;
nodes = (
(140,-236,ls),
(164,-236,o),
(175,-226,o),
(179,-207,cs),
(416,739,ls),
(419,756,o),
(412,772,o),
(390,772,cs),
(213,772,ls),
(192,772,o),
(182,758,o),
(182,745,cs),
(182,732,o),
(191,719,o),
(213,719,cs),
(385,719,l),
(358,753,l),
(115,-217,l),
(159,-183,l),
(-24,-183,ls),
(-44,-183,o),
(-55,-196,o),
(-56,-209,cs),
(-57,-222,o),
(-46,-236,o),
(-24,-236,cs)
);
}
);
vertWidth = 0;
width = 425;
},
{
layerId = "6449507E-FEE0-4D4A-A81F-7CAB6A5803D5";
shapes = (
{
closed = 1;
nodes = (
(173,-236,ls),
(216,-236,o),
(234,-217,o),
(242,-183,cs),
(463,700,ls),
(472,737,o),
(455,772,o),
(406,772,cs),
(241,772,ls),
(198,772,o),
(179,740,o),
(179,713,cs),
(179,687,o),
(194,656,o),
(241,656,cs),
(369,656,l),
(336,697,l),
(126,-145,l),
(158,-120,l),
(20,-120,ls),
(-21,-120,o),
(-40,-148,o),
(-43,-175,cs),
(-45,-201,o),
(-31,-236,o),
(20,-236,cs)
);
}
);
vertWidth = 0;
width = 407;
}
);
unicode = 93;
},
{
color = 6;
glyphname = quotedbl;
kernLeft = quote_left;
kernRight = quote_right;
layers = (
{
layerId = m01;
shapes = (
{
closed = 1;
nodes = (
(195,537,o),
(210,544,o),
(215,563,cs),
(259,735,ls),
(265,758,o),
(248,772,o),
(233,772,cs),
(219,772,o),
(203,764,o),
(198,744,cs),
(154,573,ls),
(149,551,o),
(165,537,o),
(181,537,cs)
);
},
{
closed = 1;
nodes = (
(361,537,o),
(377,544,o),
(381,563,cs),
(425,735,ls),
(431,758,o),
(415,772,o),
(399,772,cs),
(385,772,o),
(369,764,o),
(365,744,cs),
(321,573,ls),
(315,551,o),
(331,537,o),
(347,537,cs)
);
}
);
vertWidth = 0;
width = 438;
},
{
layerId = "6449507E-FEE0-4D4A-A81F-7CAB6A5803D5";
shapes = (
{
closed = 1;
nodes = (
(253,481,o),
(276,499,o),
(283,522,cs),
(330,709,ls),
(340,745,o),
(321,772,o),
(278,772,cs),
(248,772,o),
(226,754,o),
(219,729,cs),
(171,543,ls),
(163,507,o),
(182,481,o),
(223,481,cs)
);
},
{
closed = 1;
nodes = (
(446,481,o),
(468,499,o),
(475,522,cs),
(524,709,ls),
(533,745,o),
(514,772,o),
(472,772,cs),
(442,772,o),
(419,754,o),
(412,729,cs),
(365,543,ls),
(356,507,o),
(375,481,o),
(417,481,cs)
);
}
);
vertWidth = 0;
width = 489;
}
);
unicode = 34;
},
{
color = 6;
glyphname = quotesingle;
kernLeft = quote_left;
kernRight = quote_right;
layers = (
{
layerId = m01;
shapes = (
{
closed = 1;
nodes = (
(195,537,o),
(210,544,o),
(215,563,cs),
(259,735,ls),
(265,758,o),
(248,772,o),
(233,772,cs),
(219,772,o),
(203,764,o),
(198,744,cs),
(154,573,ls),
(149,551,o),
(165,537,o),
(181,537,cs)
);
}
);
vertWidth = 0;
width = 272;
},
{
layerId = "6449507E-FEE0-4D4A-A81F-7CAB6A5803D5";
shapes = (
{
closed = 1;
nodes = (
(253,481,o),
(276,499,o),
(283,522,cs),
(330,709,ls),
(340,745,o),
(321,772,o),
(278,772,cs),
(248,772,o),
(226,754,o),
(219,729,cs),
(171,543,ls),
(163,507,o),
(182,481,o),
(223,481,cs)
);
}
);
vertWidth = 0;
width = 296;
}
);
unicode = 39;
},
{
color = 6;
glyphname = at;
layers = (
{
layerId = m01;
shapes = (
{
closed = 1;
nodes = (
(379,62,o),
(435,150,o),
(467,278,cs),
(498,402,o),
(482,482,o),
(403,482,cs),
(308,482,o),
(228,394,o),
(196,266,cs),
(165,143,o),
(204,62,o),
(284,62,cs)
);
},
{
closed = 1;
nodes = (
(249,115,o),
(233,163,o),
(255,255,cs),
(280,356,o),
(333,429,o),
(390,429,cs),
(437,429,o),
(454,381,o),
(431,289,cs),
(406,188,o),
(354,115,o),
(297,115,cs)
);
},
{
closed = 1;
nodes = (
(328,-95,o),
(386,-81,o),
(422,-71,cs),
(446,-65,o),
(450,-49,o),
(447,-34,cs),
(441,-15,o),
(418,-14,o),
(404,-19,cs),
(368,-30,o),
(317,-42,o),
(276,-42,cs),
(132,-42,o),
(50,91,o),
(90,254,cs),
(140,454,o),
(271,571,o),
(425,571,cs),
(570,571,o),
(652,457,o),
(614,297,cs),
(592,204,o),
(527,115,o),
(480,115,cs),
(461,115,o),
(459,156,o),
(475,220,cs),
(532,444,ls),
(537,463,o),
(532,478,o),
(512,478,cs),
(489,478,o),
(478,469,o),
(472,448,cs),
(417,233,ls),
(390,127,o),
(413,62,o),
(474,62,cs),
(549,62,o),
(643,173,o),
(674,298,cs),
(720,486,o),
(614,625,o),
(428,625,cs),
(241,625,o),
(87,487,o),
(31,265,cs),
(-20,58,o),
(89,-95,o),
(279,-95,cs)
);
}
);
vertWidth = 0;
width = 741;
},
{
layerId = "6449507E-FEE0-4D4A-A81F-7CAB6A5803D5";
shapes = (
{
closed = 1;
nodes = (
(454,58,o),
(491,147,o),
(524,272,cs),
(558,400,o),
(563,485,o),
(481,485,cs),
(390,485,o),
(304,405,o),
(272,277,cs),
(239,141,o),
(280,58,o),
(375,58,cs)
);
},
{
closed = 1;
nodes = (
(375,165,o),
(368,198,o),
(383,253,cs),
(402,330,o),
(438,378,o),
(479,378,cs),
(503,378,o),
(510,347,o),
(497,296,cs),
(476,215,o),
(440,165,o),
(400,165,cs)
);
},
{
closed = 1;
nodes = (
(405,-143,o),
(474,-132,o),
(531,-116,cs),
(575,-105,o),
(595,-76,o),
(584,-39,cs),
(574,-5,o),
(538,7,o),
(489,-10,cs),
(454,-21,o),
(402,-30,o),
(367,-30,cs),
(223,-30,o),
(147,93,o),
(188,255,cs),
(239,456,o),
(367,581,o),
(524,581,cs),
(663,581,o),
(739,469,o),
(704,318,cs),
(683,228,o),
(633,162,o),
(596,162,cs),
(579,162,o),
(584,195,o),
(589,213,cs),
(642,421,ls),
(652,463,o),
(634,485,o),
(596,485,cs),
(561,485,o),
(542,472,o),
(533,438,cs),
(482,238,ls),
(446,95,o),
(497,58,o),
(558,58,c),
(676,58,o),
(789,163,o),
(823,302,cs),
(880,526,o),
(753,694,o),
(527,694,cs),
(309,694,o),
(134,538,o),
(71,285,cs),
(11,40,o),
(138,-143,o),
(369,-143,cs)
);
}
);
vertWidth = 0;
width = 855;
}
);
unicode = 64;
},
{
color = 6;
glyphname = ampersand;
layers = (
{
guides = (
{
angle = 76;
name = " [#5Q9LBHOic4]";
pos = (224,422);
}
);
layerId = m01;
shapes = (
{
closed = 1;
nodes = (
(326,0,o),
(474,132,o),
(602,345,c),
(612,359,o),
(606,375,o),
(592,383,cs),
(577,390,o),
(561,385,o),
(550,369,c),
(434,175,o),
(301,53,o),
(206,53,cs),
(151,53,o),
(116,94,o),
(116,160,cs),
(116,241,o),
(181,327,o),
(308,412,cs),
(449,506,o),
(520,589,o),
(520,661,cs),
(520,729,o),
(468,772,o),
(385,772,cs),
(283,772,o),
(206,699,o),
(206,600,cs),
(206,550,o),
(236,491,o),
(274,422,cs),
(497,17,ls),
(503,5,o),
(526,-8,o),
(544,5,cs),
(560,17,o),
(555,34,o),
(546,49,cs),
(323,455,ls),
(291,513,o),
(265,558,o),
(265,611,cs),
(265,672,o),
(310,719,o),
(372,719,cs),
(430,719,o),
(461,693,o),
(461,652,cs),
(461,605,o),
(403,539,o),
(278,456,cs),
(133,361,o),
(57,258,o),
(57,151,cs),
(57,57,o),
(110,0,o),
(192,0,cs)
);
}
);
vertWidth = 0;
width = 745;
},
{
guides = (
{
angle = 76;
name = " [#5Q9LBHOic4]";
pos = (284,422);
}
);
layerId = "6449507E-FEE0-4D4A-A81F-7CAB6A5803D5";
shapes = (
{
closed = 1;
nodes = (
(372,0,o),
(519,121,o),
(646,331,cs),
(665,360,o),
(653,397,o),
(623,412,cs),
(596,425,o),
(562,421,o),
(543,390,cs),
(442,226,o),
(335,114,o),
(254,114,cs),
(221,114,o),
(206,143,o),
(206,179,cs),
(206,246,o),
(264,314,o),
(366,383,cs),
(511,479,o),
(575,565,o),
(575,638,cs),
(575,718,o),
(519,772,o),
(418,772,cs),
(305,772,o),
(221,690,o),
(221,582,cs),
(221,532,o),
(251,472,o),
(289,403,cs),
(492,32,ls),
(504,10,o),
(549,-14,o),
(583,11,cs),
(612,32,o),
(612,64,o),
(595,94,cs),
(391,465,ls),
(365,512,o),
(341,549,o),
(341,592,cs),
(341,630,o),
(368,658,o),
(406,658,cs),
(431,658,o),
(455,652,o),
(455,630,cs),
(455,592,o),
(399,542,o),
(303,478,cs),
(157,383,o),
(86,277,o),
(86,171,cs),
(86,62,o),
(150,0,o),
(242,0,cs)
);
}
);
vertWidth = 0;
width = 737;
}
);
unicode = 38;
},
{
color = 6;
glyphname = copyright;
layers = (
{
layerId = m01;
shapes = (
{
closed = 1;
nodes = (
(737,-95,o),
(944,113,o),
(944,368,cs),
(944,624,o),
(737,832,o),
(481,832,cs),
(226,832,o),
(18,624,o),
(18,368,cs),
(18,113,o),
(226,-95,o),
(481,-95,cs)
);
},
{
closed = 1;
nodes = (
(259,-36,o),
(77,146,o),
(77,369,cs),
(77,590,o),
(260,772,o),
(481,772,cs),
(702,772,o),
(885,590,o),
(885,369,cs),
(885,146,o),
(703,-36,o),
(481,-36,cs)
);
},
{
closed = 1;
nodes = (
(495,140,o),
(564,198,o),
(594,273,cs),
(602,293,o),
(589,308,o),
(577,312,cs),
(567,317,o),
(546,312,o),
(539,296,cs),
(514,238,o),
(463,194,o),
(425,194,cs),
(350,194,o),
(364,312,o),
(390,413,cs),
(412,506,o),
(475,561,o),
(527,561,cs),
(557,561,o),
(570,537,o),
(570,508,cs),
(570,493,o),
(590,489,o),
(607,495,cs),
(621,500,o),
(627,516,o),
(625,531,cs),
(617,579,o),
(593,614,o),
(541,614,cs),
(440,614,o),
(359,541,o),
(323,398,cs),
(296,289,o),
(303,140,o),
(415,140,cs)
);
}
);
width = 1001;
},
{
layerId = "6449507E-FEE0-4D4A-A81F-7CAB6A5803D5";
shapes = (
{
closed = 1;
nodes = (
(738,-95,o),
(946,113,o),
(946,368,cs),
(946,624,o),
(738,832,o),
(482,832,cs),
(227,832,o),
(19,624,o),
(19,368,cs),
(19,113,o),
(227,-95,o),
(482,-95,cs)
);
},
{
closed = 1;
nodes = (
(286,12,o),
(126,170,o),
(126,368,cs),
(126,563,o),
(284,725,o),
(484,725,cs),
(681,725,o),
(839,564,o),
(839,368,cs),
(839,172,o),
(680,12,o),
(484,12,cs)
);
},
{
closed = 1;
nodes = (
(498,143,o),
(565,194,o),
(599,276,cs),
(611,304,o),
(598,335,o),
(568,348,cs),
(539,360,o),
(508,348,o),
(495,318,cs),
(479,279,o),
(453,249,o),
(435,249,cs),
(412,249,o),
(415,311,o),
(429,368,cs),
(440,411,o),
(470,505,o),
(507,505,cs),
(514,505,o),
(518,500,o),
(518,491,cs),
(518,462,o),
(545,436,o),
(589,453,cs),
(614,461,o),
(630,486,o),
(625,516,cs),
(615,574,o),
(581,613,o),
(520,613,cs),
(418,613,o),
(347,506,o),
(312,371,cs),
(284,255,o),
(328,143,o),
(423,143,cs)
);
}
);
width = 1001;
}
);
unicode = 169;
},
{
color = 6;
glyphname = registered;
layers = (
{
background = {
shapes = (
{
closed = 1;
nodes = (
(279,51,o),
(286,67,o),
(289,78,cs),
(462,784,ls),
(467,805,o),
(461,823,o),
(441,823,cs),
(418,823,o),
(409,813,o),
(404,794,cs),
(228,86,ls),
(223,68,o),
(232,51,o),
(253,51,cs)
);
}
);
};
layerId = m01;
shapes = (
{
closed = 1;
nodes = (
(371,485,o),
(380,494,o),
(383,504,cs),
(438,733,l),
(442,746,o),
(421,752,o),
(409,752,cs),
(398,752,o),
(393,748,o),
(391,737,cs),
(333,506,ls),
(330,494,o),
(337,485,o),
(353,485,cs)
);
},
{
closed = 1;
nodes = (
(487,485,o),
(495,491,o),
(500,497,cs),
(505,501,o),
(507,512,o),
(504,518,cs),
(436,628,l),
(373,632,l),
(459,494,ls),
(462,487,o),
(474,485,o),
(480,485,cs)
);
},
{
closed = 1;
nodes = (
(454,611,o),
(525,607,o),
(543,677,cs),
(555,732,o),
(504,752,o),
(409,752,c),
(402,703,l),
(459,703,o),
(500,696,o),
(495,678,cs),
(489,659,o),
(448,659,o),
(394,659,c),
(387,612,l)
);
},
{
closed = 1;
nodes = (
(595,343,o),
(718,466,o),
(718,617,cs),
(718,767,o),
(595,890,o),
(444,890,cs),
(293,890,o),
(171,767,o),
(171,617,cs),
(171,466,o),
(293,343,o),
(444,343,cs)
);
},
{
closed = 1;
nodes = (
(324,400,o),
(228,497,o),
(228,617,cs),
(228,735,o),
(324,832,o),
(444,832,cs),
(563,832,o),
(659,735,o),
(659,617,cs),
(659,497,o),
(563,400,o),
(444,400,cs)
);
}
);
width = 765;
},
{
layerId = "6449507E-FEE0-4D4A-A81F-7CAB6A5803D5";
shapes = (
{
closed = 1;
nodes = (
(367,485,o),
(384,499,o),
(388,518,cs),
(441,725,ls),
(447,748,o),
(434,765,o),
(411,765,cs),
(392,765,o),
(377,752,o),
(372,734,cs),
(320,523,ls),
(314,499,o),
(328,485,o),
(347,485,cs)
);
},
{
closed = 1;
nodes = (
(492,485,o),
(505,492,o),
(512,505,cs),
(517,516,o),
(514,525,o),
(510,533,cs),
(465,609,l),
(377,609,l),
(444,499,ls),
(450,489,o),
(461,485,o),
(478,485,cs)
);
},
{
closed = 1;
nodes = (
(421,590,o),
(530,588,o),
(551,675,cs),
(568,745,o),
(486,765,o),
(411,765,c),
(406,699,l),
(469,700,o),
(484,694,o),
(479,675,cs),
(474,658,o),
(422,658,o),
(403,658,c),
(394,590,l)
);
},
{
closed = 1;
nodes = (
(582,343,o),
(704,466,o),
(704,617,cs),
(704,767,o),
(582,890,o),
(431,890,cs),
(280,890,o),
(158,767,o),
(158,617,cs),
(158,466,o),
(280,343,o),
(431,343,cs)
);
},
{
closed = 1;
nodes = (
(328,432,o),
(247,518,o),
(247,617,cs),
(247,718,o),
(330,801,o),
(431,801,cs),
(532,801,o),
(615,719,o),
(615,617,cs),
(615,514,o),
(532,432,o),
(431,432,cs)
);
}
);
width = 735;
}
);
unicode = 174;
},
{
color = 6;
glyphname = trademark;
layers = (
{
layerId = m01;
shapes = (
{
closed = 1;
nodes = (
(287,416,o),
(297,431,o),
(299,443,cs),
(388,797,l),
(327,797,l),
(240,453,ls),
(236,436,o),
(245,416,o),
(266,416,cs)
);
},
{
closed = 1;
nodes = (
(501,772,ls),
(525,772,o),
(532,784,o),
(532,798,cs),
(532,813,o),
(525,826,o),
(501,826,cs),
(202,826,ls),
(178,826,o),
(171,813,o),
(171,798,cs),
(171,784,o),
(178,772,o),
(202,772,cs)
);
},
{
closed = 1;
nodes = (
(584,416,o),
(594,430,o),
(598,444,cs),
(671,737,l),
(663,738,l),
(694,437,ls),
(695,423,o),
(704,416,o),
(721,416,cs),
(735,416,o),
(750,425,o),
(757,437,cs),
(956,760,l),
(935,760,l),
(857,451,ls),
(853,438,o),
(858,416,o),
(881,416,cs),
(906,416,o),
(912,429,o),
(916,441,cs),
(998,769,ls),
(1007,804,o),
(992,826,o),
(959,826,cs),
(936,826,o),
(921,810,o),
(895,767,cs),
(725,488,l),
(746,484,l),
(718,765,ls),
(714,804,o),
(699,826,o),
(672,826,cs),
(646,826,o),
(627,804,o),
(619,770,cs),
(538,451,ls),
(533,435,o),
(543,416,o),
(563,416,cs)
);
}
);
width = 1048;
},
{
layerId = "6449507E-FEE0-4D4A-A81F-7CAB6A5803D5";
shapes = (
{
closed = 1;
nodes = (
(360,424,o),
(371,453,o),
(377,475,cs),
(468,828,l),
(354,828,l),
(268,499,ls),
(259,462,o),
(278,424,o),
(320,424,cs)
);
},
{
closed = 1;
nodes = (
(557,772,ls),
(608,772,o),
(618,801,o),
(618,828,cs),
(618,857,o),
(607,886,o),
(557,886,cs),
(253,886,ls),
(203,886,o),
(192,857,o),
(192,828,cs),
(192,801,o),
(202,772,o),
(253,772,cs)
);
},
{
closed = 1;
nodes = (
(691,424,o),
(700,449,o),
(707,475,cs),
(791,800,l),
(714,809,l),
(752,473,ls),
(756,443,o),
(772,424,o),
(810,424,cs),
(834,424,o),
(857,437,o),
(871,460,cs),
(1100,826,l),
(1006,826,l),
(921,498,ls),
(914,469,o),
(917,424,o),
(966,424,cs),
(1011,424,o),
(1022,449,o),
(1028,470,cs),
(1111,792,ls),
(1126,854,o),
(1095,885,o),
(1043,885,cs),
(1015,885,o),
(1003,874,o),
(966,816,cs),
(811,568,l),
(853,555,l),
(826,800,ls),
(819,862,o),
(798,885,o),
(760,885,cs),
(725,885,o),
(693,859,o),
(680,808,cs),
(599,498,ls),
(589,460,o),
(613,424,o),
(652,424,cs)
);
}
);
width = 1111;
}
);
unicode = 8482;
},
{
color = 6;
glyphname = degree;
layers = (
{
guides = (
{
name = " [#a8lJXTlcRe]";
pos = (263,516);
}
);
layerId = m01;
shapes = (
{
closed = 1;
nodes = (
(407,465,o),
(473,531,o),
(473,619,cs),
(473,707,o),
(409,772,o),
(322,772,cs),
(235,772,o),
(171,707,o),
(171,619,cs),
(171,531,o),
(235,465,o),
(321,465,cs)
);
},
{
closed = 1;
nodes = (
(267,518,o),
(229,561,o),
(230,619,cs),
(230,676,o),
(270,719,o),
(322,719,cs),
(373,719,o),
(411,676,o),
(411,619,cs),
(411,561,o),
(373,518,o),
(321,518,cs)
);
}
);
vertWidth = 0;
width = 520;
},
{
guides = (
{
name = " [#a8lJXTlcRe]";
pos = (323,516);
}
);
layerId = "6449507E-FEE0-4D4A-A81F-7CAB6A5803D5";
shapes = (
{
closed = 1;
nodes = (
(443,442,o),
(518,511,o),
(518,607,cs),
(518,703,o),
(444,772,o),
(356,772,cs),
(267,772,o),
(192,703,o),
(192,607,cs),
(192,511,o),
(267,442,o),
(355,442,cs)
);
},
{
closed = 1;
nodes = (
(324,544,o),
(299,574,o),
(299,607,cs),
(299,640,o),
(326,670,o),
(356,670,cs),
(385,670,o),
(409,639,o),
(409,607,cs),
(409,575,o),
(385,544,o),
(355,544,cs)
);
}
);
vertWidth = 0;
width = 514;
}
);
unicode = 176;
},
{
color = 6;
glyphname = bar;
layers = (
{
layerId = m01;
shapes = (
{
closed = 1;
nodes = (
(-4,-355,o),
(4,-340,o),
(6,-328,cs),
(282,792,ls),
(286,814,o),
(280,832,o),
(260,832,cs),
(238,832,o),
(228,821,o),
(223,802,cs),
(-55,-321,ls),
(-59,-339,o),
(-51,-355,o),
(-30,-355,cs)
);
}
);
vertWidth = 0;
width = 296;
},
{
layerId = "6449507E-FEE0-4D4A-A81F-7CAB6A5803D5";
shapes = (
{
closed = 1;
nodes = (
(86,-355,o),
(97,-324,o),
(102,-303,cs),
(361,753,ls),
(374,807,o),
(348,832,o),
(309,832,cs),
(268,832,o),
(251,813,o),
(241,778,cs),
(-20,-282,ls),
(-31,-321,o),
(-11,-355,o),
(36,-355,cs)
);
}
);
vertWidth = 0;
width = 333;
}
);
unicode = 124;
},
{
color = 6;
glyphname = brokenbar;
layers = (
{
layerId = m01;
shapes = (
{
closed = 1;
nodes = (
(162,309,o),
(169,324,o),
(171,336,cs),
(282,792,ls),
(286,814,o),
(280,832,o),
(260,832,cs),
(238,832,o),
(228,821,o),
(223,802,cs),
(110,343,ls),
(106,326,o),
(114,309,o),
(135,309,cs)
);
},
{
closed = 1;
nodes = (
(-4,-355,o),
(4,-340,o),
(6,-328,cs),
(116,128,ls),
(121,150,o),
(115,168,o),
(95,168,cs),
(72,168,o),
(63,157,o),
(58,138,cs),
(-55,-321,ls),
(-59,-339,o),
(-51,-355,o),
(-30,-355,cs)
);
}
);
vertWidth = 0;
width = 296;
},
{
layerId = "6449507E-FEE0-4D4A-A81F-7CAB6A5803D5";
shapes = (
{
closed = 1;
nodes = (
(251,309,o),
(261,340,o),
(267,362,cs),
(361,753,ls),
(374,807,o),
(348,832,o),
(309,832,cs),
(268,832,o),
(249,813,o),
(241,778,cs),
(145,384,ls),
(135,345,o),
(154,309,o),
(201,309,cs)
);
},
{
closed = 1;
nodes = (
(86,-355,o),
(97,-324,o),
(102,-303,cs),
(196,89,ls),
(209,143,o),
(183,168,o),
(144,168,cs),
(103,168,o),
(84,149,o),
(76,114,cs),
(-20,-282,ls),
(-30,-321,o),
(-11,-355,o),
(36,-355,cs)
);
}
);
vertWidth = 0;
width = 333;
}
);
unicode = 166;
},
{
color = 6;
glyphname = cent;
layers = (
{
layerId = m01;
shapes = (
{
closed = 1;
nodes = (
(188,0,o),
(257,58,o),
(286,133,cs),
(295,153,o),
(282,168,o),
(270,172,cs),
(259,177,o),
(239,172,o),
(232,156,cs),
(207,97,o),
(156,53,o),
(118,53,cs),
(67,53,o),
(52,105,o),
(78,206,cs),
(101,298,o),
(157,367,o),
(209,367,cs),
(239,367,o),
(252,343,o),
(252,315,cs),
(252,299,o),
(272,296,o),
(289,302,cs),
(303,307,o),
(309,322,o),
(307,337,cs),
(298,385,o),
(274,421,o),
(222,421,cs),
(121,421,o),
(48,333,o),
(12,190,cs),
(-15,81,o),
(25,0,o),
(107,0,cs)
);
},
{
closed = 1;
nodes = (
(113,-62,o),
(122,-55,o),
(128,-32,cs),
(252,465,ls),
(258,489,o),
(252,503,o),
(233,503,cs),
(220,503,o),
(209,495,o),
(203,473,cs),
(80,-24,ls),
(74,-49,o),
(81,-62,o),
(100,-62,cs)
);
}
);
width = 354;
},
{
layerId = "6449507E-FEE0-4D4A-A81F-7CAB6A5803D5";
shapes = (
{
closed = 1;
nodes = (
(229,0,o),
(297,51,o),
(330,133,cs),
(342,162,o),
(329,192,o),
(299,206,cs),
(271,217,o),
(249,206,o),
(236,176,cs),
(220,137,o),
(184,107,o),
(166,107,cs),
(144,107,o),
(128,141,o),
(143,198,cs),
(153,241,o),
(190,318,o),
(227,318,cs),
(240,318,o),
(261,316,o),
(261,304,cs),
(261,276,o),
(277,249,o),
(321,266,cs),
(346,274,o),
(361,299,o),
(356,329,cs),
(347,387,o),
(312,426,o),
(252,426,cs),
(150,426,o),
(72,336,o),
(38,201,cs),
(10,86,o),
(59,0,o),
(154,0,cs)
);
},
{
closed = 1;
nodes = (
(149,-62,o),
(158,-55,o),
(164,-32,cs),
(287,465,ls),
(293,489,o),
(287,503,o),
(268,503,cs),
(255,503,o),
(246,495,o),
(240,473,cs),
(116,-24,ls),
(110,-49,o),
(116,-62,o),
(135,-62,cs)
);
}
);
width = 358;
}
);
unicode = 162;
},
{
color = 6;
glyphname = dollar;
layers = (
{
layerId = m01;
shapes = (
{
closed = 1;
nodes = (
(379,0,o),
(454,75,o),
(485,195,cs),
(517,330,o),
(470,402,o),
(326,440,cs),
(240,462,o),
(216,504,o),
(232,562,cs),
(253,649,o),
(321,702,o),
(403,702,cs),
(453,702,o),
(479,665,o),
(504,589,cs),
(508,574,o),
(525,569,o),
(539,571,cs),
(558,575,o),
(565,593,o),
(562,605,cs),
(533,706,o),
(489,757,o),
(409,757,cs),
(296,757,o),
(201,688,o),
(173,575,cs),
(151,479,o),
(190,413,o),
(315,380,cs),
(416,353,o),
(448,302,o),
(425,204,cs),
(404,112,o),
(353,55,o),
(272,55,cs),
(195,55,o),
(131,110,o),
(121,200,cs),
(120,216,o),
(108,223,o),
(89,222,cs),
(70,221,o),
(61,211,o),
(62,194,cs),
(75,74,o),
(162,0,o),
(268,0,cs)
);
},
{
closed = 1;
nodes = (
(230,-114,o),
(238,-99,o),
(240,-87,cs),
(456,792,ls),
(461,814,o),
(455,832,o),
(435,832,cs),
(412,832,o),
(403,821,o),
(398,802,cs),
(179,-80,ls),
(175,-97,o),
(183,-114,o),
(204,-114,cs)
);
}
);
vertWidth = 0;
width = 632;
},
{
layerId = "6449507E-FEE0-4D4A-A81F-7CAB6A5803D5";
shapes = (
{
closed = 1;
nodes = (
(444,-8,o),
(551,69,o),
(584,198,cs),
(619,346,o),
(548,424,o),
(388,466,cs),
(340,479,o),
(303,501,o),
(314,539,cs),
(329,604,o),
(391,645,o),
(453,645,cs),
(487,645,o),
(523,609,o),
(538,563,cs),
(548,533,o),
(579,519,o),
(608,524,cs),
(651,532,o),
(663,573,o),
(656,598,cs),
(624,712,o),
(546,762,o),
(457,762,cs),
(337,762,o),
(225,688,o),
(195,568,cs),
(170,461,o),
(220,385,o),
(362,347,cs),
(432,328,o),
(481,292,o),
(465,222,cs),
(449,156,o),
(391,109,o),
(330,109,cs),
(274,109,o),
(219,151,o),
(211,214,cs),
(209,247,o),
(190,267,o),
(146,265,cs),
(106,263,o),
(88,240,o),
(90,203,cs),
(105,71,o),
(211,-8,o),
(328,-8,cs)
);
},
{
closed = 1;
nodes = (
(317,-114,o),
(328,-84,o),
(334,-62,cs),
(535,754,ls),
(546,807,o),
(520,832,o),
(482,832,cs),
(442,832,o),
(424,813,o),
(416,779,cs),
(213,-40,ls),
(203,-80,o),
(222,-114,o),
(267,-114,cs)
);
}
);
vertWidth = 0;
width = 677;
}
);
unicode = 36;
},
{
color = 6;
glyphname = euro;
layers = (
{
layerId = m01;
shapes = (
{
closed = 1;
nodes = (
(318,0,o),
(403,56,o),
(475,166,cs),
(500,206,o),
(505,220,o),
(505,227,cs),
(506,241,o),
(494,248,o),
(481,249,cs),
(462,251,o),
(453,235,o),
(434,204,cs),
(367,105,o),
(302,55,o),
(249,55,cs),
(168,55,o),
(131,158,o),
(151,327,cs),
(179,568,o),
(276,718,o),
(410,718,cs),
(454,718,o),
(486,693,o),
(504,644,cs),
(511,627,o),
(526,619,o),
(544,625,cs),
(560,630,o),
(565,642,o),
(562,657,cs),
(542,733,o),
(493,772,o),
(417,772,cs),
(247,772,o),
(121,598,o),
(88,316,cs),
(65,121,o),
(126,0,o),
(248,0,cs)
);
},
{
closed = 1;
nodes = (
(361,469,ls),
(385,469,o),
(392,482,o),
(392,497,cs),
(392,511,o),
(385,523,o),
(361,523,cs),
(91,523,ls),
(68,523,o),
(61,511,o),
(61,497,cs),
(61,482,o),
(68,469,o),
(91,469,cs)
);
},
{
closed = 1;
nodes = (
(316,291,ls),
(340,291,o),
(347,304,o),
(347,318,cs),
(347,333,o),
(340,345,o),
(316,345,cs),
(51,345,ls),
(27,345,o),
(20,333,o),
(20,318,cs),
(20,304,o),
(27,291,o),
(51,291,cs)
);
}
);
width = 556;
},
{
layerId = "6449507E-FEE0-4D4A-A81F-7CAB6A5803D5";
shapes = (
{
closed = 1;
nodes = (
(364,0,o),
(453,52,o),
(527,168,cs),
(558,215,o),
(561,232,o),
(561,240,cs),
(561,264,o),
(542,291,o),
(508,293,cs),
(482,295,o),
(466,284,o),
(435,236,cs),
(385,160,o),
(335,115,o),
(293,115,cs),
(229,115,o),
(225,229,o),
(236,328,cs),
(258,518,o),
(328,657,o),
(441,657,cs),
(468,657,o),
(486,639,o),
(495,611,c),
(510,577,o),
(541,563,o),
(574,574,cs),
(606,583,o),
(620,608,o),
(612,642,cs),
(590,728,o),
(533,772,o),
(447,772,cs),
(280,772,o),
(147,612,o),
(113,326,cs),
(88,108,o),
(168,0,o),
(292,0,cs)
);
},
{
closed = 1;
nodes = (
(359,436,ls),
(410,436,o),
(436,457,o),
(436,486,cs),
(436,513,o),
(411,539,o),
(359,539,cs),
(137,539,ls),
(84,539,o),
(61,513,o),
(61,486,cs),
(61,457,o),
(87,436,o),
(137,436,cs)
);
},
{
closed = 1;
nodes = (
(322,279,ls),
(373,279,o),
(399,301,o),
(399,329,cs),
(399,356,o),
(374,383,o),
(322,383,cs),
(100,383,ls),
(48,383,o),
(24,356,o),
(24,329,cs),
(24,301,o),
(50,279,o),
(100,279,cs)
);
}
);
width = 562;
}
);
unicode = 8364;
},
{
color = 6;
glyphname = sterling;
layers = (
{
layerId = m01;
shapes = (
{
closed = 1;
nodes = (
(90,375,o),
(97,362,o),
(121,362,cs),
(374,362,ls),
(398,362,o),
(405,375,o),
(407,390,cs),
(409,404,o),
(403,416,o),
(379,416,cs),
(126,416,ls),
(102,416,o),
(94,404,o),
(93,390,cs)
);
},
{
closed = 1;
nodes = (
(50,0,l),
(108,64,o),
(198,156,o),
(248,253,cs),
(284,322,o),
(298,438,o),
(267,489,cs),
(236,542,o),
(207,601,o),
(213,647,cs),
(216,668,o),
(241,690,o),
(261,701,cs),
(279,710,o),
(302,714,o),
(326,714,cs),
(381,714,o),
(431,689,o),
(467,655,cs),
(492,631,o),
(511,634,o),
(523,645,cs),
(535,657,o),
(542,672,o),
(519,695,cs),
(475,738,o),
(397,772,o),
(322,772,cs),
(290,772,o),
(258,766,o),
(229,751,cs),
(181,725,o),
(153,689,o),
(147,645,cs),
(140,595,o),
(162,533,o),
(210,459,cs),
(226,435,o),
(223,337,o),
(192,277,cs),
(139,171,o),
(11,53,o),
(5,45,cs),
(-15,20,o),
(-14,0,o),
(15,0,c)
);
},
{
closed = 1;
nodes = (
(342,0,ls),
(366,0,o),
(374,15,o),
(375,30,cs),
(377,44,o),
(371,59,o),
(347,59,cs),
(50,59,l),
(20,0,l)
);
}
);
width = 499;
},
{
layerId = "6449507E-FEE0-4D4A-A81F-7CAB6A5803D5";
shapes = (
{
closed = 1;
nodes = (
(127,336,o),
(147,315,o),
(185,315,cs),
(435,315,ls),
(473,315,o),
(495,336,o),
(499,365,cs),
(504,394,o),
(481,416,o),
(443,416,cs),
(194,416,ls),
(156,416,o),
(135,394,o),
(131,365,cs)
);
},
{
closed = 1;
nodes = (
(139,0,l),
(210,64,o),
(296,164,o),
(341,261,cs),
(372,330,o),
(390,454,o),
(359,505,cs),
(320,569,o),
(304,607,o),
(308,636,cs),
(309,646,o),
(314,655,o),
(323,659,cs),
(336,666,o),
(353,670,o),
(371,670,cs),
(415,670,o),
(470,657,o),
(504,625,cs),
(533,594,o),
(573,598,o),
(590,618,cs),
(611,640,o),
(619,666,o),
(590,696,cs),
(549,740,o),
(470,773,o),
(392,773,cs),
(354,773,o),
(316,765,o),
(284,747,cs),
(228,716,o),
(195,681,o),
(189,633,cs),
(179,569,o),
(225,484,o),
(252,443,cs),
(268,419,o),
(258,333,o),
(227,272,cs),
(173,166,o),
(95,118,o),
(51,65,cs),
(36,48,o),
(19,0,o),
(84,0,cs)
);
},
{
closed = 1;
nodes = (
(386,0,ls),
(422,0,o),
(447,17,o),
(449,49,cs),
(450,77,o),
(431,102,o),
(393,102,cs),
(158,102,l),
(108,0,l)
);
}
);
width = 581;
}
);
unicode = 163;
},
{
color = 6;
glyphname = yen;
layers = (
{
layerId = m01;
shapes = (
{
closed = 1;
nodes = (
(353,367,l),
(189,750,ls),
(179,772,o),
(158,777,o),
(144,771,cs),
(129,766,o),
(124,751,o),
(133,729,cs),
(314,305,l)
);
},
{
closed = 1;
nodes = (
(127,-4,o),
(147,-5,o),
(159,13,cs),
(623,723,ls),
(634,741,o),
(630,758,o),
(619,766,cs),
(606,776,o),
(583,772,o),
(571,754,cs),
(108,45,ls),
(99,31,o),
(101,15,o),
(113,7,cs)
);
},
{
closed = 1;
nodes = (
(468,312,o),
(478,327,o),
(476,340,cs),
(475,353,o),
(465,366,o),
(443,366,cs),
(173,366,ls),
(152,366,o),
(141,353,o),
(143,340,cs),
(144,327,o),
(156,312,o),
(177,312,cs),
(447,312,ls)
);
},
{
closed = 1;
nodes = (
(422,181,o),
(431,194,o),
(431,208,cs),
(430,221,o),
(418,234,o),
(397,234,cs),
(127,234,ls),
(106,234,o),
(96,221,o),
(97,208,cs),
(97,195,o),
(109,181,o),
(131,181,cs),
(400,181,ls)
);
}
);
width = 587;
},
{
layerId = "6449507E-FEE0-4D4A-A81F-7CAB6A5803D5";
shapes = (
{
closed = 1;
nodes = (
(448,400,l),
(305,732,ls),
(287,775,o),
(247,779,o),
(221,769,c),
(197,760,o),
(173,737,o),
(195,687,cs),
(369,277,l)
);
},
{
closed = 1;
nodes = (
(213,-7,o),
(253,-10,o),
(276,26,cs),
(700,677,ls),
(723,713,o),
(709,744,o),
(689,760,cs),
(664,778,o),
(620,777,o),
(598,741,cs),
(173,91,ls),
(153,61,o),
(164,31,o),
(187,13,cs)
);
},
{
closed = 1;
nodes = (
(538,299,o),
(561,321,o),
(560,349,cs),
(557,378,o),
(531,400,o),
(495,400,cs),
(236,400,ls),
(201,400,o),
(177,378,o),
(179,349,cs),
(181,321,o),
(208,299,o),
(244,299,cs),
(503,299,ls)
);
},
{
closed = 1;
nodes = (
(493,144,o),
(517,166,o),
(514,196,cs),
(512,225,o),
(486,245,o),
(450,245,cs),
(191,245,ls),
(156,245,o),
(132,225,o),
(134,196,cs),
(137,168,o),
(163,144,o),
(198,144,cs),
(457,144,ls)
);
}
);
width = 631;
}
);
unicode = 165;
},
{
color = 6;
glyphname = plus;
layers = (
{
layerId = m01;
shapes = (
{
closed = 1;
nodes = (
(215,105,o),
(227,112,o),
(232,131,cs),
(297,393,ls),
(302,415,o),
(289,429,o),
(274,430,cs),
(263,431,o),
(251,423,o),
(245,405,cs),
(181,143,ls),
(176,120,o),
(189,106,o),
(203,105,cs)
);
},
{
closed = 1;
nodes = (
(373,244,ls),
(394,244,o),
(405,258,o),
(405,271,cs),
(405,284,o),
(394,297,o),
(373,297,cs),
(103,297,ls),
(82,297,o),
(71,284,o),
(71,271,cs),
(71,257,o),
(82,244,o),
(103,244,cs)
);
}
);
vertWidth = 0;
width = 506;
},
{
layerId = "6449507E-FEE0-4D4A-A81F-7CAB6A5803D5";
shapes = (
{
closed = 1;
nodes = (
(253,81,o),
(277,90,o),
(285,125,cs),
(349,388,ls),
(359,430,o),
(330,454,o),
(305,454,cs),
(285,454,o),
(259,448,o),
(251,413,cs),
(187,149,l),
(177,103,o),
(207,81,o),
(232,81,cs)
);
},
{
closed = 1;
nodes = (
(400,219,ls),
(441,219,o),
(455,247,o),
(455,270,cs),
(455,293,o),
(441,321,o),
(400,321,cs),
(131,321,ls),
(90,321,o),
(76,293,o),
(76,270,cs),
(76,246,o),
(90,219,o),
(131,219,cs)
);
}
);
vertWidth = 0;
width = 506;
}
);
unicode = 43;
},
{
color = 6;
glyphname = minus;
layers = (
{
layerId = m01;
shapes = (
{
closed = 1;
nodes = (
(373,244,ls),
(394,244,o),
(405,258,o),
(405,271,cs),
(405,284,o),
(394,297,o),
(373,297,cs),
(103,297,ls),
(82,297,o),
(71,284,o),
(71,271,cs),
(71,257,o),
(82,244,o),
(103,244,cs)
);
}
);
vertWidth = 0;
width = 506;
},
{
layerId = "6449507E-FEE0-4D4A-A81F-7CAB6A5803D5";
shapes = (
{
closed = 1;
nodes = (
(400,219,ls),
(441,219,o),
(455,247,o),
(455,270,cs),
(455,293,o),
(441,321,o),
(400,321,cs),
(131,321,ls),
(90,321,o),
(76,293,o),
(76,270,cs),
(76,246,o),
(90,219,o),
(131,219,cs)
);
}
);
vertWidth = 0;
width = 506;
}
);
unicode = 8722;
},
{
color = 6;
glyphname = multiply;
layers = (
{
layerId = m01;
shapes = (
{
closed = 1;
nodes = (
(405,388,ls),
(422,403,o),
(422,418,o),
(411,428,cs),
(400,438,o),
(384,440,o),
(367,425,cs),
(49,146,ls),
(34,134,o),
(34,119,o),
(44,108,cs),
(55,97,o),
(70,94,o),
(89,110,cs)
);
},
{
closed = 1;
nodes = (
(323,94,o),
(339,95,o),
(349,103,cs),
(362,113,o),
(366,127,o),
(354,144,cs),
(150,419,ls),
(137,437,o),
(120,440,o),
(109,431,cs),
(97,422,o),
(94,404,o),
(105,388,cs),
(310,110,ls)
);
}
);
vertWidth = 0;
width = 506;
},
{
layerId = "6449507E-FEE0-4D4A-A81F-7CAB6A5803D5";
shapes = (
{
closed = 1;
nodes = (
(441,356,ls),
(476,388,o),
(466,413,o),
(447,432,cs),
(430,449,o),
(402,457,o),
(372,431,cs),
(87,178,ls),
(59,154,o),
(63,125,o),
(81,106,cs),
(99,87,o),
(124,75,o),
(158,105,cs)
);
},
{
closed = 1;
nodes = (
(346,77,o),
(375,83,o),
(394,97,cs),
(417,114,o),
(426,140,o),
(404,171,c),
(213,421,ls),
(185,457,o),
(156,450,o),
(138,437,cs),
(116,421,o),
(108,388,o),
(128,362,cs),
(321,109,ls)
);
}
);
vertWidth = 0;
width = 506;
}
);
unicode = 215;
},
{
color = 6;
glyphname = divide;
layers = (
{
layerId = m01;
shapes = (
{
closed = 1;
nodes = (
(226,103,o),
(245,122,o),
(245,143,cs),
(245,164,o),
(225,181,o),
(204,181,cs),
(182,181,o),
(168,162,o),
(168,143,cs),
(168,122,o),
(183,103,o),
(204,103,cs)
);
},
{
closed = 1;
nodes = (
(373,244,ls),
(394,244,o),
(405,258,o),
(405,271,cs),
(405,284,o),
(394,297,o),
(373,297,cs),
(103,297,ls),
(82,297,o),
(71,284,o),
(71,271,cs),
(71,258,o),
(82,244,o),
(103,244,cs)
);
},
{
closed = 1;
nodes = (
(290,360,o),
(309,379,o),
(309,399,cs),
(309,419,o),
(290,437,o),
(270,437,cs),
(248,437,o),
(232,418,o),
(232,399,cs),
(232,380,o),
(248,360,o),
(270,360,cs)
);
}
);
vertWidth = 0;
width = 506;
},
{
layerId = "6449507E-FEE0-4D4A-A81F-7CAB6A5803D5";
shapes = (
{
closed = 1;
nodes = (
(271,57,o),
(303,89,o),
(303,126,cs),
(303,160,o),
(271,190,o),
(236,190,cs),
(200,190,o),
(171,160,o),
(171,126,cs),
(171,89,o),
(200,57,o),
(236,57,cs)
);
},
{
closed = 1;
nodes = (
(400,219,ls),
(441,219,o),
(455,247,o),
(455,270,cs),
(455,293,o),
(441,321,o),
(400,321,cs),
(131,321,ls),
(90,321,o),
(76,293,o),
(76,270,cs),
(76,246,o),
(90,219,o),
(131,219,cs)
);
},
{
closed = 1;
nodes = (
(317,349,o),
(349,381,o),
(349,418,cs),
(349,453,o),
(317,482,o),
(283,482,cs),
(246,482,o),
(217,453,o),
(217,418,cs),
(217,381,o),
(246,349,o),
(283,349,cs)
);
}
);
vertWidth = 0;
width = 506;
}
);
unicode = 247;
},
{
color = 6;
glyphname = equal;
layers = (
{
layerId = m01;
shapes = (
{
closed = 1;
nodes = (
(348,153,ls),
(369,153,o),
(380,168,o),
(380,181,cs),
(380,194,o),
(369,207,o),
(348,207,cs),
(78,207,ls),
(57,207,o),
(46,192,o),
(46,179,cs),
(46,166,o),
(57,153,o),
(78,153,cs)
);
},
{
closed = 1;
nodes = (
(392,333,ls),
(413,333,o),
(424,347,o),
(424,360,cs),
(424,373,o),
(413,386,o),
(392,386,cs),
(122,386,ls),
(101,386,o),
(90,372,o),
(90,359,cs),
(90,346,o),
(101,333,o),
(122,333,cs)
);
}
);
vertWidth = 0;
width = 506;
},
{
layerId = "6449507E-FEE0-4D4A-A81F-7CAB6A5803D5";
shapes = (
{
closed = 1;
nodes = (
(374,143,ls),
(415,143,o),
(429,171,o),
(429,194,cs),
(429,217,o),
(415,245,o),
(374,245,cs),
(105,245,ls),
(64,245,o),
(50,217,o),
(50,194,cs),
(50,170,o),
(64,143,o),
(105,143,cs)
);
},
{
closed = 1;
nodes = (
(413,298,ls),
(454,298,o),
(468,327,o),
(468,349,cs),
(468,373,o),
(454,400,o),
(413,400,cs),
(144,400,ls),
(103,400,o),
(89,373,o),
(89,349,cs),
(89,326,o),
(103,298,o),
(144,298,cs)
);
}
);
vertWidth = 0;
width = 506;
}
);
unicode = 61;
},
{
color = 6;
glyphname = notequal;
layers = (
{
layerId = m01;
shapes = (
{
closed = 1;
nodes = (
(348,153,ls),
(369,153,o),
(380,168,o),
(380,181,cs),
(380,194,o),
(369,207,o),
(348,207,cs),
(78,207,ls),
(57,207,o),
(46,192,o),
(46,179,cs),
(46,166,o),
(57,153,o),
(78,153,cs)
);
},
{
closed = 1;
nodes = (
(392,333,ls),
(413,333,o),
(424,347,o),
(424,360,cs),
(424,373,o),
(413,386,o),
(392,386,cs),
(122,386,ls),
(101,386,o),
(90,372,o),
(90,359,cs),
(90,346,o),
(101,333,o),
(122,333,cs)
);
},
{
closed = 1;
nodes = (
(331,402,ls),
(348,430,o),
(331,448,o),
(315,448,cs),
(303,448,o),
(295,443,o),
(286,430,cs),
(121,131,ls),
(110,109,o),
(119,95,o),
(132,89,cs),
(143,84,o),
(159,87,o),
(170,106,cs)
);
}
);
vertWidth = 0;
width = 506;
},
{
layerId = "6449507E-FEE0-4D4A-A81F-7CAB6A5803D5";
shapes = (
{
closed = 1;
nodes = (
(374,143,ls),
(415,143,o),
(429,171,o),
(429,194,cs),
(429,217,o),
(415,245,o),
(374,245,cs),
(105,245,ls),
(64,245,o),
(50,217,o),
(50,194,cs),
(50,170,o),
(64,143,o),
(105,143,cs)
);
},
{
closed = 1;
nodes = (
(413,298,ls),
(454,298,o),
(468,327,o),
(468,349,cs),
(468,373,o),
(454,400,o),
(413,400,cs),
(144,400,ls),
(103,400,o),
(89,373,o),
(89,349,cs),
(89,326,o),
(103,298,o),
(144,298,cs)
);
},
{
closed = 1;
nodes = (
(399,400,ls),
(440,467,o),
(387,484,o),
(360,484,cs),
(340,484,o),
(326,478,o),
(311,455,cs),
(114,132,ls),
(91,95,o),
(114,67,o),
(137,56,cs),
(156,48,o),
(188,51,o),
(207,82,cs)
);
}
);
vertWidth = 0;
width = 506;
}
);
unicode = 8800;
},
{
color = 6;
glyphname = greater;
layers = (
{
guides = (
{
name = " [#GqRMvt6B8x]";
pos = (71,333);
}
);
layerId = m01;
shapes = (
{
closed = 1;
nodes = (
(383,235,ls),
(392,240,o),
(399,249,o),
(399,259,cs),
(399,267,o),
(396,274,o),
(387,282,cs),
(187,430,ls),
(169,443,o),
(153,443,o),
(143,432,cs),
(132,419,o),
(134,402,o),
(152,388,cs),
(348,244,l),
(352,279,l),
(93,165,ls),
(69,154,o),
(64,143,o),
(68,128,cs),
(71,116,o),
(84,105,o),
(107,114,cs)
);
}
);
vertWidth = 0;
width = 506;
},
{
guides = (
{
name = " [#GqRMvt6B8x]";
pos = (131,333);
}
);
layerId = "6449507E-FEE0-4D4A-A81F-7CAB6A5803D5";
shapes = (
{
closed = 1;
nodes = (
(416,216,ls),
(435,223,o),
(447,245,o),
(447,263,cs),
(447,277,o),
(444,292,o),
(426,303,cs),
(226,425,ls),
(192,446,o),
(170,442,o),
(151,423,cs),
(129,402,o),
(128,365,o),
(163,345,cs),
(335,244,l),
(341,293,l),
(120,211,ls),
(77,196,o),
(77,171,o),
(83,149,cs),
(89,126,o),
(109,97,o),
(154,116,cs)
);
}
);
vertWidth = 0;
width = 506;
}
);
unicode = 62;
},
{
color = 6;
glyphname = less;
layers = (
{
layerId = m01;
shapes = (
{
closed = 1;
nodes = (
(312,108,o),
(328,108,o),
(339,119,cs),
(349,132,o),
(347,150,o),
(329,163,cs),
(133,308,l),
(129,272,l),
(388,386,ls),
(412,397,o),
(417,409,o),
(413,423,cs),
(410,435,o),
(397,447,o),
(374,437,c),
(99,316,ls),
(89,311,o),
(82,302,o),
(82,292,cs),
(82,284,o),
(86,277,o),
(94,270,cs),
(295,121,ls)
);
}
);
vertWidth = 0;
width = 506;
},
{
layerId = "6449507E-FEE0-4D4A-A81F-7CAB6A5803D5";
shapes = (
{
closed = 1;
nodes = (
(334,110,o),
(366,112,o),
(383,128,cs),
(405,150,o),
(405,187,o),
(371,207,cs),
(198,308,l),
(192,258,l),
(413,340,ls),
(456,355,o),
(456,380,o),
(450,403,cs),
(444,425,o),
(424,453,o),
(379,435,cs),
(118,335,ls),
(99,328,o),
(87,307,o),
(87,289,cs),
(87,274,o),
(89,259,o),
(107,248,cs),
(308,126,ls)
);
}
);
vertWidth = 0;
width = 506;
}
);
unicode = 60;
},
{
color = 6;
glyphname = greaterequal;
layers = (
{
layerId = m01;
shapes = (
{
closed = 1;
nodes = (
(345,153,ls),
(366,153,o),
(377,166,o),
(377,181,cs),
(377,194,o),
(366,207,o),
(345,207,cs),
(75,207,ls),
(53,207,o),
(43,192,o),
(43,179,cs),
(43,166,o),
(53,153,o),
(75,153,cs)
);
},
{
closed = 1;
nodes = (
(375,278,ls),
(397,278,o),
(407,291,o),
(407,305,cs),
(407,312,o),
(404,321,o),
(397,326,cs),
(176,466,ls),
(157,478,o),
(141,476,o),
(132,465,cs),
(122,451,o),
(126,435,o),
(144,423,cs),
(317,312,l),
(323,331,l),
(106,331,ls),
(84,331,o),
(74,317,o),
(74,304,cs),
(74,291,o),
(84,278,o),
(106,278,cs)
);
}
);
vertWidth = 0;
width = 506;
},
{
layerId = "6449507E-FEE0-4D4A-A81F-7CAB6A5803D5";
shapes = (
{
closed = 1;
nodes = (
(374,126,ls),
(415,126,o),
(429,154,o),
(429,177,cs),
(429,201,o),
(415,228,o),
(374,228,cs),
(105,228,ls),
(64,228,o),
(50,201,o),
(50,177,cs),
(50,153,o),
(64,126,o),
(105,126,cs)
);
},
{
closed = 1;
nodes = (
(384,263,ls),
(423,263,o),
(438,290,o),
(438,314,cs),
(438,329,o),
(432,345,o),
(417,355,cs),
(213,493,ls),
(178,517,o),
(153,505,o),
(138,486,c),
(121,462,o),
(118,430,o),
(154,410,cs),
(272,347,l),
(287,365,l),
(140,365,ls),
(100,365,o),
(84,336,o),
(84,314,c),
(84,291,o),
(99,263,o),
(140,263,cs)
);
}
);
vertWidth = 0;
width = 506;
}
);
unicode = 8805;
},
{
color = 6;
glyphname = lessequal;
layers = (
{
layerId = m01;
shapes = (
{
closed = 1;
nodes = (
(345,153,ls),
(366,153,o),
(377,166,o),
(377,181,cs),
(377,194,o),
(366,207,o),
(345,207,cs),
(75,207,ls),
(53,207,o),
(43,192,o),
(43,179,cs),
(43,166,o),
(53,153,o),
(75,153,cs)
);
},
{
closed = 1;
nodes = (
(375,278,ls),
(397,278,o),
(407,291,o),
(407,305,cs),
(407,318,o),
(397,331,o),
(375,331,cs),
(177,331,l),
(181,315,l),
(390,423,ls),
(409,432,o),
(411,451,o),
(402,465,cs),
(392,476,o),
(378,476,o),
(358,466,cs),
(89,328,ls),
(78,322,o),
(74,314,o),
(74,304,cs),
(74,291,o),
(84,278,o),
(106,278,cs)
);
}
);
vertWidth = 0;
width = 506;
},
{
layerId = "6449507E-FEE0-4D4A-A81F-7CAB6A5803D5";
shapes = (
{
closed = 1;
nodes = (
(374,126,ls),
(415,126,o),
(429,154,o),
(429,177,cs),
(429,201,o),
(415,228,o),
(374,228,cs),
(105,228,ls),
(64,228,o),
(50,201,o),
(50,177,cs),
(50,153,o),
(64,126,o),
(105,126,cs)
);
},
{
closed = 1;
nodes = (
(384,263,ls),
(423,263,o),
(438,290,o),
(438,314,cs),
(438,336,o),
(424,365,o),
(384,365,cs),
(227,365,l),
(240,334,l),
(409,407,ls),
(446,423,o),
(446,461,o),
(428,485,cs),
(412,505,o),
(390,513,o),
(355,494,cs),
(113,359,ls),
(91,347,o),
(84,330,o),
(84,314,cs),
(84,291,o),
(99,263,o),
(139,263,cs)
);
}
);
vertWidth = 0;
width = 506;
}
);
unicode = 8804;
},
{
color = 6;
glyphname = plusminus;
layers = (
{
layerId = m01;
shapes = (
{
closed = 1;
nodes = (
(240,221,o),
(252,228,o),
(257,247,cs),
(296,404,ls),
(302,425,o),
(287,441,o),
(272,441,c),
(261,441,o),
(248,434,o),
(244,416,cs),
(206,259,ls),
(200,236,o),
(214,221,o),
(228,221,cs)
);
},
{
closed = 1;
nodes = (
(385,305,ls),
(406,305,o),
(417,320,o),
(417,333,cs),
(417,346,o),
(406,359,o),
(385,359,cs),
(115,359,ls),
(94,359,o),
(83,346,o),
(83,333,cs),
(83,318,o),
(94,305,o),
(115,305,cs)
);
},
{
closed = 1;
nodes = (
(348,153,ls),
(369,153,o),
(380,168,o),
(380,181,cs),
(380,194,o),
(369,207,o),
(348,207,cs),
(78,207,ls),
(57,207,o),
(46,194,o),
(46,181,cs),
(46,166,o),
(57,153,o),
(78,153,cs)
);
}
);
vertWidth = 0;
width = 506;
},
{
layerId = "6449507E-FEE0-4D4A-A81F-7CAB6A5803D5";
shapes = (
{
closed = 1;
nodes = (
(293,245,o),
(317,254,o),
(326,289,cs),
(390,552,ls),
(399,594,o),
(371,618,o),
(346,618,cs),
(326,618,o),
(299,612,o),
(291,577,cs),
(227,312,l),
(217,267,o),
(247,245,o),
(272,245,cs)
);
},
{
closed = 1;
nodes = (
(441,383,ls),
(481,383,o),
(495,411,o),
(495,434,cs),
(495,457,o),
(481,485,o),
(441,485,cs),
(171,485,ls),
(131,485,o),
(116,457,o),
(116,434,cs),
(116,410,o),
(131,383,o),
(171,383,cs)
);
},
{
closed = 1;
nodes = (
(388,119,ls),
(429,119,o),
(443,147,o),
(443,170,cs),
(443,194,o),
(429,221,o),
(388,221,cs),
(119,221,ls),
(78,221,o),
(64,194,o),
(64,170,cs),
(64,146,o),
(78,119,o),
(119,119,cs)
);
}
);
vertWidth = 0;
width = 506;
}
);
unicode = 177;
},
{
color = 6;
glyphname = approxequal;
layers = (
{
layerId = m01;
shapes = (
{
closed = 1;
nodes = (
(106,164,o),
(127,172,o),
(143,172,cs),
(191,172,o),
(232,139,o),
(277,139,cs),
(308,139,o),
(339,151,o),
(360,159,cs),
(378,166,o),
(386,179,o),
(380,195,cs),
(374,210,o),
(360,215,o),
(341,208,cs),
(323,201,o),
(302,192,o),
(286,192,cs),
(241,192,o),
(201,226,o),
(152,226,cs),
(121,226,o),
(90,214,o),
(69,206,cs),
(51,198,o),
(43,185,o),
(49,170,cs),
(55,154,o),
(69,150,o),
(88,157,cs)
);
},
{
closed = 1;
nodes = (
(151,343,o),
(172,352,o),
(188,352,cs),
(236,352,o),
(277,318,o),
(322,318,cs),
(353,318,o),
(384,330,o),
(405,339,cs),
(423,346,o),
(431,359,o),
(425,374,cs),
(419,390,o),
(405,394,o),
(386,387,cs),
(368,380,o),
(347,372,o),
(331,372,cs),
(286,372,o),
(246,405,o),
(197,405,cs),
(166,405,o),
(135,393,o),
(114,385,cs),
(96,378,o),
(88,365,o),
(94,349,cs),
(100,334,o),
(114,329,o),
(133,336,cs)
);
}
);
vertWidth = 0;
width = 506;
},
{
layerId = "6449507E-FEE0-4D4A-A81F-7CAB6A5803D5";
shapes = (
{
closed = 1;
nodes = (
(147,147,o),
(162,156,o),
(173,156,cs),
(213,156,o),
(254,129,o),
(296,129,cs),
(328,129,o),
(360,138,o),
(384,147,cs),
(421,163,o),
(430,192,o),
(419,217,cs),
(407,244,o),
(383,255,o),
(342,239,cs),
(330,234,o),
(315,228,o),
(304,228,cs),
(263,228,o),
(226,254,o),
(182,254,cs),
(149,254,o),
(116,244,o),
(94,233,cs),
(56,215,o),
(45,187,o),
(57,162,cs),
(69,135,o),
(95,124,o),
(134,141,cs)
);
},
{
closed = 1;
nodes = (
(189,314,o),
(203,322,o),
(215,322,cs),
(254,322,o),
(296,296,o),
(337,296,cs),
(369,296,o),
(402,304,o),
(425,314,cs),
(462,329,o),
(472,359,o),
(461,384,cs),
(449,410,o),
(424,422,o),
(384,405,cs),
(372,400,o),
(356,394,o),
(346,394,cs),
(304,394,o),
(267,421,o),
(223,421,cs),
(190,421,o),
(158,410,o),
(135,399,cs),
(97,381,o),
(87,353,o),
(99,328,cs),
(110,302,o),
(137,290,o),
(176,308,cs)
);
}
);
vertWidth = 0;
width = 506;
}
);
unicode = 8776;
},
{
color = 6;
glyphname = asciitilde;
layers = (
{
layerId = m01;
shapes = (
{
closed = 1;
nodes = (
(187,499,o),
(206,501,o),
(217,516,cs),
(229,530,o),
(244,541,o),
(265,541,cs),
(292,541,o),
(329,504,o),
(366,504,cs),
(403,504,o),
(438,520,o),
(460,546,cs),
(470,561,o),
(475,576,o),
(463,588,cs),
(453,599,o),
(432,596,o),
(422,582,cs),
(409,565,o),
(393,557,o),
(373,557,cs),
(348,557,o),
(312,594,o),
(273,594,cs),
(235,594,o),
(200,577,o),
(179,551,cs),
(169,538,o),
(165,520,o),
(176,510,cs)
);
}
);
width = 594;
},
{
layerId = "6449507E-FEE0-4D4A-A81F-7CAB6A5803D5";
shapes = (
{
closed = 1;
nodes = (
(249,482,o),
(274,482,o),
(292,500,cs),
(303,511,o),
(320,518,o),
(334,518,cs),
(360,518,o),
(396,486,o),
(431,486,cs),
(468,486,o),
(507,503,o),
(535,530,cs),
(554,550,o),
(555,579,o),
(538,598,cs),
(522,615,o),
(497,614,o),
(480,596,cs),
(469,586,o),
(454,579,o),
(440,579,cs),
(413,579,o),
(379,611,o),
(341,611,cs),
(304,611,o),
(265,594,o),
(239,567,cs),
(220,546,o),
(217,518,o),
(234,499,cs)
);
}
);
width = 594;
}
);
unicode = 126;
},
{
color = 6;
glyphname = asciicircum;
layers = (
{
layerId = m01;
shapes = (
{
closed = 1;
nodes = (
(318,486,l),
(268,491,l),
(385,352,ls),
(398,336,o),
(416,339,o),
(426,348,cs),
(438,359,o),
(442,377,o),
(430,391,cs),
(320,522,ls),
(310,533,o),
(290,536,o),
(273,522,cs),
(115,390,ls),
(101,378,o),
(102,361,o),
(112,350,cs),
(122,340,o),
(137,334,o),
(156,349,cs)
);
}
);
vertWidth = 0;
width = 542;
},
{
layerId = "6449507E-FEE0-4D4A-A81F-7CAB6A5803D5";
shapes = (
{
closed = 1;
nodes = (
(355,461,l),
(320,463,l),
(426,337,ls),
(448,311,o),
(476,317,o),
(493,331,cs),
(511,347,o),
(517,375,o),
(498,398,cs),
(379,539,ls),
(364,557,o),
(336,564,o),
(309,542,cs),
(147,406,ls),
(124,386,o),
(127,359,o),
(143,341,c),
(159,324,o),
(182,314,o),
(210,337,cs)
);
}
);
vertWidth = 0;
width = 562;
}
);
unicode = 94;
},
{
color = 6;
glyphname = infinity;
layers = (
{
layerId = m01;
shapes = (
{
closed = 1;
nodes = (
(265,95,o),
(345,152,o),
(419,229,c),
(386,273,l),
(320,208,o),
(249,149,o),
(191,149,cs),
(144,149,o),
(122,201,o),
(139,270,cs),
(157,340,o),
(191,375,o),
(242,375,cs),
(283,375,o),
(326,342,o),
(369,277,cs),
(412,214,ls),
(466,135,o),
(523,95,o),
(579,95,cs),
(670,95,o),
(728,149,o),
(752,255,cs),
(770,334,o),
(745,429,o),
(649,429,cs),
(565,429,o),
(486,372,o),
(411,295,c),
(444,251,l),
(511,316,o),
(581,375,o),
(639,375,cs),
(687,375,o),
(708,323,o),
(691,254,cs),
(674,184,o),
(639,149,o),
(588,149,cs),
(548,149,o),
(505,182,o),
(461,247,cs),
(418,310,ls),
(365,388,o),
(308,429,o),
(252,429,cs),
(160,429,o),
(102,375,o),
(78,268,cs),
(61,190,o),
(86,95,o),
(182,95,cs)
);
}
);
vertWidth = 0;
width = 885;
},
{
layerId = "6449507E-FEE0-4D4A-A81F-7CAB6A5803D5";
shapes = (
{
closed = 1;
nodes = (
(316,83,o),
(402,144,o),
(469,215,c),
(400,292,l),
(353,245,o),
(291,187,o),
(248,187,cs),
(213,187,o),
(198,215,o),
(210,261,cs),
(222,309,o),
(253,337,o),
(291,337,cs),
(315,337,o),
(350,307,o),
(383,258,cs),
(418,206,ls),
(470,129,o),
(537,83,o),
(589,83,cs),
(691,83,o),
(765,147,o),
(786,251,cs),
(816,368,o),
(764,441,o),
(649,441,cs),
(574,441,o),
(488,380,o),
(421,309,c),
(489,232,l),
(537,279,o),
(599,337,o),
(642,337,cs),
(680,337,o),
(691,310,o),
(680,263,cs),
(668,215,o),
(639,187,o),
(599,187,cs),
(569,187,o),
(533,217,o),
(507,266,cs),
(472,330,ls),
(434,398,o),
(367,441,o),
(298,441,cs),
(201,441,o),
(127,377,o),
(103,273,cs),
(76,156,o),
(128,83,o),
(241,83,cs)
);
}
);
vertWidth = 0;
width = 867;
}
);
unicode = 8734;
},
{
color = 6;
glyphname = percent;
layers = (
{
layerId = m01;
shapes = (
{
closed = 1;
nodes = (
(217,0,o),
(226,12,o),
(238,27,cs),
(748,720,ls),
(769,747,o),
(754,772,o),
(729,772,cs),
(714,772,o),
(706,760,o),
(694,745,cs),
(183,52,ls),
(163,25,o),
(177,0,o),
(202,0,cs)
);
},
{
closed = 1;
nodes = (
(375,407,o),
(473,526,o),
(473,658,cs),
(473,726,o),
(429,772,o),
(356,772,c),
(247,772,o),
(150,653,o),
(150,522,cs),
(150,454,o),
(194,407,o),
(266,407,c)
);
},
{
closed = 1;
nodes = (
(230,461,o),
(209,494,o),
(209,533,cs),
(209,623,o),
(274,719,o),
(348,719,cs),
(392,719,o),
(413,685,o),
(413,646,cs),
(413,549,o),
(341,461,o),
(274,461,cs)
);
},
{
closed = 1;
nodes = (
(697,0,o),
(795,119,o),
(795,251,cs),
(795,318,o),
(751,365,o),
(678,365,c),
(569,365,o),
(472,246,o),
(472,114,cs),
(472,46,o),
(516,0,o),
(588,0,c)
);
},
{
closed = 1;
nodes = (
(552,53,o),
(531,87,o),
(531,126,cs),
(531,215,o),
(596,311,o),
(670,311,cs),
(714,311,o),
(735,278,o),
(735,239,cs),
(735,141,o),
(663,53,o),
(596,53,cs)
);
}
);
vertWidth = 0;
width = 936;
},
{
layerId = "6449507E-FEE0-4D4A-A81F-7CAB6A5803D5";
shapes = (
{
closed = 1;
nodes = (
(323,0,o),
(339,12,o),
(358,38,cs),
(826,672,ls),
(872,735,o),
(827,772,o),
(783,772,cs),
(759,772,o),
(744,760,o),
(723,734,cs),
(255,100,ls),
(209,37,o),
(255,0,o),
(299,0,cs)
);
},
{
closed = 1;
nodes = (
(425,373,o),
(532,494,o),
(532,636,cs),
(532,716,o),
(481,772,o),
(393,772,cs),
(279,772,o),
(171,652,o),
(171,510,cs),
(171,429,o),
(223,373,o),
(311,373,cs)
);
},
{
closed = 1;
nodes = (
(298,487,o),
(291,505,o),
(291,522,cs),
(291,582,o),
(331,658,o),
(386,658,cs),
(406,658,o),
(413,640,o),
(413,624,cs),
(413,558,o),
(367,487,o),
(318,487,cs)
);
},
{
closed = 1;
nodes = (
(804,0,o),
(912,120,o),
(912,263,cs),
(912,343,o),
(860,399,o),
(772,399,cs),
(658,399,o),
(551,278,o),
(551,137,cs),
(551,56,o),
(602,0,o),
(690,0,cs)
);
},
{
closed = 1;
nodes = (
(677,114,o),
(670,132,o),
(670,149,cs),
(670,209,o),
(710,285,o),
(765,285,cs),
(785,285,o),
(792,267,o),
(792,251,cs),
(792,185,o),
(747,114,o),
(697,114,cs)
);
}
);
vertWidth = 0;
width = 998;
}
);
unicode = 37;
},
{
color = 6;
glyphname = grave;
layers = (
{
layerId = m01;
shapes = (
{
closed = 1;
nodes = (
(360,531,o),
(375,527,o),
(386,533,cs),
(396,538,o),
(399,550,o),
(392,567,cs),
(342,681,ls),
(335,696,o),
(320,702,o),
(307,702,cs),
(287,701,o),
(270,684,o),
(285,658,cs),
(349,549,ls)
);
}
);
vertWidth = 0;
width = 594;
},
{
layerId = "6449507E-FEE0-4D4A-A81F-7CAB6A5803D5";
shapes = (
{
closed = 1;
nodes = (
(379,525,o),
(406,532,o),
(422,541,cs),
(436,548,o),
(467,569,o),
(450,601,cs),
(392,715,ls),
(381,737,o),
(362,746,o),
(345,746,cs),
(314,746,o),
(266,710,o),
(292,668,cs),
(360,556,ls)
);
}
);
vertWidth = 0;
width = 594;
}
);
unicode = 96;
},
{
color = 6;
glyphname = tilde;
layers = (
{
layerId = m01;
shapes = (
{
closed = 1;
nodes = (
(187,499,o),
(206,501,o),
(217,516,cs),
(229,530,o),
(244,541,o),
(265,541,cs),
(292,541,o),
(329,504,o),
(366,504,cs),
(403,504,o),
(438,520,o),
(460,546,cs),
(470,561,o),
(475,576,o),
(463,588,cs),
(453,599,o),
(432,596,o),
(422,582,cs),
(409,565,o),
(393,557,o),
(373,557,cs),
(348,557,o),
(312,594,o),
(273,594,cs),
(235,594,o),
(200,577,o),
(179,551,cs),
(169,538,o),
(165,520,o),
(176,510,cs)
);
}
